<svg width="159" height="20" viewBox="0 0 159 20" fill="none" xmlns="http://www.w3.org/2000/svg">
<path d="M0.723758 19V1.54548H7.40558C8.66694 1.54548 9.71524 1.74435 10.5505 2.14208C11.3914 2.53412 12.0192 3.07105 12.434 3.75287C12.8544 4.43469 13.0647 5.20742 13.0647 6.07105C13.0647 6.78128 12.9283 7.38923 12.6556 7.89492C12.3828 8.39492 12.0164 8.80117 11.5561 9.11367C11.0959 9.42617 10.5817 9.6506 10.0135 9.78696V9.95742C10.6328 9.99151 11.2266 10.1818 11.7948 10.5284C12.3686 10.8693 12.8374 11.3523 13.201 11.9773C13.5647 12.6023 13.7465 13.358 13.7465 14.2443C13.7465 15.1478 13.5277 15.9603 13.0902 16.6818C12.6527 17.3978 11.9936 17.9631 11.113 18.3779C10.2323 18.7926 9.12433 19 7.7891 19H0.723758ZM3.88569 16.358H7.28626C8.43399 16.358 9.26069 16.1392 9.76637 15.7017C10.2777 15.2586 10.5334 14.6904 10.5334 13.9972C10.5334 13.4801 10.4056 13.0142 10.1499 12.5995C9.89421 12.179 9.53058 11.8495 9.05898 11.6108C8.58739 11.3665 8.02489 11.2443 7.37148 11.2443H3.88569V16.358ZM3.88569 8.96878H7.01353C7.55899 8.96878 8.05046 8.86935 8.48796 8.67048C8.92546 8.46594 9.26921 8.17901 9.51921 7.80969C9.77489 7.43469 9.90273 6.99151 9.90273 6.48014C9.90273 5.80401 9.6641 5.24719 9.18683 4.80969C8.71524 4.37219 8.01353 4.15344 7.08171 4.15344H3.88569V8.96878ZM14.3208 19V5.90912H17.3123V8.09094H17.4487C17.6873 7.33526 18.0964 6.75287 18.6759 6.34378C19.2612 5.92901 19.9288 5.72162 20.6788 5.72162C20.8492 5.72162 21.0396 5.73014 21.2498 5.74719C21.4657 5.75855 21.6447 5.77844 21.7867 5.80685V8.64492C21.6561 8.59946 21.4487 8.55969 21.1646 8.5256C20.8862 8.48583 20.6163 8.46594 20.3549 8.46594C19.7924 8.46594 19.2867 8.5881 18.8379 8.83242C18.3947 9.07105 18.0453 9.40344 17.7896 9.82958C17.5339 10.2557 17.4061 10.7472 17.4061 11.304V19H14.3208ZM26.9676 19.2557C25.6892 19.2557 24.5813 18.9745 23.6438 18.412C22.7063 17.8495 21.979 17.0625 21.4619 16.0512C20.9506 15.0398 20.6949 13.858 20.6949 12.5057C20.6949 11.1534 20.9506 9.96878 21.4619 8.95173C21.979 7.93469 22.7063 7.14492 23.6438 6.58242C24.5813 6.01992 25.6892 5.73867 26.9676 5.73867C28.246 5.73867 29.354 6.01992 30.2915 6.58242C31.229 7.14492 31.9534 7.93469 32.4648 8.95173C32.9818 9.96878 33.2403 11.1534 33.2403 12.5057C33.2403 13.858 32.9818 15.0398 32.4648 16.0512C31.9534 17.0625 31.229 17.8495 30.2915 18.412C29.354 18.9745 28.246 19.2557 26.9676 19.2557ZM26.9847 16.7841C27.6778 16.7841 28.2574 16.5938 28.7233 16.2131C29.1892 15.8267 29.5358 15.3097 29.7631 14.662C29.996 14.0142 30.1125 13.2926 30.1125 12.4972C30.1125 11.6961 29.996 10.9716 29.7631 10.3239C29.5358 9.67049 29.1892 9.1506 28.7233 8.76423C28.2574 8.37787 27.6778 8.18469 26.9847 8.18469C26.2744 8.18469 25.6835 8.37787 25.2119 8.76423C24.746 9.1506 24.3966 9.67049 24.1636 10.3239C23.9364 10.9716 23.8227 11.6961 23.8227 12.4972C23.8227 13.2926 23.9364 14.0142 24.1636 14.662C24.3966 15.3097 24.746 15.8267 25.2119 16.2131C25.6835 16.5938 26.2744 16.7841 26.9847 16.7841ZM38.1504 1.54548V19H34.9884V1.54548H38.1504ZM42.4945 1.54548V3.28412C42.4945 3.78412 42.3979 4.30401 42.2047 4.84378C42.0172 5.37787 41.7587 5.88924 41.4292 6.37787C41.0996 6.86083 40.7246 7.2756 40.3042 7.62219L38.8723 6.69321C39.1848 6.22162 39.4576 5.7131 39.6905 5.16764C39.9235 4.61651 40.04 3.99435 40.04 3.30117V1.54548H42.4945ZM42.7308 19V5.90912H45.6797V8.13355H45.8331C46.1058 7.38355 46.5575 6.79833 47.1882 6.37787C47.8189 5.95174 48.5717 5.73867 49.4467 5.73867C50.3331 5.73867 51.0803 5.95458 51.6882 6.38639C52.3019 6.81253 52.7337 7.39492 52.9837 8.13355H53.12C53.4098 7.40628 53.8984 6.82674 54.5859 6.39492C55.2791 5.95742 56.1001 5.73867 57.049 5.73867C58.2536 5.73867 59.2365 6.11935 59.9979 6.88071C60.7592 7.64208 61.1399 8.75287 61.1399 10.2131V19H58.0462V10.6904C58.0462 9.87787 57.8303 9.28412 57.3984 8.90912C56.9666 8.52844 56.4382 8.3381 55.8132 8.3381C55.0689 8.3381 54.4865 8.57105 54.0661 9.03696C53.6513 9.49719 53.4439 10.0966 53.4439 10.8353V19H50.4183V10.5625C50.4183 9.88639 50.2138 9.34662 49.8047 8.94321C49.4013 8.5398 48.8729 8.3381 48.2195 8.3381C47.7763 8.3381 47.3729 8.45173 47.0092 8.67901C46.6456 8.9006 46.3558 9.21594 46.1399 9.62503C45.924 10.0284 45.8161 10.5 45.8161 11.0398V19H42.7308ZM74.0857 7.11935C73.9436 6.65912 73.7476 6.24719 73.4976 5.88355C73.2533 5.51423 72.9578 5.19889 72.6113 4.93753C72.2703 4.67617 71.8783 4.48014 71.4351 4.34946C70.9919 4.2131 70.509 4.14492 69.9863 4.14492C69.0488 4.14492 68.2135 4.38071 67.4806 4.8523C66.7476 5.32389 66.1709 6.01708 65.7505 6.93185C65.3357 7.84094 65.1283 8.94889 65.1283 10.2557C65.1283 11.5739 65.3357 12.6904 65.7505 13.6051C66.1652 14.5199 66.7419 15.2159 67.4806 15.6932C68.2192 16.1648 69.0772 16.4006 70.0544 16.4006C70.9408 16.4006 71.7078 16.2301 72.3556 15.8892C73.009 15.5483 73.5118 15.0654 73.8641 14.4404C74.2164 13.8097 74.3925 13.0711 74.3925 12.2245L75.1084 12.3353H70.3698V9.86367H77.4522V11.9603C77.4522 13.4546 77.134 14.7472 76.4976 15.8381C75.8613 16.929 74.9863 17.7699 73.8726 18.3608C72.759 18.9461 71.4806 19.2387 70.0374 19.2387C68.4294 19.2387 67.0175 18.8779 65.8016 18.1563C64.5914 17.429 63.6453 16.3978 62.9635 15.0625C62.2874 13.7216 61.9493 12.1307 61.9493 10.2898C61.9493 8.88071 62.1482 7.62219 62.5459 6.51423C62.9493 5.40628 63.5118 4.46594 64.2334 3.69321C64.955 2.9148 65.8016 2.32389 66.7732 1.92048C67.7448 1.51139 68.8016 1.30685 69.9436 1.30685C70.9096 1.30685 71.8101 1.44889 72.6453 1.73298C73.4806 2.01139 74.2221 2.40912 74.8698 2.92617C75.5232 3.44321 76.0601 4.05685 76.4806 4.76708C76.901 5.4773 77.1766 6.26139 77.3073 7.11935H74.0857ZM84.0436 19.2557C82.7652 19.2557 81.6572 18.9745 80.7197 18.412C79.7822 17.8495 79.0549 17.0625 78.5379 16.0512C78.0265 15.0398 77.7708 13.858 77.7708 12.5057C77.7708 11.1534 78.0265 9.96878 78.5379 8.95173C79.0549 7.93469 79.7822 7.14492 80.7197 6.58242C81.6572 6.01992 82.7652 5.73867 84.0436 5.73867C85.322 5.73867 86.4299 6.01992 87.3674 6.58242C88.3049 7.14492 89.0294 7.93469 89.5407 8.95173C90.0578 9.96878 90.3163 11.1534 90.3163 12.5057C90.3163 13.858 90.0578 15.0398 89.5407 16.0512C89.0294 17.0625 88.3049 17.8495 87.3674 18.412C86.4299 18.9745 85.322 19.2557 84.0436 19.2557ZM84.0606 16.7841C84.7538 16.7841 85.3333 16.5938 85.7992 16.2131C86.2652 15.8267 86.6117 15.3097 86.839 14.662C87.072 14.0142 87.1884 13.2926 87.1884 12.4972C87.1884 11.6961 87.072 10.9716 86.839 10.3239C86.6117 9.67049 86.2652 9.1506 85.7992 8.76423C85.3333 8.37787 84.7538 8.18469 84.0606 8.18469C83.3504 8.18469 82.7595 8.37787 82.2879 8.76423C81.822 9.1506 81.4725 9.67049 81.2396 10.3239C81.0123 10.9716 80.8987 11.6961 80.8987 12.4972C80.8987 13.2926 81.0123 14.0142 81.2396 14.662C81.4725 15.3097 81.822 15.8267 82.2879 16.2131C82.7595 16.5938 83.3504 16.7841 84.0606 16.7841ZM93.9801 11.3296V19H90.8949V5.90912H93.8438V8.13355H93.9972C94.2983 7.4006 94.7784 6.81821 95.4375 6.38639C96.1023 5.95458 96.9233 5.73867 97.9006 5.73867C98.804 5.73867 99.5909 5.93185 100.261 6.31821C100.938 6.70458 101.46 7.26423 101.83 7.99719C102.205 8.73014 102.389 9.61935 102.384 10.6648V19H99.2983V11.1421C99.2983 10.2671 99.071 9.58242 98.6165 9.0881C98.1676 8.59378 97.5455 8.34662 96.75 8.34662C96.2102 8.34662 95.7301 8.46594 95.3097 8.70458C94.8949 8.93753 94.5682 9.2756 94.3296 9.71878C94.0966 10.162 93.9801 10.6989 93.9801 11.3296ZM106.565 11.3296V19H103.48V5.90912H106.429V8.13355H106.582C106.883 7.4006 107.363 6.81821 108.023 6.38639C108.687 5.95458 109.508 5.73867 110.486 5.73867C111.389 5.73867 112.176 5.93185 112.846 6.31821C113.523 6.70458 114.045 7.26423 114.415 7.99719C114.79 8.73014 114.974 9.61935 114.969 10.6648V19H111.883V11.1421C111.883 10.2671 111.656 9.58242 111.201 9.0881C110.753 8.59378 110.13 8.34662 109.335 8.34662C108.795 8.34662 108.315 8.46594 107.895 8.70458C107.48 8.93753 107.153 9.2756 106.915 9.71878C106.682 10.162 106.565 10.6989 106.565 11.3296ZM119.832 19.2642C119.002 19.2642 118.255 19.1165 117.59 18.8211C116.931 18.5199 116.409 18.0767 116.022 17.4915C115.642 16.9063 115.451 16.1847 115.451 15.3267C115.451 14.5881 115.588 13.9773 115.86 13.4943C116.133 13.0114 116.505 12.625 116.977 12.3353C117.448 12.0455 117.98 11.8267 118.571 11.679C119.167 11.5256 119.784 11.4148 120.42 11.3466C121.187 11.2671 121.809 11.1961 122.286 11.1336C122.764 11.0654 123.11 10.9631 123.326 10.8267C123.548 10.6847 123.659 10.4659 123.659 10.1705V10.1193C123.659 9.4773 123.468 8.98014 123.088 8.62787C122.707 8.2756 122.159 8.09946 121.443 8.09946C120.687 8.09946 120.088 8.26424 119.644 8.59378C119.207 8.92333 118.911 9.31253 118.758 9.76139L115.877 9.3523C116.105 8.55685 116.48 7.89208 117.002 7.35798C117.525 6.81821 118.164 6.4148 118.92 6.14776C119.676 5.87503 120.511 5.73867 121.426 5.73867C122.056 5.73867 122.684 5.81253 123.309 5.96026C123.934 6.10798 124.505 6.3523 125.022 6.69321C125.539 7.02844 125.954 7.48583 126.267 8.06537C126.585 8.64492 126.744 9.36935 126.744 10.2387V19H123.778V17.2017H123.676C123.488 17.5654 123.224 17.9063 122.883 18.2245C122.548 18.537 122.125 18.7898 121.613 18.983C121.108 19.1705 120.514 19.2642 119.832 19.2642ZM120.633 16.9972C121.252 16.9972 121.789 16.875 122.244 16.6307C122.698 16.3807 123.048 16.0512 123.292 15.6421C123.542 15.233 123.667 14.787 123.667 14.304V12.7614C123.571 12.8409 123.406 12.9148 123.173 12.983C122.946 13.0512 122.69 13.1108 122.406 13.162C122.122 13.2131 121.84 13.2586 121.562 13.2983C121.284 13.3381 121.042 13.3722 120.838 13.4006C120.377 13.4631 119.965 13.5654 119.602 13.7074C119.238 13.8495 118.951 14.0483 118.741 14.304C118.531 14.554 118.426 14.8779 118.426 15.2756C118.426 15.8438 118.633 16.2728 119.048 16.5625C119.463 16.8523 119.991 16.9972 120.633 16.9972ZM134.99 5.90912V8.29548H127.251V5.90912H134.99ZM129.186 19V4.67333C129.186 3.79264 129.368 3.05969 129.731 2.47446C130.101 1.88923 130.595 1.45173 131.214 1.16196C131.834 0.872189 132.521 0.727302 133.277 0.727302C133.811 0.727302 134.285 0.769916 134.7 0.855144C135.115 0.940371 135.422 1.01708 135.621 1.08526L135.007 3.47162C134.876 3.43185 134.712 3.39208 134.513 3.3523C134.314 3.30685 134.092 3.28412 133.848 3.28412C133.274 3.28412 132.868 3.42333 132.629 3.70173C132.396 3.97446 132.28 4.36651 132.28 4.87787V19H129.186ZM138.533 19.2642C137.704 19.2642 136.956 19.1165 136.292 18.8211C135.633 18.5199 135.11 18.0767 134.724 17.4915C134.343 16.9063 134.153 16.1847 134.153 15.3267C134.153 14.5881 134.289 13.9773 134.562 13.4943C134.834 13.0114 135.206 12.625 135.678 12.3353C136.15 12.0455 136.681 11.8267 137.272 11.679C137.868 11.5256 138.485 11.4148 139.121 11.3466C139.888 11.2671 140.51 11.1961 140.988 11.1336C141.465 11.0654 141.812 10.9631 142.028 10.8267C142.249 10.6847 142.36 10.4659 142.36 10.1705V10.1193C142.36 9.4773 142.17 8.98014 141.789 8.62787C141.408 8.2756 140.86 8.09946 140.144 8.09946C139.388 8.09946 138.789 8.26424 138.346 8.59378C137.908 8.92333 137.613 9.31253 137.459 9.76139L134.579 9.3523C134.806 8.55685 135.181 7.89208 135.704 7.35798C136.226 6.81821 136.866 6.4148 137.621 6.14776C138.377 5.87503 139.212 5.73867 140.127 5.73867C140.758 5.73867 141.385 5.81253 142.01 5.96026C142.635 6.10798 143.206 6.3523 143.724 6.69321C144.241 7.02844 144.655 7.48583 144.968 8.06537C145.286 8.64492 145.445 9.36935 145.445 10.2387V19H142.479V17.2017H142.377C142.189 17.5654 141.925 17.9063 141.584 18.2245C141.249 18.537 140.826 18.7898 140.314 18.983C139.809 19.1705 139.215 19.2642 138.533 19.2642ZM139.334 16.9972C139.954 16.9972 140.491 16.875 140.945 16.6307C141.4 16.3807 141.749 16.0512 141.993 15.6421C142.243 15.233 142.368 14.787 142.368 14.304V12.7614C142.272 12.8409 142.107 12.9148 141.874 12.983C141.647 13.0512 141.391 13.1108 141.107 13.162C140.823 13.2131 140.542 13.2586 140.263 13.2983C139.985 13.3381 139.743 13.3722 139.539 13.4006C139.079 13.4631 138.667 13.5654 138.303 13.7074C137.939 13.8495 137.653 14.0483 137.442 14.304C137.232 14.554 137.127 14.8779 137.127 15.2756C137.127 15.8438 137.334 16.2728 137.749 16.5625C138.164 16.8523 138.692 16.9972 139.334 16.9972ZM146.507 19V5.90912H149.593V19H146.507ZM148.059 4.05117C147.57 4.05117 147.149 3.88924 146.797 3.56537C146.445 3.23583 146.269 2.84094 146.269 2.38071C146.269 1.9148 146.445 1.51992 146.797 1.19605C147.149 0.866507 147.57 0.701735 148.059 0.701735C148.553 0.701735 148.973 0.866507 149.32 1.19605C149.672 1.51992 149.848 1.9148 149.848 2.38071C149.848 2.84094 149.672 3.23583 149.32 3.56537C148.973 3.88924 148.553 4.05117 148.059 4.05117ZM153.81 1.54548V19H150.725V1.54548H153.81ZM156.844 19.1875C156.327 19.1875 155.883 19.0057 155.514 18.6421C155.145 18.2784 154.963 17.8353 154.969 17.3125C154.963 16.8012 155.145 16.3637 155.514 16C155.883 15.6364 156.327 15.4546 156.844 15.4546C157.344 15.4546 157.778 15.6364 158.148 16C158.523 16.3637 158.713 16.8012 158.719 17.3125C158.713 17.6591 158.622 17.9745 158.446 18.2586C158.275 18.5426 158.048 18.7699 157.764 18.9404C157.486 19.1051 157.179 19.1875 156.844 19.1875Z" fill="black"/>
</svg>
