<svg width="389" height="692" viewBox="0 0 389 692" fill="none" xmlns="http://www.w3.org/2000/svg">
<path d="M10 1.5H378.055C382.749 1.5 386.555 5.30558 386.555 10V681.424C386.555 686.119 382.749 689.924 378.055 689.924H10C5.3056 689.924 1.5 686.119 1.5 681.424V9.99999C1.5 5.30557 5.30558 1.5 10 1.5Z" fill="#F0AF4C" stroke="black" stroke-width="3"/>
<line y1="-0.5" x2="295.011" y2="-0.5" transform="matrix(0.999963 0.00857928 -0.0313084 0.99951 45.0229 109.342)" stroke="black"/>
<line y1="-0.5" x2="295.011" y2="-0.5" transform="matrix(0.999963 0.00857928 -0.0313084 0.99951 45.0229 177.948)" stroke="black"/>
<line y1="-0.5" x2="295.011" y2="-0.5" transform="matrix(0.999963 0.00857928 -0.0313084 0.99951 45.0229 251.914)" stroke="black"/>
<line y1="-0.5" x2="295.011" y2="-0.5" transform="matrix(0.999963 0.00857928 -0.0313084 0.99951 45.0229 318.377)" stroke="black"/>
<line y1="-0.5" x2="295.011" y2="-0.5" transform="matrix(0.999963 0.00857928 -0.0313084 0.99951 45.0229 392.343)" stroke="black"/>
<line y1="-0.5" x2="295.011" y2="-0.5" transform="matrix(0.999963 0.00857928 -0.0313084 0.99951 45.0229 466.309)" stroke="black"/>
<line y1="-0.5" x2="295.011" y2="-0.5" transform="matrix(0.999963 0.00857928 -0.0313084 0.99951 45.0229 540.276)" stroke="black"/>
<line y1="-0.5" x2="295.011" y2="-0.5" transform="matrix(0.999963 0.00857928 -0.0313084 0.99951 45.0229 608.882)" stroke="black"/>
<line y1="-0.5" x2="295.011" y2="-0.5" transform="matrix(0.999963 0.00857928 -0.0313084 0.99951 45.0229 143.645)" stroke="black"/>
<line y1="-0.5" x2="295.011" y2="-0.5" transform="matrix(0.999963 0.00857928 -0.0313084 0.99951 45.0229 212.251)" stroke="black"/>
<line y1="-0.5" x2="295.011" y2="-0.5" transform="matrix(0.999963 0.00857928 -0.0313084 0.99951 45.0229 286.217)" stroke="black"/>
<line y1="-0.5" x2="295.011" y2="-0.5" transform="matrix(0.999963 0.00857928 -0.0313084 0.99951 45.0229 352.68)" stroke="black"/>
<line y1="-0.5" x2="295.011" y2="-0.5" transform="matrix(0.999963 0.00857928 -0.0313084 0.99951 45.0229 426.646)" stroke="black"/>
<line y1="-0.5" x2="295.011" y2="-0.5" transform="matrix(0.999963 0.00857928 -0.0313084 0.99951 45.0229 500.613)" stroke="black"/>
<line y1="-0.5" x2="295.011" y2="-0.5" transform="matrix(0.999963 0.00857928 -0.0313084 0.99951 45.0229 574.579)" stroke="black"/>
</svg>
