<svg width="300" height="98" viewBox="0 0 300 98" fill="none" xmlns="http://www.w3.org/2000/svg">
<path d="M0 13C0 9.68629 2.68629 7 6 7H221C224.314 7 227 9.68629 227 13V49C227 52.3137 224.314 55 221 55H6C2.6863 55 0 52.3137 0 49V13Z" fill="#C65959"/>
<path d="M208.642 87.358C207.674 87.358 206.796 87.1757 206.007 86.8111C205.218 86.4399 204.592 85.9062 204.128 85.2102C203.664 84.5076 203.432 83.6591 203.432 82.6648C203.432 81.7898 203.604 81.0805 203.949 80.5369C204.294 79.9867 204.754 79.5559 205.331 79.2443C205.908 78.9328 206.544 78.7008 207.24 78.5483C207.943 78.3892 208.649 78.2633 209.358 78.1705C210.286 78.0511 211.038 77.9616 211.615 77.902C212.198 77.8357 212.623 77.7263 212.888 77.5739C213.16 77.4214 213.295 77.1562 213.295 76.7784V76.6989C213.295 75.7178 213.027 74.9555 212.49 74.4119C211.96 73.8684 211.154 73.5966 210.074 73.5966C208.954 73.5966 208.075 73.8419 207.439 74.3324C206.803 74.8229 206.355 75.3466 206.097 75.9034L203.869 75.108C204.267 74.1799 204.797 73.4574 205.46 72.9403C206.13 72.4167 206.859 72.0521 207.648 71.8466C208.443 71.6345 209.225 71.5284 209.994 71.5284C210.485 71.5284 211.048 71.5881 211.685 71.7074C212.328 71.8201 212.947 72.0554 213.544 72.4134C214.147 72.7713 214.648 73.3116 215.045 74.0341C215.443 74.7566 215.642 75.7244 215.642 76.9375V87H213.295V84.9318H213.176C213.017 85.2633 212.752 85.6179 212.381 85.9957C212.009 86.3736 211.516 86.6951 210.899 86.9602C210.283 87.2254 209.53 87.358 208.642 87.358ZM209 85.25C209.928 85.25 210.71 85.0677 211.347 84.7031C211.99 84.3385 212.473 83.8679 212.798 83.2912C213.13 82.7145 213.295 82.108 213.295 81.4716V79.3239C213.196 79.4432 212.977 79.5526 212.639 79.652C212.308 79.7448 211.923 79.8277 211.486 79.9006C211.055 79.9669 210.634 80.0265 210.223 80.0795C209.819 80.1259 209.491 80.1657 209.239 80.1989C208.629 80.2784 208.059 80.4077 207.528 80.5866C207.005 80.759 206.58 81.0208 206.256 81.3722C205.938 81.7169 205.778 82.1875 205.778 82.7841C205.778 83.5994 206.08 84.2159 206.683 84.6335C207.293 85.0445 208.065 85.25 209 85.25ZM216.743 87V66.6364H219.09V74.1534H219.289C219.461 73.8883 219.7 73.5502 220.005 73.1392C220.316 72.7216 220.76 72.3504 221.337 72.0256C221.92 71.6941 222.709 71.5284 223.703 71.5284C224.989 71.5284 226.123 71.8499 227.104 72.4929C228.085 73.1359 228.851 74.0473 229.401 75.2273C229.951 76.4072 230.226 77.7992 230.226 79.4034C230.226 81.0208 229.951 82.4228 229.401 83.6094C228.851 84.7893 228.088 85.7041 227.114 86.3537C226.14 86.9967 225.016 87.3182 223.743 87.3182C222.762 87.3182 221.977 87.1558 221.387 86.831C220.797 86.4995 220.343 86.125 220.025 85.7074C219.706 85.2831 219.461 84.9318 219.289 84.6534H219.01V87H216.743ZM219.05 79.3636C219.05 80.517 219.219 81.5346 219.557 82.4162C219.895 83.2912 220.389 83.9773 221.039 84.4744C221.688 84.965 222.484 85.2102 223.425 85.2102C224.406 85.2102 225.225 84.9517 225.881 84.4347C226.544 83.911 227.041 83.2083 227.373 82.3267C227.711 81.4384 227.88 80.4508 227.88 79.3636C227.88 78.2898 227.714 77.322 227.382 76.4602C227.058 75.5919 226.564 74.9058 225.901 74.402C225.245 73.8916 224.419 73.6364 223.425 73.6364C222.471 73.6364 221.668 73.8783 221.019 74.3622C220.369 74.8395 219.879 75.509 219.547 76.3707C219.216 77.2259 219.05 78.2235 219.05 79.3636ZM237.92 87.3182C236.541 87.3182 235.332 86.9901 234.291 86.3338C233.257 85.6776 232.448 84.7595 231.865 83.5795C231.288 82.3996 231 81.0208 231 79.4432C231 77.8523 231.288 76.4635 231.865 75.277C232.448 74.0904 233.257 73.169 234.291 72.5128C235.332 71.8565 236.541 71.5284 237.92 71.5284C239.299 71.5284 240.505 71.8565 241.54 72.5128C242.58 73.169 243.389 74.0904 243.966 75.277C244.549 76.4635 244.841 77.8523 244.841 79.4432C244.841 81.0208 244.549 82.3996 243.966 83.5795C243.389 84.7595 242.58 85.6776 241.54 86.3338C240.505 86.9901 239.299 87.3182 237.92 87.3182ZM237.92 85.2102C238.968 85.2102 239.829 84.9418 240.505 84.4048C241.182 83.8679 241.682 83.1619 242.007 82.2869C242.332 81.4119 242.494 80.464 242.494 79.4432C242.494 78.4223 242.332 77.4711 242.007 76.5895C241.682 75.7079 241.182 74.9953 240.505 74.4517C239.829 73.9081 238.968 73.6364 237.92 73.6364C236.873 73.6364 236.011 73.9081 235.335 74.4517C234.659 74.9953 234.158 75.7079 233.834 76.5895C233.509 77.4711 233.346 78.4223 233.346 79.4432C233.346 80.464 233.509 81.4119 233.834 82.2869C234.158 83.1619 234.659 83.8679 235.335 84.4048C236.011 84.9418 236.873 85.2102 237.92 85.2102ZM255.668 80.7557V71.7273H258.014V87H255.668V84.4148H255.509C255.151 85.1903 254.594 85.8499 253.838 86.3935C253.083 86.9304 252.128 87.1989 250.975 87.1989C250.02 87.1989 249.172 86.9901 248.429 86.5724C247.687 86.1482 247.103 85.5118 246.679 84.6634C246.255 83.8082 246.043 82.7311 246.043 81.4318V71.7273H248.389V81.2727C248.389 82.3864 248.701 83.2746 249.324 83.9375C249.954 84.6004 250.756 84.9318 251.73 84.9318C252.314 84.9318 252.907 84.7827 253.51 84.4844C254.12 84.1861 254.63 83.7287 255.041 83.1122C255.459 82.4957 255.668 81.7102 255.668 80.7557ZM266.714 71.7273V73.7159H258.8V71.7273H266.714ZM261.106 68.0682H263.453V82.625C263.453 83.2879 263.549 83.785 263.741 84.1165C263.94 84.4413 264.192 84.66 264.497 84.7727C264.809 84.8788 265.137 84.9318 265.481 84.9318C265.74 84.9318 265.952 84.9186 266.118 84.892C266.283 84.8589 266.416 84.8324 266.515 84.8125L266.993 86.9205C266.834 86.9801 266.612 87.0398 266.327 87.0994C266.041 87.1657 265.68 87.1989 265.243 87.1989C264.58 87.1989 263.93 87.0563 263.294 86.7713C262.664 86.4863 262.14 86.0521 261.723 85.4688C261.312 84.8854 261.106 84.1496 261.106 83.2614V68.0682ZM282.844 80.7557V71.7273H285.191V87H282.844V84.4148H282.685C282.327 85.1903 281.77 85.8499 281.015 86.3935C280.259 86.9304 279.304 87.1989 278.151 87.1989C277.196 87.1989 276.348 86.9901 275.605 86.5724C274.863 86.1482 274.28 85.5118 273.855 84.6634C273.431 83.8082 273.219 82.7311 273.219 81.4318V71.7273H275.566V81.2727C275.566 82.3864 275.877 83.2746 276.5 83.9375C277.13 84.6004 277.932 84.9318 278.907 84.9318C279.49 84.9318 280.083 84.7827 280.686 84.4844C281.296 84.1861 281.807 83.7287 282.218 83.1122C282.635 82.4957 282.844 81.7102 282.844 80.7557ZM297.507 75.1477L295.399 75.7443C295.266 75.393 295.071 75.0516 294.812 74.7202C294.56 74.3821 294.216 74.1037 293.778 73.8849C293.341 73.6662 292.781 73.5568 292.098 73.5568C291.163 73.5568 290.384 73.7723 289.761 74.2031C289.145 74.6274 288.836 75.1676 288.836 75.8239C288.836 76.4072 289.049 76.8679 289.473 77.206C289.897 77.544 290.56 77.8258 291.461 78.0511L293.728 78.608C295.094 78.9394 296.111 79.4465 296.781 80.1293C297.451 80.8054 297.785 81.6771 297.785 82.7443C297.785 83.6193 297.533 84.4015 297.03 85.0909C296.532 85.7803 295.836 86.3239 294.942 86.7216C294.047 87.1193 293.006 87.3182 291.819 87.3182C290.262 87.3182 288.972 86.9801 287.951 86.304C286.931 85.6278 286.284 84.6402 286.013 83.3409L288.24 82.7841C288.452 83.6061 288.853 84.2225 289.443 84.6335C290.04 85.0445 290.818 85.25 291.78 85.25C292.873 85.25 293.742 85.018 294.385 84.554C295.034 84.0833 295.359 83.5199 295.359 82.8636C295.359 82.3333 295.174 81.8892 294.802 81.5312C294.431 81.1667 293.861 80.8949 293.092 80.7159L290.547 80.1193C289.148 79.7879 288.12 79.2741 287.464 78.5781C286.815 77.8755 286.49 76.9972 286.49 75.9432C286.49 75.0814 286.732 74.3191 287.216 73.6562C287.706 72.9934 288.372 72.473 289.214 72.0952C290.063 71.7173 291.024 71.5284 292.098 71.5284C293.609 71.5284 294.796 71.8598 295.657 72.5227C296.526 73.1856 297.142 74.0606 297.507 75.1477Z" fill="black"/>
<path d="M251.5 30.5C273.5 30.9999 281 28.5 280 64.0001" stroke="black" stroke-width="15"/>
<circle cx="240.5" cy="30.5" r="7" stroke="black" stroke-width="3"/>
</svg>
