<svg width="73" height="61" viewBox="0 0 73 61" fill="none" xmlns="http://www.w3.org/2000/svg">
<path d="M32.0873 58.8867L1 52.4548L2.69374 1L32.6233 11.7198C36.3752 14.9357 41.3379 11.7198 41.7351 11.7198C47.095 10.4691 70.2282 2.60796 70.2282 2.60796L71.7504 51.3829L40.6631 59.4227C40.6631 60.7091 32.6233 60.4947 32.0873 58.8867Z" fill="#C65959"/>
<path d="M32.0873 58.8867L1 52.4548L2.69374 1L32.6233 11.7198M32.0873 58.8867C32.6233 60.4947 40.6631 60.7091 40.6631 59.4227M32.0873 58.8867L32.6233 11.7198M41.7351 11.7198C42.2711 11.7197 41.7351 42.8071 41.7351 52.4548C41.7351 62.1026 40.6631 57.8147 40.6631 59.4227M41.7351 11.7198C41.3379 11.7198 36.3752 14.9357 32.6233 11.7198M41.7351 11.7198C47.095 10.4691 70.2282 2.60796 70.2282 2.60796L71.7504 51.3829L40.6631 59.4227" stroke="black"/>
<g style="mix-blend-mode:multiply">
<path d="M32.2612 55.2917L4 49.8371L5.07198 5L32.7484 15.2917C36.1593 18.0189 40.6708 15.2917 41.0319 15.2917C45.9045 14.2311 67.2466 7.14395 67.2466 7.14395L68.3185 48.928L40.0574 55.7462C40.0574 56.8371 32.7484 56.6553 32.2612 55.2917Z" fill="#C65959"/>
</g>
</svg>
