<svg width="164" height="208" viewBox="0 0 164 208" fill="none" xmlns="http://www.w3.org/2000/svg">
<path d="M79.9252 165.821C69.2054 165.821 -14.4087 275.232 17.2146 116.58C21.8085 93.5321 31.7727 59.563 41.0455 42.6689C50.3183 25.7748 113.212 22.1546 126.113 42.6689C140.342 65.293 150.751 96.451 154.963 112.758C175.331 191.597 136.74 225.316 117.374 195.349C115.187 191.966 90.645 165.821 79.9252 165.821Z" fill="#FDE3A0" stroke="black"/>
<g style="mix-blend-mode:color-burn">
<path d="M70.2776 164.213C55.2699 162.605 -23.5204 275.699 8.10294 117.046C12.6969 93.9986 22.9443 60.635 32.2172 43.7409C41.49 26.8467 104.384 23.2266 117.285 43.7409C131.513 66.365 141.922 97.523 146.135 113.83C166.503 192.669 127.912 226.388 108.546 196.421C106.359 193.038 85.2852 165.821 70.2776 164.213Z" fill="#FDE3A0"/>
</g>
<path d="M83.1409 140.63L52.0536 134.198L53.7473 82.7429L83.6769 93.4626C87.4288 96.6786 92.3915 93.4626 92.7887 93.4626C98.1486 92.212 121.282 84.3508 121.282 84.3508L122.804 133.126L91.7167 141.166C91.7167 142.452 83.6769 142.238 83.1409 140.63Z" fill="#C65959"/>
<path d="M83.1409 140.63L52.0536 134.198L53.7473 82.7429L83.6769 93.4626M83.1409 140.63C83.6769 142.238 91.7167 142.452 91.7167 141.166M83.1409 140.63L83.6769 93.4626M92.7887 93.4626C93.3247 93.4626 92.7887 124.55 92.7887 134.198C92.7887 143.846 91.7167 139.558 91.7167 141.166M92.7887 93.4626C92.3915 93.4626 87.4288 96.6786 83.6769 93.4626M92.7887 93.4626C98.1486 92.212 121.282 84.3508 121.282 84.3508L122.804 133.126L91.7167 141.166" stroke="black"/>
<g style="mix-blend-mode:multiply">
<path d="M83.6168 137.858L55.3556 132.404L56.4276 87.5668L84.104 97.8584C87.5149 100.586 92.0264 97.8584 92.3875 97.8584C97.2601 96.7978 118.602 89.7107 118.602 89.7107L119.674 131.495L91.413 138.313C91.413 139.404 84.104 139.222 83.6168 137.858Z" fill="#C65959"/>
</g>
<path d="M16.6785 60.2313C22.0384 54.8714 33.2941 45.7597 38.654 50.5835C44.5499 53.7995 45.6218 59.6953 42.9419 67.1991C39.1391 77.8471 24.7183 77.9189 26.8623 87.5667C28.0074 92.7199 55.1365 94.9374 64.9174 104.718C75.1012 114.902 76.7092 120.798 64.9174 122.406C57.694 123.391 11.2823 109.258 7.03072 98.8224C1.13484 84.3508 10.7462 66.1636 16.6785 60.2313Z" fill="#F0F0F0"/>
<path d="M154.428 67.1991C151.212 61.8393 139.42 47.3676 128.7 47.3676C120.66 52.7275 121.732 70.4151 127.092 75.239C132.452 80.0628 141.028 80.3499 141.028 87.5667C141.028 98.8225 117.622 99.1292 109.94 109.006C102.437 118.654 101.761 122.406 113.156 122.406C125.484 122.406 143.592 118.178 156.571 104.718C171.043 89.7107 156.8 71.1528 154.428 67.1991Z" fill="#F0F0F0"/>
<path d="M16.6785 60.2313C22.0384 54.8714 33.2941 45.7597 38.654 50.5835C44.5499 53.7995 45.6218 59.6953 42.9419 67.1991C39.1391 77.8471 24.7183 77.9189 26.8623 87.5667C28.0074 92.7199 55.1365 94.9374 64.9174 104.718C75.1012 114.902 76.7092 120.798 64.9174 122.406C57.694 123.391 11.2823 109.258 7.03072 98.8224C1.13484 84.3508 10.7462 66.1636 16.6785 60.2313Z" stroke="black"/>
<path d="M154.428 67.1991C151.212 61.8393 139.42 47.3676 128.7 47.3676C120.66 52.7275 121.732 70.4151 127.092 75.239C132.452 80.0628 141.028 80.3499 141.028 87.5667C141.028 98.8225 117.622 99.1292 109.94 109.006C102.437 118.654 101.761 122.406 113.156 122.406C125.484 122.406 143.592 118.178 156.571 104.718C171.043 89.7107 156.8 71.1528 154.428 67.1991Z" stroke="black"/>
<g style="mix-blend-mode:exclusion">
<path d="M19.3451 85.9055C24.5887 81.2378 35.6001 73.3027 40.8437 77.5036C46.6116 80.3043 47.6603 85.4387 45.0385 91.9735C41.3182 101.246 27.2105 101.309 29.3079 109.711C30.4282 114.199 56.9685 116.13 66.5371 124.648C76.4998 133.516 78.0729 138.651 66.5371 140.051C59.4705 140.909 14.0661 128.601 9.90675 119.513C4.13883 106.91 13.5416 91.0717 19.3451 85.9055Z" fill="#F0F0F0"/>
<path d="M154.105 91.9735C150.958 87.3058 139.422 74.703 128.935 74.703C121.07 79.3707 122.119 94.7742 127.362 98.9751C132.606 103.176 140.996 103.426 140.996 109.711C140.996 119.513 118.098 119.78 110.583 128.382C103.242 136.784 102.581 140.051 113.729 140.051C125.789 140.051 143.504 136.369 156.202 124.648C170.359 111.578 156.425 95.4166 154.105 91.9735Z" fill="#F0F0F0"/>
</g>
<path d="M123.376 39.3278C123.376 60.3398 105.388 77.4189 83.1412 77.4189C60.8941 77.4189 42.9061 60.3398 42.9061 39.3278C42.9061 18.3158 60.8941 1.23669 83.1412 1.23669C105.388 1.23669 123.376 18.3158 123.376 39.3278Z" fill="#F0F0F0" stroke="black"/>
<g style="mix-blend-mode:exclusion">
<ellipse cx="79.3893" cy="41.4718" rx="35.9112" ry="33.2313" fill="#F0F0F0"/>
</g>
<path d="M105.653 21.1042C105.653 23.1811 105.653 24.7387 102.437 24.2195" stroke="#C65959"/>
<path d="M108.202 29.8226C108.104 27.748 108.031 26.1921 111.267 26.5586" stroke="#C65959"/>
<path d="M102.443 26.4641C104.52 26.4682 106.078 26.4713 105.552 29.6862" stroke="#C65959"/>
<path d="M111.155 24.3168C109.08 24.411 107.524 24.4816 107.897 21.2454" stroke="#C65959"/>
<path d="M68.1334 51.1195L74.5653 47.9036" stroke="#F4F4F4"/>
<path d="M86.3571 48.652L91.7169 51.1195" stroke="#F4F4F4"/>
<path d="M75.6373 59.6954C75.6373 63.8396 73.7176 67.1992 71.3494 67.1992C68.9813 67.1992 67.0615 63.8396 67.0615 59.6954C67.0615 55.5511 68.9813 52.1915 71.3494 52.1915C73.7176 52.1915 75.6373 55.5511 75.6373 59.6954Z" fill="#D9D9D9"/>
<path d="M91.717 59.6954C91.717 63.8396 89.7972 67.1992 87.4291 67.1992C85.0609 67.1992 83.1411 63.8396 83.1411 59.6954C83.1411 55.5511 85.0609 52.1915 87.4291 52.1915C89.7972 52.1915 91.717 55.5511 91.717 59.6954Z" fill="#D9D9D9"/>
<g style="mix-blend-mode:overlay">
<path d="M75.9635 60.2313C75.9635 64.0796 74.2107 67.1992 72.0485 67.1992C69.8862 67.1992 68.1334 64.0796 68.1334 60.2313C68.1334 56.3831 69.8862 53.2635 72.0485 53.2635C74.2107 53.2635 75.9635 56.3831 75.9635 60.2313Z" fill="#D9D9D9"/>
<path d="M90.6449 60.2313C90.6449 64.0796 88.8921 67.1992 86.7299 67.1992C84.5677 67.1992 82.8148 64.0796 82.8148 60.2313C82.8148 56.3831 84.5677 53.2635 86.7299 53.2635C88.8921 53.2635 90.6449 56.3831 90.6449 60.2313Z" fill="#D9D9D9"/>
</g>
<g style="mix-blend-mode:difference">
<path d="M75.1011 63.0121C75.1011 64.7882 74.4571 66.228 72.3978 66.228C70.3386 66.228 69.7412 64.7882 69.7412 63.0121C69.7412 61.236 70.3386 59.7962 72.3978 59.7962C74.4571 59.7962 75.1011 61.236 75.1011 63.0121Z" fill="#D9D9D9"/>
<path d="M89.0594 63.0121C89.0594 64.7882 88.462 66.228 86.4027 66.228C84.3435 66.228 83.6996 64.7882 83.6996 63.0121C83.6996 61.236 84.3435 60.3322 86.4027 60.3322C88.462 60.3322 89.0594 61.236 89.0594 63.0121Z" fill="#D9D9D9"/>
</g>
</svg>
