<svg width="70" height="78" viewBox="0 0 70 78" fill="none" xmlns="http://www.w3.org/2000/svg">
<path d="M7.91477 27.3182C6.64205 27.3182 5.51847 26.9967 4.54403 26.3537C3.5696 25.7041 2.80729 24.7893 2.2571 23.6094C1.70691 22.4228 1.43182 21.0208 1.43182 19.4034C1.43182 17.7992 1.70691 16.4072 2.2571 15.2273C2.80729 14.0473 3.57292 13.1359 4.55398 12.4929C5.53504 11.8499 6.66856 11.5284 7.95455 11.5284C8.94886 11.5284 9.73438 11.6941 10.3111 12.0256C10.8944 12.3504 11.3385 12.7216 11.6435 13.1392C11.955 13.5502 12.197 13.8883 12.3693 14.1534H12.5682V6.63636H14.9148V27H12.6477V24.6534H12.3693C12.197 24.9318 11.9517 25.2831 11.6335 25.7074C11.3153 26.125 10.8613 26.4995 10.2713 26.831C9.68135 27.1558 8.89583 27.3182 7.91477 27.3182ZM8.23295 25.2102C9.17424 25.2102 9.9697 24.965 10.6193 24.4744C11.2689 23.9773 11.7628 23.2912 12.1009 22.4162C12.4389 21.5346 12.608 20.517 12.608 19.3636C12.608 18.2235 12.4422 17.2259 12.1108 16.3707C11.7794 15.509 11.2888 14.8395 10.6392 14.3622C9.98958 13.8783 9.1875 13.6364 8.23295 13.6364C7.23864 13.6364 6.41004 13.8916 5.74716 14.402C5.09091 14.9058 4.59706 15.5919 4.26562 16.4602C3.94081 17.322 3.77841 18.2898 3.77841 19.3636C3.77841 20.4508 3.94413 21.4384 4.27557 22.3267C4.61364 23.2083 5.1108 23.911 5.76705 24.4347C6.42992 24.9517 7.25189 25.2102 8.23295 25.2102ZM16.7384 27V11.7273H19.0849V27H16.7384ZM17.9315 9.18182C17.4741 9.18182 17.0797 9.02604 16.7483 8.71449C16.4235 8.40294 16.2611 8.02841 16.2611 7.59091C16.2611 7.15341 16.4235 6.77888 16.7483 6.46733C17.0797 6.15578 17.4741 6 17.9315 6C18.3889 6 18.78 6.15578 19.1048 6.46733C19.4363 6.77888 19.602 7.15341 19.602 7.59091C19.602 8.02841 19.4363 8.40294 19.1048 8.71449C18.78 9.02604 18.3889 9.18182 17.9315 9.18182ZM33.0715 11.7273L27.4238 27H25.0374L19.3897 11.7273H21.9352L26.1511 23.8977H26.3102L30.5261 11.7273H33.0715ZM39.2254 27.3182C37.7538 27.3182 36.4844 26.9934 35.4171 26.3438C34.3565 25.6875 33.5379 24.7727 32.9612 23.5994C32.3911 22.4195 32.106 21.0473 32.106 19.483C32.106 17.9186 32.3911 16.5398 32.9612 15.3466C33.5379 14.1468 34.3399 13.2121 35.3674 12.5426C36.4015 11.8665 37.6079 11.5284 38.9867 11.5284C39.7822 11.5284 40.5677 11.661 41.3433 11.9261C42.1188 12.1913 42.8248 12.6222 43.4612 13.2188C44.0975 13.8087 44.6046 14.5909 44.9825 15.5653C45.3603 16.5398 45.5492 17.7396 45.5492 19.1648V20.1591H33.7765V18.1307H43.1629C43.1629 17.2689 42.9905 16.5 42.6458 15.8239C42.3077 15.1477 41.8238 14.6141 41.1941 14.223C40.571 13.8319 39.8352 13.6364 38.9867 13.6364C38.0521 13.6364 37.2433 13.8684 36.5606 14.3324C35.8844 14.7898 35.3641 15.3864 34.9995 16.1222C34.6349 16.858 34.4526 17.6468 34.4526 18.4886V19.8409C34.4526 20.9943 34.6515 21.9721 35.0492 22.7741C35.4536 23.5696 36.0137 24.1761 36.7296 24.5938C37.4455 25.0047 38.2774 25.2102 39.2254 25.2102C39.8418 25.2102 40.3987 25.1241 40.8958 24.9517C41.3996 24.7727 41.8338 24.5076 42.1984 24.1562C42.563 23.7983 42.8447 23.3542 43.0435 22.8239L45.3106 23.4602C45.0719 24.2292 44.6709 24.9053 44.1075 25.4886C43.544 26.0653 42.848 26.5161 42.0194 26.8409C41.1908 27.1591 40.2594 27.3182 39.2254 27.3182ZM51.3938 27V11.7273H53.7404V27H51.3938ZM52.587 9.18182C52.1296 9.18182 51.7352 9.02604 51.4038 8.71449C51.079 8.40294 50.9165 8.02841 50.9165 7.59091C50.9165 7.15341 51.079 6.77888 51.4038 6.46733C51.7352 6.15578 52.1296 6 52.587 6C53.0444 6 53.4355 6.15578 53.7603 6.46733C54.0917 6.77888 54.2575 7.15341 54.2575 7.59091C54.2575 8.02841 54.0917 8.40294 53.7603 8.71449C53.4355 9.02604 53.0444 9.18182 52.587 9.18182ZM57.5849 17.8125V27H55.2384V11.7273H57.5054V14.1136H57.7043C58.0622 13.3381 58.6058 12.715 59.3349 12.2443C60.0641 11.767 61.0054 11.5284 62.1588 11.5284C63.1929 11.5284 64.0977 11.7405 64.8733 12.1648C65.6489 12.5824 66.2521 13.2188 66.683 14.0739C67.1138 14.9223 67.3293 15.9962 67.3293 17.2955V27H64.9827V17.4545C64.9827 16.2547 64.6711 15.3201 64.048 14.6506C63.4249 13.9744 62.5698 13.6364 61.4827 13.6364C60.7336 13.6364 60.0641 13.7988 59.4741 14.1236C58.8908 14.4484 58.4301 14.9223 58.092 15.5455C57.754 16.1686 57.5849 16.9242 57.5849 17.8125Z" fill="black"/>
<path d="M47.587 69.5001C25.587 69.0001 18.087 71.5001 19.087 36" stroke="black" stroke-width="15"/>
<circle cx="58.587" cy="69.5001" r="7" transform="rotate(180 58.587 69.5001)" stroke="black" stroke-width="3"/>
</svg>
