<svg width="67" height="136" viewBox="0 0 67 136" fill="none" xmlns="http://www.w3.org/2000/svg">
<path d="M65.5 34C65.5 52.5157 50.9353 67.5 33 67.5C15.0647 67.5 0.5 52.5157 0.5 34C0.5 15.4843 15.0647 0.5 33 0.5C50.9353 0.5 65.5 15.4843 65.5 34Z" stroke="black"/>
<path d="M65.5 59C65.5 77.5157 50.9353 92.5 33 92.5C15.0647 92.5 0.5 77.5157 0.5 59C0.5 40.4843 15.0647 25.5 33 25.5C50.9353 25.5 65.5 40.4843 65.5 59Z" stroke="black"/>
<path d="M66.5 102C66.5 120.516 51.9353 135.5 34 135.5C16.0647 135.5 1.5 120.516 1.5 102C1.5 83.4843 16.0647 68.5 34 68.5C51.9353 68.5 66.5 83.4843 66.5 102Z" stroke="black"/>
<path d="M28.5 98C28.5 101.038 30.9624 103.5 34 103.5C37.0376 103.5 39.5 101.038 39.5 98H28.5ZM39.5 98L39.5 37H28.5L28.5 98H39.5Z" fill="black"/>
</svg>
