<svg width="81" height="406" viewBox="0 0 81 406" fill="none" xmlns="http://www.w3.org/2000/svg">
<path d="M24.4103 18.3863C21.3491 29.9511 26.111 78.3643 28.1519 88.7953C28.1519 120.768 27.8117 210.293 31.8934 221.45C35.9751 232.606 13.0318 310.249 10.5 330.5C8.33119 347.847 -7.19984 381.111 7.06319 388.458C18.2878 394.241 31.2131 400.538 41.0772 402.404C53.6624 404.785 75.6354 408.255 76.4518 397.642C77.4722 384.377 80.8736 326.553 78.8327 317.709C76.7919 308.866 78.8327 220.77 78.8327 218.048C78.8327 215.327 68.6286 99.6797 68.6286 88.7953C68.6286 83.4906 61.5236 51.382 58.8065 38.7947C56.2981 39.475 49.2406 40.9716 41.0772 41.5158C30.873 42.1961 33.9343 38.4546 31.8934 30.6314C29.8526 22.8081 34.6826 7.50185 37.6758 3.42016C37.6758 3.42016 27.4716 6.82157 24.4103 18.3863Z" fill="#FDE068"/>
<path d="M51.2814 10.223C48.5603 5.12086 42.4739 -3.12269 37.6758 3.42016C34.6826 7.50185 29.8526 22.8081 31.8934 30.6314C33.9343 38.4546 30.873 42.1961 41.0772 41.5158C49.2406 40.9716 56.2981 39.475 58.8065 38.7947C55.9484 25.5547 52.6763 12.8385 51.2814 10.223Z" fill="#FFF7DB"/>
<path d="M37.6758 3.42016C42.4739 -3.12269 48.5603 5.12086 51.2814 10.223C52.6763 12.8385 55.9484 25.5547 58.8065 38.7947M37.6758 3.42016C34.6826 7.50185 29.8526 22.8081 31.8934 30.6314C33.9343 38.4546 30.873 42.1961 41.0772 41.5158C49.2406 40.9716 56.2981 39.475 58.8065 38.7947M37.6758 3.42016C37.6758 3.42016 27.4716 6.82157 24.4103 18.3863C21.3491 29.9511 26.111 78.3643 28.1519 88.7953C28.1519 120.768 27.8117 210.293 31.8934 221.45C35.9751 232.606 13.0318 310.249 10.5 330.5C8.33119 347.847 -7.19984 381.111 7.06319 388.458C18.2878 394.241 31.2131 400.538 41.0772 402.404C53.6624 404.785 75.6354 408.255 76.4518 397.642C77.4722 384.377 80.8736 326.553 78.8327 317.709C76.7919 308.866 78.8327 220.77 78.8327 218.048C78.8327 215.327 68.6286 99.6797 68.6286 88.7953C68.6286 83.4906 61.5236 51.382 58.8065 38.7947" stroke="black" stroke-width="2"/>
<mask id="mask0_5_213" style="mask-type:alpha" maskUnits="userSpaceOnUse" x="2" y="0" width="79" height="406">
<path d="M24.4104 18.3863C21.3491 29.9511 26.1111 78.3643 28.1519 88.7953C28.1519 120.768 27.8118 210.293 31.8934 221.45C35.9751 232.606 20.6688 279.954 20.6688 300.362C20.6688 316.349 -7.19983 381.111 7.06321 388.458C18.2878 394.241 31.2132 400.538 41.0772 402.404C53.6624 404.785 75.6354 408.255 76.4517 397.642C77.4722 384.377 80.8736 326.553 78.8327 317.709C76.7919 308.866 78.8327 220.77 78.8327 218.048C78.8327 215.327 68.6285 99.6797 68.6285 88.7953C68.6285 83.4906 61.5236 51.382 58.8065 38.7947C56.2981 39.475 49.2406 40.9716 41.0772 41.5158C30.873 42.1961 33.9343 38.4546 31.8934 30.6314C29.8526 22.8081 34.6826 7.50185 37.6758 3.42016C37.6758 3.42016 27.4716 6.82157 24.4104 18.3863Z" fill="#FDE068"/>
<path d="M51.2814 10.223C48.5603 5.12086 42.4739 -3.12269 37.6758 3.42016C34.6826 7.50185 29.8526 22.8081 31.8934 30.6314C33.9343 38.4546 30.873 42.1961 41.0772 41.5158C49.2406 40.9716 56.2981 39.475 58.8065 38.7947C55.9484 25.5547 52.6763 12.8385 51.2814 10.223Z" fill="#FFF7DB"/>
<path d="M37.6758 3.42016C42.4739 -3.12269 48.5603 5.12086 51.2814 10.223C52.6763 12.8385 55.9484 25.5547 58.8065 38.7947M37.6758 3.42016C34.6826 7.50185 29.8526 22.8081 31.8934 30.6314C33.9343 38.4546 30.873 42.1961 41.0772 41.5158C49.2406 40.9716 56.2981 39.475 58.8065 38.7947M37.6758 3.42016C37.6758 3.42016 27.4716 6.82157 24.4104 18.3863C21.3491 29.9511 26.1111 78.3643 28.1519 88.7953C28.1519 120.768 27.8118 210.293 31.8934 221.45C35.9751 232.606 20.6688 279.954 20.6688 300.362C20.6688 316.349 -7.19983 381.111 7.06321 388.458C18.2878 394.241 31.2132 400.538 41.0772 402.404C53.6624 404.785 75.6354 408.255 76.4517 397.642C77.4722 384.377 80.8736 326.553 78.8327 317.709C76.7919 308.866 78.8327 220.77 78.8327 218.048C78.8327 215.327 68.6285 99.6798 68.6285 88.7953C68.6285 83.4906 61.5236 51.382 58.8065 38.7947" stroke="black" stroke-width="2"/>
</mask>
<g mask="url(#mask0_5_213)">
<path d="M60.0975 88.143C60.0975 89.6158 61.2914 90.8097 62.7642 90.8097C64.237 90.8097 65.4309 89.6158 65.4309 88.143C65.4309 86.6702 64.237 85.4763 62.7642 85.4763C61.2914 85.4763 60.0975 86.6702 60.0975 88.143ZM66.8208 86.6826L67.0781 87.1114L66.8208 86.6826ZM68.5877 77.3975L68.1281 77.5944L68.5877 77.3975ZM59.6992 74.2063L59.9386 74.6452L59.6992 74.2063ZM56.0933 87.4939L55.6487 87.7226L56.0933 87.4939ZM63.4854 91.8931L63.311 92.3617L63.4854 91.8931ZM71.1298 90.7392L71.4343 91.1359L71.1298 90.7392ZM74.934 87.4939L74.5135 87.2236L74.934 87.4939ZM77.2058 82.4277L77.6801 82.5858L77.2058 82.4277ZM75.6011 70.7807L75.1501 70.9964L75.6011 70.7807ZM70.9315 67.2108L70.7263 67.6668L70.9315 67.2108ZM65.3604 66.2373L65.4376 65.7433L65.3604 66.2373ZM53.1725 71.1052L53.5815 71.3929L53.1725 71.1052ZM47.1868 81.9769L47.6866 81.9894L47.1868 81.9769ZM47.5113 87.9627L47.9608 87.7437L47.5113 87.9627ZM52.7038 93.9845L52.4102 94.3892L52.7038 93.9845ZM55.4803 96.2743L55.6967 95.8235L55.4803 96.2743ZM58.365 97.4462L58.1449 97.8951L58.365 97.4462ZM72.3198 97.4822L72.0827 97.042L72.3198 97.4822ZM74.7718 95.9317L74.8802 96.4198L74.7718 95.9317ZM76.5442 95.1162C76.6316 94.8543 76.49 94.5711 76.228 94.4838C75.966 94.3964 75.6829 94.538 75.5956 94.8L76.5442 95.1162ZM62.7642 88.643C62.7658 88.643 62.7674 88.643 62.7689 88.643C62.7705 88.643 62.7721 88.643 62.7737 88.643C62.7753 88.643 62.7769 88.643 62.7785 88.643C62.78 88.643 62.7816 88.643 62.7832 88.643C62.7848 88.643 62.7864 88.643 62.788 88.643C62.7895 88.643 62.7911 88.643 62.7927 88.643C62.7943 88.643 62.7959 88.643 62.7975 88.643C62.7991 88.643 62.8006 88.643 62.8022 88.643C62.8038 88.643 62.8054 88.643 62.807 88.643C62.8086 88.643 62.8101 88.643 62.8117 88.643C62.8133 88.643 62.8149 88.643 62.8165 88.643C62.8181 88.643 62.8197 88.643 62.8212 88.643C62.8228 88.643 62.8244 88.643 62.826 88.643C62.8276 88.643 62.8292 88.643 62.8307 88.643C62.8323 88.643 62.8339 88.643 62.8355 88.643C62.8371 88.643 62.8387 88.643 62.8403 88.643C62.8418 88.643 62.8434 88.643 62.845 88.643C62.8466 88.643 62.8482 88.643 62.8498 88.643C62.8513 88.643 62.8529 88.643 62.8545 88.643C62.8561 88.643 62.8577 88.643 62.8593 88.643C62.8609 88.643 62.8624 88.643 62.864 88.643C62.8656 88.643 62.8672 88.643 62.8688 88.643C62.8704 88.643 62.8719 88.643 62.8735 88.643C62.8751 88.643 62.8767 88.643 62.8783 88.643C62.8799 88.643 62.8815 88.643 62.883 88.643C62.8846 88.643 62.8862 88.643 62.8878 88.643C62.8894 88.643 62.891 88.643 62.8925 88.643C62.8941 88.643 62.8957 88.643 62.8973 88.643C62.8989 88.643 62.9005 88.643 62.9021 88.643C62.9036 88.643 62.9052 88.643 62.9068 88.643C62.9084 88.643 62.91 88.643 62.9116 88.643C62.9131 88.643 62.9147 88.643 62.9163 88.643C62.9179 88.643 62.9195 88.643 62.9211 88.643C62.9227 88.643 62.9242 88.643 62.9258 88.643C62.9274 88.643 62.929 88.643 62.9306 88.643C62.9322 88.643 62.9337 88.643 62.9353 88.643C62.9369 88.643 62.9385 88.643 62.9401 88.643C62.9417 88.643 62.9433 88.643 62.9448 88.643C62.9464 88.643 62.948 88.643 62.9496 88.643C62.9512 88.643 62.9528 88.643 62.9543 88.643C62.9559 88.643 62.9575 88.643 62.9591 88.643C62.9607 88.643 62.9623 88.643 62.9639 88.643C62.9654 88.643 62.967 88.643 62.9686 88.643C62.9702 88.643 62.9718 88.643 62.9734 88.643C62.9749 88.643 62.9765 88.643 62.9781 88.643C62.9797 88.643 62.9813 88.643 62.9829 88.643C62.9845 88.643 62.986 88.643 62.9876 88.643C62.9892 88.643 62.9908 88.643 62.9924 88.643C62.994 88.643 62.9955 88.643 62.9971 88.643C62.9987 88.643 63.0003 88.643 63.0019 88.643C63.0035 88.643 63.0051 88.643 63.0066 88.643C63.0082 88.643 63.0098 88.643 63.0114 88.643C63.013 88.643 63.0146 88.643 63.0161 88.643C63.0177 88.643 63.0193 88.643 63.0209 88.643C63.0225 88.643 63.0241 88.643 63.0257 88.643C63.0272 88.643 63.0288 88.643 63.0304 88.643C63.032 88.643 63.0336 88.643 63.0352 88.643C63.0367 88.643 63.0383 88.643 63.0399 88.643C63.0415 88.643 63.0431 88.643 63.0447 88.643C63.0463 88.643 63.0478 88.643 63.0494 88.643C63.051 88.643 63.0526 88.643 63.0542 88.643C63.0558 88.643 63.0574 88.643 63.0589 88.643C63.0605 88.643 63.0621 88.643 63.0637 88.643C63.0653 88.643 63.0669 88.643 63.0684 88.643C63.07 88.643 63.0716 88.643 63.0732 88.643C63.0748 88.643 63.0764 88.643 63.0779 88.643C63.0795 88.643 63.0811 88.643 63.0827 88.643C63.0843 88.643 63.0859 88.643 63.0875 88.643C63.089 88.643 63.0906 88.643 63.0922 88.643C63.0938 88.643 63.0954 88.643 63.097 88.643C63.0985 88.643 63.1001 88.643 63.1017 88.643C63.1033 88.643 63.1049 88.643 63.1065 88.643C63.1081 88.643 63.1096 88.643 63.1112 88.643C63.1128 88.643 63.1144 88.643 63.116 88.643C63.1176 88.643 63.1192 88.643 63.1207 88.643C63.1223 88.643 63.1239 88.643 63.1255 88.643C63.1271 88.643 63.1287 88.643 63.1302 88.643C63.1318 88.643 63.1334 88.643 63.135 88.643C63.1366 88.643 63.1382 88.643 63.1397 88.643C63.1413 88.643 63.1429 88.643 63.1445 88.643C63.1461 88.643 63.1477 88.643 63.1493 88.643C63.1508 88.643 63.1524 88.643 63.154 88.643C63.1556 88.643 63.1572 88.643 63.1588 88.643C63.1603 88.643 63.1619 88.643 63.1635 88.643C63.1651 88.643 63.1667 88.643 63.1683 88.643C63.1699 88.643 63.1714 88.643 63.173 88.643C63.1746 88.643 63.1762 88.643 63.1778 88.643C63.1794 88.643 63.181 88.643 63.1825 88.643C63.1841 88.643 63.1857 88.643 63.1873 88.643C63.1889 88.643 63.1905 88.643 63.192 88.643C63.1936 88.643 63.1952 88.643 63.1968 88.643C63.1984 88.643 63.2 88.643 63.2015 88.643C63.2031 88.643 63.2047 88.643 63.2063 88.643C63.2079 88.643 63.2095 88.643 63.2111 88.643C63.2126 88.643 63.2142 88.643 63.2158 88.643C63.2174 88.643 63.219 88.643 63.2206 88.643C63.2221 88.643 63.2237 88.643 63.2253 88.643C63.2269 88.643 63.2285 88.643 63.2301 88.643C63.2317 88.643 63.2332 88.643 63.2348 88.643C63.2364 88.643 63.238 88.643 63.2396 88.643C63.2412 88.643 63.2428 88.643 63.2443 88.643C63.2459 88.643 63.2475 88.643 63.2491 88.643C63.2507 88.643 63.2523 88.643 63.2538 88.643C63.2554 88.643 63.257 88.643 63.2586 88.643C63.2602 88.643 63.2618 88.643 63.2633 88.643C63.2649 88.643 63.2665 88.643 63.2681 88.643C63.2697 88.643 63.2713 88.643 63.2729 88.643C63.2744 88.643 63.276 88.643 63.2776 88.643C63.2792 88.643 63.2808 88.643 63.2824 88.643C63.2839 88.643 63.2855 88.643 63.2871 88.643C63.2887 88.643 63.2903 88.643 63.2919 88.643C63.2935 88.643 63.295 88.643 63.2966 88.643C63.2982 88.643 63.2998 88.643 63.3014 88.643C63.303 88.643 63.3046 88.643 63.3061 88.643C63.3077 88.643 63.3093 88.643 63.3109 88.643C63.3125 88.643 63.3141 88.643 63.3156 88.643C63.3172 88.643 63.3188 88.643 63.3204 88.643C63.322 88.643 63.3236 88.643 63.3251 88.643C63.3267 88.643 63.3283 88.643 63.3299 88.643C63.3315 88.643 63.3331 88.643 63.3347 88.643C63.3362 88.643 63.3378 88.643 63.3394 88.643C63.341 88.643 63.3426 88.643 63.3442 88.643C63.3457 88.643 63.3473 88.643 63.3489 88.643C63.3505 88.643 63.3521 88.643 63.3537 88.643C63.3553 88.643 63.3568 88.643 63.3584 88.643C63.36 88.643 63.3616 88.643 63.3632 88.643C63.3648 88.643 63.3664 88.643 63.3679 88.643C63.3695 88.643 63.3711 88.643 63.3727 88.643C63.3743 88.643 63.3759 88.643 63.3774 88.643C63.379 88.643 63.3806 88.643 63.3822 88.643C63.3838 88.643 63.3854 88.643 63.3869 88.643C63.3885 88.643 63.3901 88.643 63.3917 88.643C63.3933 88.643 63.3949 88.643 63.3965 88.643C63.398 88.643 63.3996 88.643 63.4012 88.643C63.4028 88.643 63.4044 88.643 63.406 88.643C63.4075 88.643 63.4091 88.643 63.4107 88.643C63.4123 88.643 63.4139 88.643 63.4155 88.643C63.4171 88.643 63.4186 88.643 63.4202 88.643C63.4218 88.643 63.4234 88.643 63.425 88.643C63.4266 88.643 63.4282 88.643 63.4297 88.643C63.4313 88.643 63.4329 88.643 63.4345 88.643C63.4361 88.643 63.4377 88.643 63.4392 88.643C63.4408 88.643 63.4424 88.643 63.444 88.643C63.4456 88.643 63.4472 88.643 63.4487 88.643C63.4503 88.643 63.4519 88.643 63.4535 88.643C63.4551 88.643 63.4567 88.643 63.4583 88.643C63.4598 88.643 63.4614 88.643 63.463 88.643C63.4646 88.643 63.4662 88.643 63.4678 88.643C63.4693 88.643 63.4709 88.643 63.4725 88.643C63.4741 88.643 63.4757 88.643 63.4773 88.643C63.4789 88.643 63.4804 88.643 63.482 88.643C63.4836 88.643 63.4852 88.643 63.4868 88.643C63.4884 88.643 63.49 88.643 63.4915 88.643C63.4931 88.643 63.4947 88.643 63.4963 88.643C63.4979 88.643 63.4995 88.643 63.501 88.643C63.5026 88.643 63.5042 88.643 63.5058 88.643C63.5074 88.643 63.509 88.643 63.5105 88.643C63.5121 88.643 63.5137 88.643 63.5153 88.643C63.5169 88.643 63.5185 88.643 63.5201 88.643C63.5216 88.643 63.5232 88.643 63.5248 88.643C63.5264 88.643 63.528 88.643 63.5296 88.643C63.5311 88.643 63.5327 88.643 63.5343 88.643C63.5359 88.643 63.5375 88.643 63.5391 88.643C63.5407 88.643 63.5422 88.643 63.5438 88.643C63.5454 88.643 63.547 88.643 63.5486 88.643C63.5502 88.643 63.5518 88.643 63.5533 88.643C63.5549 88.643 63.5565 88.643 63.5581 88.643C63.5597 88.643 63.5613 88.643 63.5628 88.643C63.5644 88.643 63.566 88.643 63.5676 88.643C63.5692 88.643 63.5708 88.643 63.5723 88.643C63.5739 88.643 63.5755 88.643 63.5771 88.643C63.5787 88.643 63.5803 88.643 63.5819 88.643C63.5834 88.643 63.585 88.643 63.5866 88.643C63.5882 88.643 63.5898 88.643 63.5914 88.643C63.5929 88.643 63.5945 88.643 63.5961 88.643C63.5977 88.643 63.5993 88.643 63.6009 88.643C63.6025 88.643 63.604 88.643 63.6056 88.643C63.6072 88.643 63.6088 88.643 63.6104 88.643C63.612 88.643 63.6136 88.643 63.6151 88.643C63.6167 88.643 63.6183 88.643 63.6199 88.643C63.6215 88.643 63.6231 88.643 63.6246 88.643C63.6262 88.643 63.6278 88.643 63.6294 88.643C63.631 88.643 63.6326 88.643 63.6341 88.643C63.6357 88.643 63.6373 88.643 63.6389 88.643C63.6405 88.643 63.6421 88.643 63.6437 88.643C63.6452 88.643 63.6468 88.643 63.6484 88.643C63.65 88.643 63.6516 88.643 63.6532 88.643C63.6547 88.643 63.6563 88.643 63.6579 88.643C63.6595 88.643 63.6611 88.643 63.6627 88.643C63.6643 88.643 63.6658 88.643 63.6674 88.643C63.669 88.643 63.6706 88.643 63.6722 88.643C63.6738 88.643 63.6754 88.643 63.6769 88.643C63.6785 88.643 63.6801 88.643 63.6817 88.643C63.6833 88.643 63.6849 88.643 63.6864 88.643C63.688 88.643 63.6896 88.643 63.6912 88.643C63.6928 88.643 63.6944 88.643 63.6959 88.643C63.6975 88.643 63.6991 88.643 63.7007 88.643C63.7023 88.643 63.7039 88.643 63.7055 88.643C63.707 88.643 63.7086 88.643 63.7102 88.643C63.7118 88.643 63.7134 88.643 63.715 88.643C63.7165 88.643 63.7181 88.643 63.7197 88.643C63.7213 88.643 63.7229 88.643 63.7245 88.643C63.7261 88.643 63.7276 88.643 63.7292 88.643C63.7308 88.643 63.7324 88.643 63.734 88.643C63.7356 88.643 63.7372 88.643 63.7387 88.643C63.7403 88.643 63.7419 88.643 63.7435 88.643C63.7451 88.643 63.7467 88.643 63.7482 88.643C63.7498 88.643 63.7514 88.643 63.753 88.643C63.7546 88.643 63.7562 88.643 63.7577 88.643C63.7593 88.643 63.7609 88.643 63.7625 88.643C63.7641 88.643 63.7657 88.643 63.7673 88.643C63.7688 88.643 63.7704 88.643 63.772 88.643C63.7736 88.643 63.7752 88.643 63.7768 88.643C63.7783 88.643 63.7799 88.643 63.7815 88.643C63.7831 88.643 63.7847 88.643 63.7863 88.643C63.7879 88.643 63.7894 88.643 63.791 88.643C63.7926 88.643 63.7942 88.643 63.7958 88.643C63.7974 88.643 63.799 88.643 63.8005 88.643C63.8021 88.643 63.8037 88.643 63.8053 88.643C63.8069 88.643 63.8085 88.643 63.81 88.643C63.8116 88.643 63.8132 88.643 63.8148 88.643C63.8164 88.643 63.818 88.643 63.8195 88.643C63.8211 88.643 63.8227 88.643 63.8243 88.643C63.8259 88.643 63.8275 88.643 63.8291 88.643C63.8306 88.643 63.8322 88.643 63.8338 88.643C63.8354 88.643 63.837 88.643 63.8386 88.643C63.8401 88.643 63.8417 88.643 63.8433 88.643C63.8449 88.643 63.8465 88.643 63.8481 88.643C63.8497 88.643 63.8512 88.643 63.8528 88.643C63.8544 88.643 63.856 88.643 63.8576 88.643C63.8592 88.643 63.8608 88.643 63.8623 88.643C63.8639 88.643 63.8655 88.643 63.8671 88.643C63.8687 88.643 63.8703 88.643 63.8718 88.643C63.8734 88.643 63.875 88.643 63.8766 88.643C63.8782 88.643 63.8798 88.643 63.8813 88.643C63.8829 88.643 63.8845 88.643 63.8861 88.643C63.8877 88.643 63.8893 88.643 63.8909 88.643C63.8924 88.643 63.894 88.643 63.8956 88.643C63.8972 88.643 63.8988 88.643 63.9004 88.643C63.9019 88.643 63.9035 88.643 63.9051 88.643C63.9067 88.643 63.9083 88.643 63.9099 88.643C63.9115 88.643 63.913 88.643 63.9146 88.643C63.9162 88.643 63.9178 88.643 63.9194 88.643C63.921 88.643 63.9226 88.643 63.9241 88.643C63.9257 88.643 63.9273 88.643 63.9289 88.643C63.9305 88.643 63.9321 88.643 63.9336 88.643C63.9352 88.643 63.9368 88.643 63.9384 88.643C63.94 88.643 63.9416 88.643 63.9431 88.643C63.9447 88.643 63.9463 88.643 63.9479 88.643C63.9495 88.643 63.9511 88.643 63.9527 88.643C63.9542 88.643 63.9558 88.643 63.9574 88.643C63.959 88.643 63.9606 88.643 63.9622 88.643C63.9637 88.643 63.9653 88.643 63.9669 88.643C63.9685 88.643 63.9701 88.643 63.9717 88.643C63.9733 88.643 63.9748 88.643 63.9764 88.643C63.978 88.643 63.9796 88.643 63.9812 88.643C63.9828 88.643 63.9844 88.643 63.9859 88.643C63.9875 88.643 63.9891 88.643 63.9907 88.643C63.9923 88.643 63.9939 88.643 63.9954 88.643C63.997 88.643 63.9986 88.643 64.0002 88.643C64.0018 88.643 64.0034 88.643 64.0049 88.643C64.0065 88.643 64.0081 88.643 64.0097 88.643C64.0113 88.643 64.0129 88.643 64.0145 88.643C64.016 88.643 64.0176 88.643 64.0192 88.643C64.0208 88.643 64.0224 88.643 64.024 88.643C64.0255 88.643 64.0271 88.643 64.0287 88.643C64.0303 88.643 64.0319 88.643 64.0335 88.643C64.0351 88.643 64.0366 88.643 64.0382 88.643C64.0398 88.643 64.0414 88.643 64.043 88.643C64.0446 88.643 64.0462 88.643 64.0477 88.643C64.0493 88.643 64.0509 88.643 64.0525 88.643C64.0541 88.643 64.0557 88.643 64.0572 88.643C64.0588 88.643 64.0604 88.643 64.062 88.643C64.0636 88.643 64.0652 88.643 64.0667 88.643C64.0683 88.643 64.0699 88.643 64.0715 88.643C64.0731 88.643 64.0747 88.643 64.0763 88.643C64.0778 88.643 64.0794 88.643 64.081 88.643C64.0826 88.643 64.0842 88.643 64.0858 88.643C64.0873 88.643 64.0889 88.643 64.0905 88.643C64.0921 88.643 64.0937 88.643 64.0953 88.643C64.0969 88.643 64.0984 88.643 64.1 88.643C64.1016 88.643 64.1032 88.643 64.1048 88.643C64.1064 88.643 64.108 88.643 64.1095 88.643C64.1111 88.643 64.1127 88.643 64.1143 88.643C64.1159 88.643 64.1175 88.643 64.119 88.643C64.1206 88.643 64.1222 88.643 64.1238 88.643C64.1254 88.643 64.127 88.643 64.1285 88.643C64.1301 88.643 64.1317 88.643 64.1333 88.643C64.1349 88.643 64.1365 88.643 64.1381 88.643C64.1396 88.643 64.1412 88.643 64.1428 88.643C64.1444 88.643 64.146 88.643 64.1476 88.643C64.1491 88.643 64.1507 88.643 64.1523 88.643C64.1539 88.643 64.1555 88.643 64.1571 88.643C64.1587 88.643 64.1602 88.643 64.1618 88.643C64.1634 88.643 64.165 88.643 64.1666 88.643C64.1682 88.643 64.1698 88.643 64.1713 88.643C64.1729 88.643 64.1745 88.643 64.1761 88.643C64.1777 88.643 64.1793 88.643 64.1808 88.643C64.1824 88.643 64.184 88.643 64.1856 88.643C64.1872 88.643 64.1888 88.643 64.1903 88.643C64.1919 88.643 64.1935 88.643 64.1951 88.643C64.1967 88.643 64.1983 88.643 64.1999 88.643C64.2014 88.643 64.203 88.643 64.2046 88.643C64.2062 88.643 64.2078 88.643 64.2094 88.643C64.2109 88.643 64.2125 88.643 64.2141 88.643C64.2157 88.643 64.2173 88.643 64.2189 88.643C64.2205 88.643 64.222 88.643 64.2236 88.643C64.2252 88.643 64.2268 88.643 64.2284 88.643C64.23 88.643 64.2316 88.643 64.2331 88.643C64.2347 88.643 64.2363 88.643 64.2379 88.643C64.2395 88.643 64.2411 88.643 64.2426 88.643C64.2442 88.643 64.2458 88.643 64.2474 88.643C64.249 88.643 64.2506 88.643 64.2521 88.643C64.2537 88.643 64.2553 88.643 64.2569 88.643C64.2585 88.643 64.2601 88.643 64.2617 88.643C64.2632 88.643 64.2648 88.643 64.2664 88.643C64.268 88.643 64.2696 88.643 64.2712 88.643C64.2727 88.643 64.2743 88.643 64.2759 88.643C64.2775 88.643 64.2791 88.643 64.2807 88.643C64.2823 88.643 64.2838 88.643 64.2854 88.643C64.287 88.643 64.2886 88.643 64.2902 88.643C64.2918 88.643 64.2934 88.643 64.2949 88.643C64.2965 88.643 64.2981 88.643 64.2997 88.643C64.3013 88.643 64.3029 88.643 64.3044 88.643C64.306 88.643 64.3076 88.643 64.3092 88.643C64.3108 88.643 64.3124 88.643 64.3139 88.643C64.3155 88.643 64.3171 88.643 64.3187 88.643C64.3203 88.643 64.3219 88.643 64.3235 88.643C64.325 88.643 64.3266 88.643 64.3282 88.643C64.3298 88.643 64.3314 88.643 64.333 88.643C64.3345 88.643 64.3361 88.643 64.3377 88.643C64.3393 88.643 64.3409 88.643 64.3425 88.643C64.3441 88.643 64.3456 88.643 64.3472 88.643C64.3488 88.643 64.3504 88.643 64.352 88.643C64.3536 88.643 64.3552 88.643 64.3567 88.643C64.3583 88.643 64.3599 88.643 64.3615 88.643C64.3631 88.643 64.3647 88.643 64.3662 88.643C64.3678 88.643 64.3694 88.643 64.371 88.643C64.3726 88.643 64.3742 88.643 64.3757 88.643C64.3773 88.643 64.3789 88.643 64.3805 88.643C64.3821 88.643 64.3837 88.643 64.3853 88.643C64.3868 88.643 64.3884 88.643 64.39 88.643C64.3916 88.643 64.3932 88.643 64.3948 88.643C64.3963 88.643 64.3979 88.643 64.3995 88.643C64.4011 88.643 64.4027 88.643 64.4043 88.643C64.4059 88.643 64.4074 88.643 64.409 88.643C64.4106 88.643 64.4122 88.643 64.4138 88.643C64.4154 88.643 64.417 88.643 64.4185 88.643C64.4201 88.643 64.4217 88.643 64.4233 88.643C64.4249 88.643 64.4265 88.643 64.428 88.643C64.4296 88.643 64.4312 88.643 64.4328 88.643C64.4344 88.643 64.436 88.643 64.4375 88.643C64.4391 88.643 64.4407 88.643 64.4423 88.643C64.4439 88.643 64.4455 88.643 64.4471 88.643C64.4486 88.643 64.4502 88.643 64.4518 88.643C64.4534 88.643 64.455 88.643 64.4566 88.643C64.4581 88.643 64.4597 88.643 64.4613 88.643C64.4629 88.643 64.4645 88.643 64.4661 88.643C64.4677 88.643 64.4692 88.643 64.4708 88.643C64.4724 88.643 64.474 88.643 64.4756 88.643C64.4772 88.643 64.4788 88.643 64.4803 88.643C64.4819 88.643 64.4835 88.643 64.4851 88.643C64.4867 88.643 64.4883 88.643 64.4898 88.643C64.4914 88.643 64.493 88.643 64.4946 88.643C64.4962 88.643 64.4978 88.643 64.4993 88.643C64.5009 88.643 64.5025 88.643 64.5041 88.643C64.5057 88.643 64.5073 88.643 64.5089 88.643C64.5104 88.643 64.512 88.643 64.5136 88.643C64.5152 88.643 64.5168 88.643 64.5184 88.643C64.5199 88.643 64.5215 88.643 64.5231 88.643C64.5247 88.643 64.5263 88.643 64.5279 88.643C64.5295 88.643 64.531 88.643 64.5326 88.643C64.5342 88.643 64.5358 88.643 64.5374 88.643C64.539 88.643 64.5406 88.643 64.5421 88.643C64.5437 88.643 64.5453 88.643 64.5469 88.643C64.5485 88.643 64.5501 88.643 64.5516 88.643C64.5532 88.643 64.5548 88.643 64.5564 88.643C64.558 88.643 64.5596 88.643 64.5611 88.643C64.5627 88.643 64.5643 88.643 64.5659 88.643C64.5675 88.643 64.5691 88.643 64.5707 88.643C64.5722 88.643 64.5738 88.643 64.5754 88.643C64.577 88.643 64.5786 88.643 64.5802 88.643C64.5817 88.643 64.5833 88.643 64.5849 88.643C64.5865 88.643 64.5881 88.643 64.5897 88.643C64.5913 88.643 64.5928 88.643 64.5944 88.643C64.596 88.643 64.5976 88.643 64.5992 88.643C64.6008 88.643 64.6024 88.643 64.6039 88.643C64.6055 88.643 64.6071 88.643 64.6087 88.643C64.6103 88.643 64.6119 88.643 64.6134 88.643C64.615 88.643 64.6166 88.643 64.6182 88.643C64.6198 88.643 64.6214 88.643 64.6229 88.643C64.6245 88.643 64.6261 88.643 64.6277 88.643C64.6293 88.643 64.6309 88.643 64.6325 88.643C64.634 88.643 64.6356 88.643 64.6372 88.643C64.6388 88.643 64.6404 88.643 64.642 88.643C64.6435 88.643 64.6451 88.643 64.6467 88.643C64.6483 88.643 64.6499 88.643 64.6515 88.643C64.6531 88.643 64.6546 88.643 64.6562 88.643C64.6578 88.643 64.6594 88.643 64.661 88.643C64.6626 88.643 64.6642 88.643 64.6657 88.643C64.6673 88.643 64.6689 88.643 64.6705 88.643C64.6721 88.643 64.6737 88.643 64.6752 88.643C64.6768 88.643 64.6784 88.643 64.68 88.643C64.6816 88.643 64.6832 88.643 64.6847 88.643C64.6863 88.643 64.6879 88.643 64.6895 88.643C64.6911 88.643 64.6927 88.643 64.6943 88.643C64.6958 88.643 64.6974 88.643 64.699 88.643C64.7006 88.643 64.7022 88.643 64.7038 88.643C64.7053 88.643 64.7069 88.643 64.7085 88.643C64.7101 88.643 64.7117 88.643 64.7133 88.643C64.7149 88.643 64.7164 88.643 64.718 88.643C64.7196 88.643 64.7212 88.643 64.7228 88.643C64.7244 88.643 64.726 88.643 64.7275 88.643C64.7291 88.643 64.7307 88.643 64.7323 88.643C64.7339 88.643 64.7355 88.643 64.737 88.643C64.7386 88.643 64.7402 88.643 64.7418 88.643C64.7434 88.643 64.745 88.643 64.7465 88.643C64.7481 88.643 64.7497 88.643 64.7513 88.643C64.7529 88.643 64.7545 88.643 64.7561 88.643C64.7576 88.643 64.7592 88.643 64.7608 88.643C64.7624 88.643 64.764 88.643 64.7656 88.643C64.7671 88.643 64.7687 88.643 64.7703 88.643C64.7719 88.643 64.7735 88.643 64.7751 88.643C64.7767 88.643 64.7782 88.643 64.7798 88.643C64.7814 88.643 64.783 88.643 64.7846 88.643C64.7862 88.643 64.7878 88.643 64.7893 88.643C64.7909 88.643 64.7925 88.643 64.7941 88.643C64.7957 88.643 64.7973 88.643 64.7988 88.643C64.8004 88.643 64.802 88.643 64.8036 88.643C64.8052 88.643 64.8068 88.643 64.8083 88.643C64.8099 88.643 64.8115 88.643 64.8131 88.643C64.8147 88.643 64.8163 88.643 64.8179 88.643C64.8194 88.643 64.821 88.643 64.8226 88.643C64.8242 88.643 64.8258 88.643 64.8274 88.643C64.829 88.643 64.8305 88.643 64.8321 88.643C64.8337 88.643 64.8353 88.643 64.8369 88.643C64.8385 88.643 64.84 88.643 64.8416 88.643C64.8432 88.643 64.8448 88.643 64.8464 88.643C64.848 88.643 64.8496 88.643 64.8511 88.643C64.8527 88.643 64.8543 88.643 64.8559 88.643C64.8575 88.643 64.8591 88.643 64.8606 88.643C64.8622 88.643 64.8638 88.643 64.8654 88.643C64.867 88.643 64.8686 88.643 64.8701 88.643C64.8717 88.643 64.8733 88.643 64.8749 88.643C64.8765 88.643 64.8781 88.643 64.8797 88.643C64.8812 88.643 64.8828 88.643 64.8844 88.643C64.886 88.643 64.8876 88.643 64.8892 88.643C64.8908 88.643 64.8923 88.643 64.8939 88.643C64.8955 88.643 64.8971 88.643 64.8987 88.643C64.9003 88.643 64.9018 88.643 64.9034 88.643C64.905 88.643 64.9066 88.643 64.9082 88.643C64.9098 88.643 64.9114 88.643 64.9129 88.643C64.9145 88.643 64.9161 88.643 64.9177 88.643C64.9193 88.643 64.9209 88.643 64.9224 88.643C64.924 88.643 64.9256 88.643 64.9272 88.643C64.9288 88.643 64.9304 88.643 64.9319 88.643C64.9335 88.643 64.9351 88.643 64.9367 88.643C64.9383 88.643 64.9399 88.643 64.9415 88.643C64.943 88.643 64.9446 88.643 64.9462 88.643C64.9478 88.643 64.9494 88.643 64.951 88.643C64.9526 88.643 64.9541 88.643 64.9557 88.643C64.9573 88.643 64.9589 88.643 64.9605 88.643C64.9621 88.643 64.9636 88.643 64.9652 88.643C64.9668 88.643 64.9684 88.643 64.97 88.643C64.9716 88.643 64.9732 88.643 64.9747 88.643C64.9763 88.643 64.9779 88.643 64.9795 88.643C64.9811 88.643 64.9827 88.643 64.9842 88.643C64.9858 88.643 64.9874 88.643 64.989 88.643C64.9906 88.643 64.9922 88.643 64.9937 88.643C64.9953 88.643 64.9969 88.643 64.9985 88.643C65.0001 88.643 65.0017 88.643 65.0033 88.643C65.0048 88.643 65.0064 88.643 65.008 88.643C65.0096 88.643 65.0112 88.643 65.0128 88.643C65.0144 88.643 65.0159 88.643 65.0175 88.643C65.0191 88.643 65.0207 88.643 65.0223 88.643C65.0239 88.643 65.0254 88.643 65.027 88.643C65.0286 88.643 65.0302 88.643 65.0318 88.643C65.0334 88.643 65.035 88.643 65.0365 88.643C65.0381 88.643 65.0397 88.643 65.0413 88.643C65.0429 88.643 65.0445 88.643 65.046 88.643C65.0476 88.643 65.0492 88.643 65.0508 88.643C65.0524 88.643 65.054 88.643 65.0555 88.643C65.0571 88.643 65.0587 88.643 65.0603 88.643C65.0619 88.643 65.0635 88.643 65.0651 88.643C65.0666 88.643 65.0682 88.643 65.0698 88.643C65.0714 88.643 65.073 88.643 65.0746 88.643C65.0762 88.643 65.0777 88.643 65.0793 88.643C65.0809 88.643 65.0825 88.643 65.0841 88.643C65.0857 88.643 65.0872 88.643 65.0888 88.643C65.0904 88.643 65.092 88.643 65.0936 88.643C65.0952 88.643 65.0968 88.643 65.0983 88.643C65.0999 88.643 65.1015 88.643 65.1031 88.643C65.1047 88.643 65.1063 88.643 65.1078 88.643C65.1094 88.643 65.111 88.643 65.1126 88.643C65.1142 88.643 65.1158 88.643 65.1173 88.643C65.1189 88.643 65.1205 88.643 65.1221 88.643C65.1237 88.643 65.1253 88.643 65.1269 88.643C65.1284 88.643 65.13 88.643 65.1316 88.643C65.1332 88.643 65.1348 88.643 65.1364 88.643C65.138 88.643 65.1395 88.643 65.1411 88.643C65.1427 88.643 65.1443 88.643 65.1459 88.643C65.1475 88.643 65.149 88.643 65.1506 88.643C65.1522 88.643 65.1538 88.643 65.1554 88.643C65.157 88.643 65.1586 88.643 65.1601 88.643C65.1617 88.643 65.1633 88.643 65.1649 88.643C65.1665 88.643 65.1681 88.643 65.1696 88.643C65.1712 88.643 65.1728 88.643 65.1744 88.643C65.176 88.643 65.1776 88.643 65.1791 88.643C65.1807 88.643 65.1823 88.643 65.1839 88.643C65.1855 88.643 65.1871 88.643 65.1887 88.643C65.1902 88.643 65.1918 88.643 65.1934 88.643C65.195 88.643 65.1966 88.643 65.1982 88.643V87.643C65.1966 87.643 65.195 87.643 65.1934 87.643C65.1918 87.643 65.1902 87.643 65.1887 87.643C65.1871 87.643 65.1855 87.643 65.1839 87.643C65.1823 87.643 65.1807 87.643 65.1791 87.643C65.1776 87.643 65.176 87.643 65.1744 87.643C65.1728 87.643 65.1712 87.643 65.1696 87.643C65.1681 87.643 65.1665 87.643 65.1649 87.643C65.1633 87.643 65.1617 87.643 65.1601 87.643C65.1586 87.643 65.157 87.643 65.1554 87.643C65.1538 87.643 65.1522 87.643 65.1506 87.643C65.149 87.643 65.1475 87.643 65.1459 87.643C65.1443 87.643 65.1427 87.643 65.1411 87.643C65.1395 87.643 65.138 87.643 65.1364 87.643C65.1348 87.643 65.1332 87.643 65.1316 87.643C65.13 87.643 65.1284 87.643 65.1269 87.643C65.1253 87.643 65.1237 87.643 65.1221 87.643C65.1205 87.643 65.1189 87.643 65.1173 87.643C65.1158 87.643 65.1142 87.643 65.1126 87.643C65.111 87.643 65.1094 87.643 65.1078 87.643C65.1063 87.643 65.1047 87.643 65.1031 87.643C65.1015 87.643 65.0999 87.643 65.0983 87.643C65.0968 87.643 65.0952 87.643 65.0936 87.643C65.092 87.643 65.0904 87.643 65.0888 87.643C65.0872 87.643 65.0857 87.643 65.0841 87.643C65.0825 87.643 65.0809 87.643 65.0793 87.643C65.0777 87.643 65.0762 87.643 65.0746 87.643C65.073 87.643 65.0714 87.643 65.0698 87.643C65.0682 87.643 65.0666 87.643 65.0651 87.643C65.0635 87.643 65.0619 87.643 65.0603 87.643C65.0587 87.643 65.0571 87.643 65.0555 87.643C65.054 87.643 65.0524 87.643 65.0508 87.643C65.0492 87.643 65.0476 87.643 65.046 87.643C65.0445 87.643 65.0429 87.643 65.0413 87.643C65.0397 87.643 65.0381 87.643 65.0365 87.643C65.035 87.643 65.0334 87.643 65.0318 87.643C65.0302 87.643 65.0286 87.643 65.027 87.643C65.0254 87.643 65.0239 87.643 65.0223 87.643C65.0207 87.643 65.0191 87.643 65.0175 87.643C65.0159 87.643 65.0144 87.643 65.0128 87.643C65.0112 87.643 65.0096 87.643 65.008 87.643C65.0064 87.643 65.0048 87.643 65.0033 87.643C65.0017 87.643 65.0001 87.643 64.9985 87.643C64.9969 87.643 64.9953 87.643 64.9937 87.643C64.9922 87.643 64.9906 87.643 64.989 87.643C64.9874 87.643 64.9858 87.643 64.9842 87.643C64.9827 87.643 64.9811 87.643 64.9795 87.643C64.9779 87.643 64.9763 87.643 64.9747 87.643C64.9732 87.643 64.9716 87.643 64.97 87.643C64.9684 87.643 64.9668 87.643 64.9652 87.643C64.9636 87.643 64.9621 87.643 64.9605 87.643C64.9589 87.643 64.9573 87.643 64.9557 87.643C64.9541 87.643 64.9526 87.643 64.951 87.643C64.9494 87.643 64.9478 87.643 64.9462 87.643C64.9446 87.643 64.943 87.643 64.9415 87.643C64.9399 87.643 64.9383 87.643 64.9367 87.643C64.9351 87.643 64.9335 87.643 64.9319 87.643C64.9304 87.643 64.9288 87.643 64.9272 87.643C64.9256 87.643 64.924 87.643 64.9224 87.643C64.9209 87.643 64.9193 87.643 64.9177 87.643C64.9161 87.643 64.9145 87.643 64.9129 87.643C64.9114 87.643 64.9098 87.643 64.9082 87.643C64.9066 87.643 64.905 87.643 64.9034 87.643C64.9018 87.643 64.9003 87.643 64.8987 87.643C64.8971 87.643 64.8955 87.643 64.8939 87.643C64.8923 87.643 64.8908 87.643 64.8892 87.643C64.8876 87.643 64.886 87.643 64.8844 87.643C64.8828 87.643 64.8812 87.643 64.8797 87.643C64.8781 87.643 64.8765 87.643 64.8749 87.643C64.8733 87.643 64.8717 87.643 64.8701 87.643C64.8686 87.643 64.867 87.643 64.8654 87.643C64.8638 87.643 64.8622 87.643 64.8606 87.643C64.8591 87.643 64.8575 87.643 64.8559 87.643C64.8543 87.643 64.8527 87.643 64.8511 87.643C64.8496 87.643 64.848 87.643 64.8464 87.643C64.8448 87.643 64.8432 87.643 64.8416 87.643C64.84 87.643 64.8385 87.643 64.8369 87.643C64.8353 87.643 64.8337 87.643 64.8321 87.643C64.8305 87.643 64.829 87.643 64.8274 87.643C64.8258 87.643 64.8242 87.643 64.8226 87.643C64.821 87.643 64.8194 87.643 64.8179 87.643C64.8163 87.643 64.8147 87.643 64.8131 87.643C64.8115 87.643 64.8099 87.643 64.8083 87.643C64.8068 87.643 64.8052 87.643 64.8036 87.643C64.802 87.643 64.8004 87.643 64.7988 87.643C64.7973 87.643 64.7957 87.643 64.7941 87.643C64.7925 87.643 64.7909 87.643 64.7893 87.643C64.7878 87.643 64.7862 87.643 64.7846 87.643C64.783 87.643 64.7814 87.643 64.7798 87.643C64.7782 87.643 64.7767 87.643 64.7751 87.643C64.7735 87.643 64.7719 87.643 64.7703 87.643C64.7687 87.643 64.7671 87.643 64.7656 87.643C64.764 87.643 64.7624 87.643 64.7608 87.643C64.7592 87.643 64.7576 87.643 64.7561 87.643C64.7545 87.643 64.7529 87.643 64.7513 87.643C64.7497 87.643 64.7481 87.643 64.7465 87.643C64.745 87.643 64.7434 87.643 64.7418 87.643C64.7402 87.643 64.7386 87.643 64.737 87.643C64.7355 87.643 64.7339 87.643 64.7323 87.643C64.7307 87.643 64.7291 87.643 64.7275 87.643C64.726 87.643 64.7244 87.643 64.7228 87.643C64.7212 87.643 64.7196 87.643 64.718 87.643C64.7164 87.643 64.7149 87.643 64.7133 87.643C64.7117 87.643 64.7101 87.643 64.7085 87.643C64.7069 87.643 64.7053 87.643 64.7038 87.643C64.7022 87.643 64.7006 87.643 64.699 87.643C64.6974 87.643 64.6958 87.643 64.6943 87.643C64.6927 87.643 64.6911 87.643 64.6895 87.643C64.6879 87.643 64.6863 87.643 64.6847 87.643C64.6832 87.643 64.6816 87.643 64.68 87.643C64.6784 87.643 64.6768 87.643 64.6752 87.643C64.6737 87.643 64.6721 87.643 64.6705 87.643C64.6689 87.643 64.6673 87.643 64.6657 87.643C64.6642 87.643 64.6626 87.643 64.661 87.643C64.6594 87.643 64.6578 87.643 64.6562 87.643C64.6546 87.643 64.6531 87.643 64.6515 87.643C64.6499 87.643 64.6483 87.643 64.6467 87.643C64.6451 87.643 64.6435 87.643 64.642 87.643C64.6404 87.643 64.6388 87.643 64.6372 87.643C64.6356 87.643 64.634 87.643 64.6325 87.643C64.6309 87.643 64.6293 87.643 64.6277 87.643C64.6261 87.643 64.6245 87.643 64.6229 87.643C64.6214 87.643 64.6198 87.643 64.6182 87.643C64.6166 87.643 64.615 87.643 64.6134 87.643C64.6119 87.643 64.6103 87.643 64.6087 87.643C64.6071 87.643 64.6055 87.643 64.6039 87.643C64.6024 87.643 64.6008 87.643 64.5992 87.643C64.5976 87.643 64.596 87.643 64.5944 87.643C64.5928 87.643 64.5913 87.643 64.5897 87.643C64.5881 87.643 64.5865 87.643 64.5849 87.643C64.5833 87.643 64.5817 87.643 64.5802 87.643C64.5786 87.643 64.577 87.643 64.5754 87.643C64.5738 87.643 64.5722 87.643 64.5707 87.643C64.5691 87.643 64.5675 87.643 64.5659 87.643C64.5643 87.643 64.5627 87.643 64.5611 87.643C64.5596 87.643 64.558 87.643 64.5564 87.643C64.5548 87.643 64.5532 87.643 64.5516 87.643C64.5501 87.643 64.5485 87.643 64.5469 87.643C64.5453 87.643 64.5437 87.643 64.5421 87.643C64.5406 87.643 64.539 87.643 64.5374 87.643C64.5358 87.643 64.5342 87.643 64.5326 87.643C64.531 87.643 64.5295 87.643 64.5279 87.643C64.5263 87.643 64.5247 87.643 64.5231 87.643C64.5215 87.643 64.5199 87.643 64.5184 87.643C64.5168 87.643 64.5152 87.643 64.5136 87.643C64.512 87.643 64.5104 87.643 64.5089 87.643C64.5073 87.643 64.5057 87.643 64.5041 87.643C64.5025 87.643 64.5009 87.643 64.4993 87.643C64.4978 87.643 64.4962 87.643 64.4946 87.643C64.493 87.643 64.4914 87.643 64.4898 87.643C64.4883 87.643 64.4867 87.643 64.4851 87.643C64.4835 87.643 64.4819 87.643 64.4803 87.643C64.4788 87.643 64.4772 87.643 64.4756 87.643C64.474 87.643 64.4724 87.643 64.4708 87.643C64.4692 87.643 64.4677 87.643 64.4661 87.643C64.4645 87.643 64.4629 87.643 64.4613 87.643C64.4597 87.643 64.4581 87.643 64.4566 87.643C64.455 87.643 64.4534 87.643 64.4518 87.643C64.4502 87.643 64.4486 87.643 64.4471 87.643C64.4455 87.643 64.4439 87.643 64.4423 87.643C64.4407 87.643 64.4391 87.643 64.4375 87.643C64.436 87.643 64.4344 87.643 64.4328 87.643C64.4312 87.643 64.4296 87.643 64.428 87.643C64.4265 87.643 64.4249 87.643 64.4233 87.643C64.4217 87.643 64.4201 87.643 64.4185 87.643C64.417 87.643 64.4154 87.643 64.4138 87.643C64.4122 87.643 64.4106 87.643 64.409 87.643C64.4074 87.643 64.4059 87.643 64.4043 87.643C64.4027 87.643 64.4011 87.643 64.3995 87.643C64.3979 87.643 64.3963 87.643 64.3948 87.643C64.3932 87.643 64.3916 87.643 64.39 87.643C64.3884 87.643 64.3868 87.643 64.3853 87.643C64.3837 87.643 64.3821 87.643 64.3805 87.643C64.3789 87.643 64.3773 87.643 64.3757 87.643C64.3742 87.643 64.3726 87.643 64.371 87.643C64.3694 87.643 64.3678 87.643 64.3662 87.643C64.3647 87.643 64.3631 87.643 64.3615 87.643C64.3599 87.643 64.3583 87.643 64.3567 87.643C64.3552 87.643 64.3536 87.643 64.352 87.643C64.3504 87.643 64.3488 87.643 64.3472 87.643C64.3456 87.643 64.3441 87.643 64.3425 87.643C64.3409 87.643 64.3393 87.643 64.3377 87.643C64.3361 87.643 64.3345 87.643 64.333 87.643C64.3314 87.643 64.3298 87.643 64.3282 87.643C64.3266 87.643 64.325 87.643 64.3235 87.643C64.3219 87.643 64.3203 87.643 64.3187 87.643C64.3171 87.643 64.3155 87.643 64.3139 87.643C64.3124 87.643 64.3108 87.643 64.3092 87.643C64.3076 87.643 64.306 87.643 64.3044 87.643C64.3029 87.643 64.3013 87.643 64.2997 87.643C64.2981 87.643 64.2965 87.643 64.2949 87.643C64.2934 87.643 64.2918 87.643 64.2902 87.643C64.2886 87.643 64.287 87.643 64.2854 87.643C64.2838 87.643 64.2823 87.643 64.2807 87.643C64.2791 87.643 64.2775 87.643 64.2759 87.643C64.2743 87.643 64.2727 87.643 64.2712 87.643C64.2696 87.643 64.268 87.643 64.2664 87.643C64.2648 87.643 64.2632 87.643 64.2617 87.643C64.2601 87.643 64.2585 87.643 64.2569 87.643C64.2553 87.643 64.2537 87.643 64.2521 87.643C64.2506 87.643 64.249 87.643 64.2474 87.643C64.2458 87.643 64.2442 87.643 64.2426 87.643C64.2411 87.643 64.2395 87.643 64.2379 87.643C64.2363 87.643 64.2347 87.643 64.2331 87.643C64.2316 87.643 64.23 87.643 64.2284 87.643C64.2268 87.643 64.2252 87.643 64.2236 87.643C64.222 87.643 64.2205 87.643 64.2189 87.643C64.2173 87.643 64.2157 87.643 64.2141 87.643C64.2125 87.643 64.2109 87.643 64.2094 87.643C64.2078 87.643 64.2062 87.643 64.2046 87.643C64.203 87.643 64.2014 87.643 64.1999 87.643C64.1983 87.643 64.1967 87.643 64.1951 87.643C64.1935 87.643 64.1919 87.643 64.1903 87.643C64.1888 87.643 64.1872 87.643 64.1856 87.643C64.184 87.643 64.1824 87.643 64.1808 87.643C64.1793 87.643 64.1777 87.643 64.1761 87.643C64.1745 87.643 64.1729 87.643 64.1713 87.643C64.1698 87.643 64.1682 87.643 64.1666 87.643C64.165 87.643 64.1634 87.643 64.1618 87.643C64.1602 87.643 64.1587 87.643 64.1571 87.643C64.1555 87.643 64.1539 87.643 64.1523 87.643C64.1507 87.643 64.1491 87.643 64.1476 87.643C64.146 87.643 64.1444 87.643 64.1428 87.643C64.1412 87.643 64.1396 87.643 64.1381 87.643C64.1365 87.643 64.1349 87.643 64.1333 87.643C64.1317 87.643 64.1301 87.643 64.1285 87.643C64.127 87.643 64.1254 87.643 64.1238 87.643C64.1222 87.643 64.1206 87.643 64.119 87.643C64.1175 87.643 64.1159 87.643 64.1143 87.643C64.1127 87.643 64.1111 87.643 64.1095 87.643C64.108 87.643 64.1064 87.643 64.1048 87.643C64.1032 87.643 64.1016 87.643 64.1 87.643C64.0984 87.643 64.0969 87.643 64.0953 87.643C64.0937 87.643 64.0921 87.643 64.0905 87.643C64.0889 87.643 64.0873 87.643 64.0858 87.643C64.0842 87.643 64.0826 87.643 64.081 87.643C64.0794 87.643 64.0778 87.643 64.0763 87.643C64.0747 87.643 64.0731 87.643 64.0715 87.643C64.0699 87.643 64.0683 87.643 64.0667 87.643C64.0652 87.643 64.0636 87.643 64.062 87.643C64.0604 87.643 64.0588 87.643 64.0572 87.643C64.0557 87.643 64.0541 87.643 64.0525 87.643C64.0509 87.643 64.0493 87.643 64.0477 87.643C64.0462 87.643 64.0446 87.643 64.043 87.643C64.0414 87.643 64.0398 87.643 64.0382 87.643C64.0366 87.643 64.0351 87.643 64.0335 87.643C64.0319 87.643 64.0303 87.643 64.0287 87.643C64.0271 87.643 64.0255 87.643 64.024 87.643C64.0224 87.643 64.0208 87.643 64.0192 87.643C64.0176 87.643 64.016 87.643 64.0145 87.643C64.0129 87.643 64.0113 87.643 64.0097 87.643C64.0081 87.643 64.0065 87.643 64.0049 87.643C64.0034 87.643 64.0018 87.643 64.0002 87.643C63.9986 87.643 63.997 87.643 63.9954 87.643C63.9939 87.643 63.9923 87.643 63.9907 87.643C63.9891 87.643 63.9875 87.643 63.9859 87.643C63.9844 87.643 63.9828 87.643 63.9812 87.643C63.9796 87.643 63.978 87.643 63.9764 87.643C63.9748 87.643 63.9733 87.643 63.9717 87.643C63.9701 87.643 63.9685 87.643 63.9669 87.643C63.9653 87.643 63.9637 87.643 63.9622 87.643C63.9606 87.643 63.959 87.643 63.9574 87.643C63.9558 87.643 63.9542 87.643 63.9527 87.643C63.9511 87.643 63.9495 87.643 63.9479 87.643C63.9463 87.643 63.9447 87.643 63.9431 87.643C63.9416 87.643 63.94 87.643 63.9384 87.643C63.9368 87.643 63.9352 87.643 63.9336 87.643C63.9321 87.643 63.9305 87.643 63.9289 87.643C63.9273 87.643 63.9257 87.643 63.9241 87.643C63.9226 87.643 63.921 87.643 63.9194 87.643C63.9178 87.643 63.9162 87.643 63.9146 87.643C63.913 87.643 63.9115 87.643 63.9099 87.643C63.9083 87.643 63.9067 87.643 63.9051 87.643C63.9035 87.643 63.9019 87.643 63.9004 87.643C63.8988 87.643 63.8972 87.643 63.8956 87.643C63.894 87.643 63.8924 87.643 63.8909 87.643C63.8893 87.643 63.8877 87.643 63.8861 87.643C63.8845 87.643 63.8829 87.643 63.8813 87.643C63.8798 87.643 63.8782 87.643 63.8766 87.643C63.875 87.643 63.8734 87.643 63.8718 87.643C63.8703 87.643 63.8687 87.643 63.8671 87.643C63.8655 87.643 63.8639 87.643 63.8623 87.643C63.8608 87.643 63.8592 87.643 63.8576 87.643C63.856 87.643 63.8544 87.643 63.8528 87.643C63.8512 87.643 63.8497 87.643 63.8481 87.643C63.8465 87.643 63.8449 87.643 63.8433 87.643C63.8417 87.643 63.8401 87.643 63.8386 87.643C63.837 87.643 63.8354 87.643 63.8338 87.643C63.8322 87.643 63.8306 87.643 63.8291 87.643C63.8275 87.643 63.8259 87.643 63.8243 87.643C63.8227 87.643 63.8211 87.643 63.8195 87.643C63.818 87.643 63.8164 87.643 63.8148 87.643C63.8132 87.643 63.8116 87.643 63.81 87.643C63.8085 87.643 63.8069 87.643 63.8053 87.643C63.8037 87.643 63.8021 87.643 63.8005 87.643C63.799 87.643 63.7974 87.643 63.7958 87.643C63.7942 87.643 63.7926 87.643 63.791 87.643C63.7894 87.643 63.7879 87.643 63.7863 87.643C63.7847 87.643 63.7831 87.643 63.7815 87.643C63.7799 87.643 63.7783 87.643 63.7768 87.643C63.7752 87.643 63.7736 87.643 63.772 87.643C63.7704 87.643 63.7688 87.643 63.7673 87.643C63.7657 87.643 63.7641 87.643 63.7625 87.643C63.7609 87.643 63.7593 87.643 63.7577 87.643C63.7562 87.643 63.7546 87.643 63.753 87.643C63.7514 87.643 63.7498 87.643 63.7482 87.643C63.7467 87.643 63.7451 87.643 63.7435 87.643C63.7419 87.643 63.7403 87.643 63.7387 87.643C63.7372 87.643 63.7356 87.643 63.734 87.643C63.7324 87.643 63.7308 87.643 63.7292 87.643C63.7276 87.643 63.7261 87.643 63.7245 87.643C63.7229 87.643 63.7213 87.643 63.7197 87.643C63.7181 87.643 63.7165 87.643 63.715 87.643C63.7134 87.643 63.7118 87.643 63.7102 87.643C63.7086 87.643 63.707 87.643 63.7055 87.643C63.7039 87.643 63.7023 87.643 63.7007 87.643C63.6991 87.643 63.6975 87.643 63.6959 87.643C63.6944 87.643 63.6928 87.643 63.6912 87.643C63.6896 87.643 63.688 87.643 63.6864 87.643C63.6849 87.643 63.6833 87.643 63.6817 87.643C63.6801 87.643 63.6785 87.643 63.6769 87.643C63.6754 87.643 63.6738 87.643 63.6722 87.643C63.6706 87.643 63.669 87.643 63.6674 87.643C63.6658 87.643 63.6643 87.643 63.6627 87.643C63.6611 87.643 63.6595 87.643 63.6579 87.643C63.6563 87.643 63.6547 87.643 63.6532 87.643C63.6516 87.643 63.65 87.643 63.6484 87.643C63.6468 87.643 63.6452 87.643 63.6437 87.643C63.6421 87.643 63.6405 87.643 63.6389 87.643C63.6373 87.643 63.6357 87.643 63.6341 87.643C63.6326 87.643 63.631 87.643 63.6294 87.643C63.6278 87.643 63.6262 87.643 63.6246 87.643C63.6231 87.643 63.6215 87.643 63.6199 87.643C63.6183 87.643 63.6167 87.643 63.6151 87.643C63.6136 87.643 63.612 87.643 63.6104 87.643C63.6088 87.643 63.6072 87.643 63.6056 87.643C63.604 87.643 63.6025 87.643 63.6009 87.643C63.5993 87.643 63.5977 87.643 63.5961 87.643C63.5945 87.643 63.5929 87.643 63.5914 87.643C63.5898 87.643 63.5882 87.643 63.5866 87.643C63.585 87.643 63.5834 87.643 63.5819 87.643C63.5803 87.643 63.5787 87.643 63.5771 87.643C63.5755 87.643 63.5739 87.643 63.5723 87.643C63.5708 87.643 63.5692 87.643 63.5676 87.643C63.566 87.643 63.5644 87.643 63.5628 87.643C63.5613 87.643 63.5597 87.643 63.5581 87.643C63.5565 87.643 63.5549 87.643 63.5533 87.643C63.5518 87.643 63.5502 87.643 63.5486 87.643C63.547 87.643 63.5454 87.643 63.5438 87.643C63.5422 87.643 63.5407 87.643 63.5391 87.643C63.5375 87.643 63.5359 87.643 63.5343 87.643C63.5327 87.643 63.5311 87.643 63.5296 87.643C63.528 87.643 63.5264 87.643 63.5248 87.643C63.5232 87.643 63.5216 87.643 63.5201 87.643C63.5185 87.643 63.5169 87.643 63.5153 87.643C63.5137 87.643 63.5121 87.643 63.5105 87.643C63.509 87.643 63.5074 87.643 63.5058 87.643C63.5042 87.643 63.5026 87.643 63.501 87.643C63.4995 87.643 63.4979 87.643 63.4963 87.643C63.4947 87.643 63.4931 87.643 63.4915 87.643C63.49 87.643 63.4884 87.643 63.4868 87.643C63.4852 87.643 63.4836 87.643 63.482 87.643C63.4804 87.643 63.4789 87.643 63.4773 87.643C63.4757 87.643 63.4741 87.643 63.4725 87.643C63.4709 87.643 63.4693 87.643 63.4678 87.643C63.4662 87.643 63.4646 87.643 63.463 87.643C63.4614 87.643 63.4598 87.643 63.4583 87.643C63.4567 87.643 63.4551 87.643 63.4535 87.643C63.4519 87.643 63.4503 87.643 63.4487 87.643C63.4472 87.643 63.4456 87.643 63.444 87.643C63.4424 87.643 63.4408 87.643 63.4392 87.643C63.4377 87.643 63.4361 87.643 63.4345 87.643C63.4329 87.643 63.4313 87.643 63.4297 87.643C63.4282 87.643 63.4266 87.643 63.425 87.643C63.4234 87.643 63.4218 87.643 63.4202 87.643C63.4186 87.643 63.4171 87.643 63.4155 87.643C63.4139 87.643 63.4123 87.643 63.4107 87.643C63.4091 87.643 63.4075 87.643 63.406 87.643C63.4044 87.643 63.4028 87.643 63.4012 87.643C63.3996 87.643 63.398 87.643 63.3965 87.643C63.3949 87.643 63.3933 87.643 63.3917 87.643C63.3901 87.643 63.3885 87.643 63.3869 87.643C63.3854 87.643 63.3838 87.643 63.3822 87.643C63.3806 87.643 63.379 87.643 63.3774 87.643C63.3759 87.643 63.3743 87.643 63.3727 87.643C63.3711 87.643 63.3695 87.643 63.3679 87.643C63.3664 87.643 63.3648 87.643 63.3632 87.643C63.3616 87.643 63.36 87.643 63.3584 87.643C63.3568 87.643 63.3553 87.643 63.3537 87.643C63.3521 87.643 63.3505 87.643 63.3489 87.643C63.3473 87.643 63.3457 87.643 63.3442 87.643C63.3426 87.643 63.341 87.643 63.3394 87.643C63.3378 87.643 63.3362 87.643 63.3347 87.643C63.3331 87.643 63.3315 87.643 63.3299 87.643C63.3283 87.643 63.3267 87.643 63.3251 87.643C63.3236 87.643 63.322 87.643 63.3204 87.643C63.3188 87.643 63.3172 87.643 63.3156 87.643C63.3141 87.643 63.3125 87.643 63.3109 87.643C63.3093 87.643 63.3077 87.643 63.3061 87.643C63.3046 87.643 63.303 87.643 63.3014 87.643C63.2998 87.643 63.2982 87.643 63.2966 87.643C63.295 87.643 63.2935 87.643 63.2919 87.643C63.2903 87.643 63.2887 87.643 63.2871 87.643C63.2855 87.643 63.2839 87.643 63.2824 87.643C63.2808 87.643 63.2792 87.643 63.2776 87.643C63.276 87.643 63.2744 87.643 63.2729 87.643C63.2713 87.643 63.2697 87.643 63.2681 87.643C63.2665 87.643 63.2649 87.643 63.2633 87.643C63.2618 87.643 63.2602 87.643 63.2586 87.643C63.257 87.643 63.2554 87.643 63.2538 87.643C63.2523 87.643 63.2507 87.643 63.2491 87.643C63.2475 87.643 63.2459 87.643 63.2443 87.643C63.2428 87.643 63.2412 87.643 63.2396 87.643C63.238 87.643 63.2364 87.643 63.2348 87.643C63.2332 87.643 63.2317 87.643 63.2301 87.643C63.2285 87.643 63.2269 87.643 63.2253 87.643C63.2237 87.643 63.2221 87.643 63.2206 87.643C63.219 87.643 63.2174 87.643 63.2158 87.643C63.2142 87.643 63.2126 87.643 63.2111 87.643C63.2095 87.643 63.2079 87.643 63.2063 87.643C63.2047 87.643 63.2031 87.643 63.2015 87.643C63.2 87.643 63.1984 87.643 63.1968 87.643C63.1952 87.643 63.1936 87.643 63.192 87.643C63.1905 87.643 63.1889 87.643 63.1873 87.643C63.1857 87.643 63.1841 87.643 63.1825 87.643C63.181 87.643 63.1794 87.643 63.1778 87.643C63.1762 87.643 63.1746 87.643 63.173 87.643C63.1714 87.643 63.1699 87.643 63.1683 87.643C63.1667 87.643 63.1651 87.643 63.1635 87.643C63.1619 87.643 63.1603 87.643 63.1588 87.643C63.1572 87.643 63.1556 87.643 63.154 87.643C63.1524 87.643 63.1508 87.643 63.1493 87.643C63.1477 87.643 63.1461 87.643 63.1445 87.643C63.1429 87.643 63.1413 87.643 63.1397 87.643C63.1382 87.643 63.1366 87.643 63.135 87.643C63.1334 87.643 63.1318 87.643 63.1302 87.643C63.1287 87.643 63.1271 87.643 63.1255 87.643C63.1239 87.643 63.1223 87.643 63.1207 87.643C63.1192 87.643 63.1176 87.643 63.116 87.643C63.1144 87.643 63.1128 87.643 63.1112 87.643C63.1096 87.643 63.1081 87.643 63.1065 87.643C63.1049 87.643 63.1033 87.643 63.1017 87.643C63.1001 87.643 63.0985 87.643 63.097 87.643C63.0954 87.643 63.0938 87.643 63.0922 87.643C63.0906 87.643 63.089 87.643 63.0875 87.643C63.0859 87.643 63.0843 87.643 63.0827 87.643C63.0811 87.643 63.0795 87.643 63.0779 87.643C63.0764 87.643 63.0748 87.643 63.0732 87.643C63.0716 87.643 63.07 87.643 63.0684 87.643C63.0669 87.643 63.0653 87.643 63.0637 87.643C63.0621 87.643 63.0605 87.643 63.0589 87.643C63.0574 87.643 63.0558 87.643 63.0542 87.643C63.0526 87.643 63.051 87.643 63.0494 87.643C63.0478 87.643 63.0463 87.643 63.0447 87.643C63.0431 87.643 63.0415 87.643 63.0399 87.643C63.0383 87.643 63.0367 87.643 63.0352 87.643C63.0336 87.643 63.032 87.643 63.0304 87.643C63.0288 87.643 63.0272 87.643 63.0257 87.643C63.0241 87.643 63.0225 87.643 63.0209 87.643C63.0193 87.643 63.0177 87.643 63.0161 87.643C63.0146 87.643 63.013 87.643 63.0114 87.643C63.0098 87.643 63.0082 87.643 63.0066 87.643C63.0051 87.643 63.0035 87.643 63.0019 87.643C63.0003 87.643 62.9987 87.643 62.9971 87.643C62.9955 87.643 62.994 87.643 62.9924 87.643C62.9908 87.643 62.9892 87.643 62.9876 87.643C62.986 87.643 62.9845 87.643 62.9829 87.643C62.9813 87.643 62.9797 87.643 62.9781 87.643C62.9765 87.643 62.9749 87.643 62.9734 87.643C62.9718 87.643 62.9702 87.643 62.9686 87.643C62.967 87.643 62.9654 87.643 62.9639 87.643C62.9623 87.643 62.9607 87.643 62.9591 87.643C62.9575 87.643 62.9559 87.643 62.9543 87.643C62.9528 87.643 62.9512 87.643 62.9496 87.643C62.948 87.643 62.9464 87.643 62.9448 87.643C62.9433 87.643 62.9417 87.643 62.9401 87.643C62.9385 87.643 62.9369 87.643 62.9353 87.643C62.9337 87.643 62.9322 87.643 62.9306 87.643C62.929 87.643 62.9274 87.643 62.9258 87.643C62.9242 87.643 62.9227 87.643 62.9211 87.643C62.9195 87.643 62.9179 87.643 62.9163 87.643C62.9147 87.643 62.9131 87.643 62.9116 87.643C62.91 87.643 62.9084 87.643 62.9068 87.643C62.9052 87.643 62.9036 87.643 62.9021 87.643C62.9005 87.643 62.8989 87.643 62.8973 87.643C62.8957 87.643 62.8941 87.643 62.8925 87.643C62.891 87.643 62.8894 87.643 62.8878 87.643C62.8862 87.643 62.8846 87.643 62.883 87.643C62.8815 87.643 62.8799 87.643 62.8783 87.643C62.8767 87.643 62.8751 87.643 62.8735 87.643C62.8719 87.643 62.8704 87.643 62.8688 87.643C62.8672 87.643 62.8656 87.643 62.864 87.643C62.8624 87.643 62.8609 87.643 62.8593 87.643C62.8577 87.643 62.8561 87.643 62.8545 87.643C62.8529 87.643 62.8513 87.643 62.8498 87.643C62.8482 87.643 62.8466 87.643 62.845 87.643C62.8434 87.643 62.8418 87.643 62.8403 87.643C62.8387 87.643 62.8371 87.643 62.8355 87.643C62.8339 87.643 62.8323 87.643 62.8307 87.643C62.8292 87.643 62.8276 87.643 62.826 87.643C62.8244 87.643 62.8228 87.643 62.8212 87.643C62.8197 87.643 62.8181 87.643 62.8165 87.643C62.8149 87.643 62.8133 87.643 62.8117 87.643C62.8101 87.643 62.8086 87.643 62.807 87.643C62.8054 87.643 62.8038 87.643 62.8022 87.643C62.8006 87.643 62.7991 87.643 62.7975 87.643C62.7959 87.643 62.7943 87.643 62.7927 87.643C62.7911 87.643 62.7895 87.643 62.788 87.643C62.7864 87.643 62.7848 87.643 62.7832 87.643C62.7816 87.643 62.78 87.643 62.7785 87.643C62.7769 87.643 62.7753 87.643 62.7737 87.643C62.7721 87.643 62.7705 87.643 62.7689 87.643C62.7674 87.643 62.7658 87.643 62.7642 87.643V88.643ZM65.1982 88.643C65.8775 88.643 66.2379 88.18 66.4616 87.8559C66.7196 87.4821 66.8441 87.2517 67.0781 87.1114L66.5636 86.2539C66.0907 86.5376 65.8115 87.0374 65.6386 87.2878C65.4315 87.5879 65.3338 87.643 65.1982 87.643V88.643ZM67.0781 87.1114C67.5376 86.8356 67.9434 86.3731 68.2887 85.8558C68.6392 85.331 68.9525 84.7118 69.2142 84.0786C69.7318 82.8265 70.0793 81.441 70.0793 80.5346H69.0793C69.0793 81.2554 68.7837 82.5023 68.2901 83.6966C68.0462 84.2866 67.7619 84.844 67.4571 85.3005C67.1472 85.7646 66.8401 86.0879 66.5636 86.2539L67.0781 87.1114ZM70.0793 80.5346C70.0793 79.0888 69.5091 78.2782 69.0473 77.2005L68.1281 77.5944C68.665 78.8471 69.0793 79.3589 69.0793 80.5346H70.0793ZM69.0473 77.2005C68.7522 76.512 68.3444 76.012 67.9207 75.5902C67.7115 75.3819 67.4952 75.1895 67.2915 75.0081C67.0845 74.8237 66.8901 74.6502 66.7056 74.4657L65.9985 75.1728C66.2066 75.381 66.4225 75.5732 66.6264 75.7549C66.8337 75.9395 67.029 76.1134 67.2151 76.2988C67.582 76.6641 67.8994 77.0606 68.1281 77.5944L69.0473 77.2005ZM66.7056 74.4657C65.9299 73.69 64.5401 73.2924 63.2143 73.183C61.8769 73.0726 60.4255 73.2405 59.4598 73.7673L59.9386 74.6452C60.6622 74.2505 61.8894 74.077 63.1321 74.1796C64.3865 74.2831 65.4785 74.6528 65.9985 75.1728L66.7056 74.4657ZM59.4598 73.7673C57.2015 74.9991 55.7145 77.4476 55.0543 80.06C54.3939 82.6732 54.5334 85.5541 55.6487 87.7226L56.538 87.2653C55.5612 85.366 55.4068 82.7467 56.0238 80.305C56.6411 77.8624 58.003 75.701 59.9386 74.6452L59.4598 73.7673ZM55.6487 87.7226C56.4482 89.2773 57.7183 90.1863 59.0994 90.8305C59.7872 91.1513 60.5102 91.4101 61.2213 91.6495C61.9411 91.8919 62.6362 92.1106 63.311 92.3617L63.6597 91.4245C62.9655 91.1662 62.2349 90.9356 61.5404 90.7018C60.8372 90.465 60.1575 90.2206 59.5222 89.9243C58.2572 89.3342 57.2003 88.5531 56.538 87.2653L55.6487 87.7226ZM63.311 92.3617C64.5116 92.8085 66.0721 92.8541 67.5369 92.6269C69.0015 92.3998 70.4559 91.8867 71.4343 91.1359L70.8254 90.3426C70.0257 90.9563 68.7505 91.4268 67.3837 91.6387C66.0172 91.8506 64.6444 91.7909 63.6597 91.4245L63.311 92.3617ZM71.4343 91.1359C71.7419 90.8997 72.0742 90.6672 72.423 90.4236C72.7686 90.1822 73.1297 89.9302 73.4797 89.6646C74.1774 89.135 74.8652 88.5256 75.3546 87.7643L74.5135 87.2236C74.1185 87.8379 73.5404 88.363 72.8751 88.8681C72.5436 89.1197 72.1991 89.3601 71.8503 89.6038C71.5047 89.8452 71.1539 90.0905 70.8254 90.3426L71.4343 91.1359ZM75.3546 87.7643C76.4992 85.9839 77.0298 84.5368 77.6801 82.5858L76.7314 82.2696C76.088 84.1999 75.5887 85.5509 74.5135 87.2236L75.3546 87.7643ZM77.6801 82.5858C79.1241 78.2538 77.8335 74.2895 76.0522 70.5649L75.1501 70.9964C76.9036 74.6629 78.0476 78.3209 76.7314 82.2696L77.6801 82.5858ZM76.0522 70.5649C75.5968 69.6127 74.7587 68.8449 73.8665 68.2333C72.9682 67.6175 71.969 67.1294 71.1367 66.7549L70.7263 67.6668C71.5418 68.0338 72.4768 68.4931 73.3011 69.0581C74.1315 69.6274 74.8044 70.2737 75.1501 70.9964L76.0522 70.5649ZM71.1367 66.7549C70.1131 66.2942 69.1763 66.1227 68.2512 66.0241C67.3002 65.9228 66.4558 65.9023 65.4376 65.7433L65.2832 66.7313C66.319 66.8931 67.3028 66.9287 68.1452 67.0185C69.0135 67.111 69.8353 67.2658 70.7263 67.6668L71.1367 66.7549ZM65.4376 65.7433C62.8453 65.3382 60.467 65.4719 58.3316 66.2859C56.192 67.1015 54.3342 68.5856 52.7636 70.8175L53.5815 71.3929C55.0539 69.3006 56.7595 67.9553 58.6878 67.2203C60.6203 66.4837 62.8145 66.3455 65.2832 66.7313L65.4376 65.7433ZM52.7636 70.8175C52.1768 71.6514 51.5221 72.4545 50.855 73.2768C50.192 74.0941 49.5173 74.9295 48.9131 75.8066C47.701 77.5663 46.7479 79.5279 46.6869 81.9644L47.6866 81.9894C47.7408 79.8209 48.5834 78.0481 49.7367 76.3738C50.3153 75.5339 50.9658 74.7275 51.6316 73.9069C52.2933 73.0913 52.9711 72.2603 53.5815 71.3929L52.7636 70.8175ZM46.6869 81.9644C46.6765 82.383 46.644 82.8606 46.6117 83.3847C46.5797 83.9035 46.5485 84.4606 46.5433 85.0163C46.5332 86.1098 46.6212 87.2774 47.0618 88.1817L47.9608 87.7437C47.6291 87.0629 47.5334 86.0982 47.5433 85.0255C47.5482 84.4981 47.5779 83.9636 47.6098 83.4463C47.6413 82.9343 47.6756 82.4315 47.6866 81.9894L46.6869 81.9644ZM47.0618 88.1817C48.2263 90.572 50.2813 92.8447 52.4102 94.3892L52.9974 93.5798C50.9789 92.1154 49.0422 89.9634 47.9608 87.7437L47.0618 88.1817ZM52.4102 94.3892C52.8945 94.7406 53.2527 95.1302 53.6888 95.5573C54.1151 95.9749 54.5945 96.4037 55.2639 96.725L55.6967 95.8235C55.1771 95.5741 54.7916 95.2377 54.3885 94.8429C53.9953 94.4577 53.5597 93.9877 52.9974 93.5798L52.4102 94.3892ZM55.2639 96.725C55.7584 96.9623 56.2711 97.1499 56.7547 97.3282C57.2462 97.5094 57.7089 97.6814 58.1449 97.8951L58.5851 96.9972C58.0957 96.7573 57.5854 96.5686 57.1006 96.3899C56.6078 96.2083 56.1409 96.0367 55.6967 95.8235L55.2639 96.725ZM58.1449 97.8951C60.5607 99.0793 63.1338 99.3525 65.7571 99.3525V98.3525C63.1943 98.3525 60.8 98.083 58.5851 96.9972L58.1449 97.8951ZM65.7571 99.3525C68.2702 99.3525 70.2082 99.1871 72.5568 97.9225L72.0827 97.042C69.9496 98.1906 68.208 98.3525 65.7571 98.3525V99.3525ZM72.5568 97.9225C73.0407 97.6619 73.4687 97.28 73.8172 97.0054C74.1906 96.7111 74.5126 96.5015 74.8802 96.4198L74.6633 95.4436C74.0632 95.577 73.5923 95.9094 73.1982 96.22C72.7792 96.5503 72.4651 96.8361 72.0827 97.042L72.5568 97.9225ZM74.8802 96.4198C75.2255 96.3431 75.5768 96.2455 75.8736 96.0451C76.1925 95.8297 76.4078 95.5256 76.5442 95.1162L75.5956 94.8C75.5168 95.0364 75.4212 95.1439 75.314 95.2163C75.1847 95.3036 74.9945 95.37 74.6633 95.4436L74.8802 96.4198Z" fill="black"/>
<path d="M69.9729 216.361C69.9729 217.834 71.1668 219.028 72.6396 219.028C74.1123 219.028 75.3063 217.834 75.3063 216.361C75.3063 214.888 74.1123 213.694 72.6396 213.694C71.1668 213.694 69.9729 214.888 69.9729 216.361ZM71.5012 221.739L71.8357 221.367L71.5012 221.739ZM80.0588 222.014L79.5612 221.964L80.0588 222.014ZM76.6828 211.395L76.5934 211.887L76.6828 211.395ZM72.2863 211.14L72.1778 210.652L72.2863 211.14ZM68.0075 213.868L67.6922 213.48L68.0075 213.868ZM64.5138 218.481L64.0141 218.465L64.5138 218.481ZM64.5923 222.916L65.0493 222.713L64.5923 222.916ZM82.7085 206.645L82.9513 206.208L82.7085 206.645ZM58.5078 215.929L58.0436 215.743L58.5078 215.929ZM57.2909 226.332L57.6998 226.044L57.2909 226.332ZM61.766 229.786L61.9517 229.322L61.766 229.786ZM73.3462 231.18L73.4014 231.677L73.3462 231.18ZM78.1353 230.493L78.15 230.992L78.1353 230.493ZM82.1785 230.286C82.4547 230.286 82.6785 230.062 82.6785 229.786C82.6785 229.51 82.4547 229.286 82.1785 229.286V230.286ZM72.5844 215.864C72.2014 215.906 71.8341 216.11 71.5245 216.345C71.2055 216.588 70.8992 216.901 70.6337 217.233C70.3678 217.566 70.1325 217.93 69.9612 218.283C69.7956 218.623 69.6665 219 69.6665 219.344H70.6665C70.6665 219.223 70.7203 219.008 70.8606 218.72C70.9952 218.443 71.1887 218.141 71.4148 217.858C71.6414 217.574 71.8902 217.323 72.1296 217.142C72.3783 216.952 72.5727 216.871 72.6948 216.858L72.5844 215.864ZM69.6665 219.344C69.6665 220.653 70.3577 221.382 71.1667 222.11L71.8357 221.367C71.0609 220.67 70.6665 220.197 70.6665 219.344H69.6665ZM71.1667 222.11C71.9448 222.811 73.2222 223.16 74.4216 223.346C75.6491 223.537 76.9134 223.573 77.7623 223.573V222.573C76.9349 222.573 75.729 222.537 74.5752 222.358C73.3934 222.174 72.3785 221.856 71.8357 221.367L71.1667 222.11ZM77.7623 223.573C78.0188 223.573 78.226 223.59 78.5194 223.596C78.7804 223.602 79.0735 223.597 79.3508 223.534C79.6359 223.47 79.9303 223.339 80.1618 223.075C80.3919 222.812 80.5157 222.469 80.5563 222.063L79.5612 221.964C79.5348 222.228 79.4647 222.353 79.4101 222.415C79.357 222.476 79.2758 222.526 79.1303 222.559C78.977 222.593 78.7846 222.602 78.5408 222.597C78.3296 222.592 78.013 222.573 77.7623 222.573V223.573ZM80.5563 222.063C80.6993 220.633 80.912 219.228 80.912 217.696H79.912C79.912 219.161 79.7106 220.471 79.5612 221.964L80.5563 222.063ZM80.912 217.696C80.912 216.015 80.8727 214.486 80.3295 213.301C79.7545 212.046 78.6579 211.246 76.7723 210.903L76.5934 211.887C78.2478 212.188 79.0158 212.835 79.4204 213.718C79.8568 214.67 79.912 215.97 79.912 217.696H80.912ZM76.7723 210.903C75.3961 210.653 73.7577 210.301 72.1778 210.652L72.3948 211.628C73.7346 211.33 75.1474 211.624 76.5934 211.887L76.7723 210.903ZM72.1778 210.652C69.9369 211.15 69.3133 212.163 67.6922 213.48L68.3228 214.256C70.1197 212.796 70.4577 212.059 72.3948 211.628L72.1778 210.652ZM67.6922 213.48C67.0045 214.039 66.1001 214.706 65.3807 215.489C64.6522 216.281 64.0508 217.254 64.0141 218.465L65.0136 218.496C65.0401 217.621 65.4714 216.868 66.1169 216.166C66.7714 215.454 67.5822 214.858 68.3228 214.256L67.6922 213.48ZM64.0141 218.465C64.0055 218.75 63.9764 219.093 63.9431 219.482C63.9104 219.866 63.8741 220.289 63.8548 220.71C63.8174 221.527 63.8356 222.445 64.1354 223.119L65.0493 222.713C64.8554 222.277 64.8162 221.578 64.8538 220.756C64.872 220.357 64.9064 219.954 64.9395 219.567C64.9721 219.186 65.004 218.813 65.0136 218.496L64.0141 218.465ZM64.1354 223.119C65.414 225.996 68.1065 226.866 70.8724 227.049C72.259 227.141 73.7009 227.064 75.0499 226.967C76.4138 226.87 77.6636 226.753 78.7241 226.753V225.753C77.6162 225.753 76.3066 225.875 74.9782 225.97C73.6349 226.066 72.2516 226.138 70.9386 226.051C68.3052 225.877 66.1001 225.078 65.0493 222.713L64.1354 223.119ZM78.7241 226.753C81.4625 226.753 83.0877 225.051 83.9999 222.957C84.9037 220.883 85.1516 218.35 85.1516 216.439H84.1516C84.1516 218.292 83.9073 220.666 83.0832 222.558C82.2674 224.43 80.9289 225.753 78.7241 225.753V226.753ZM85.1516 216.439C85.1516 215.797 85.208 214.983 85.2507 214.047C85.2928 213.125 85.3198 212.11 85.2543 211.121C85.1264 209.191 84.6338 207.143 82.9513 206.208L82.4656 207.082C83.6507 207.741 84.1297 209.275 84.2565 211.187C84.3182 212.119 84.2934 213.089 84.2517 214.001C84.2107 214.899 84.1516 215.767 84.1516 216.439H85.1516ZM82.9513 206.208C81.3878 205.34 79.7197 205.021 78.0499 204.914C76.4016 204.808 74.6738 204.909 73.0714 204.909V205.909C74.7598 205.909 76.3758 205.808 77.986 205.912C79.5747 206.013 81.0798 206.312 82.4656 207.082L82.9513 206.208ZM73.0714 204.909C67.7798 204.909 64.6822 207.96 60.986 210.865L61.6038 211.651C65.4138 208.657 68.2047 205.909 73.0714 205.909V204.909ZM60.986 210.865C59.3554 212.146 58.6952 214.114 58.0436 215.743L58.9721 216.115C59.6641 214.385 60.2325 212.728 61.6038 211.651L60.986 210.865ZM58.0436 215.743C57.6984 216.606 57.1202 217.478 56.5631 218.494C56.0312 219.464 55.5348 220.544 55.5348 221.66H56.5348C56.5348 220.817 56.9151 219.931 57.4398 218.975C57.9392 218.065 58.5976 217.051 58.9721 216.115L58.0436 215.743ZM55.5348 221.66C55.5348 222.717 55.5453 223.516 55.7244 224.269C55.9077 225.04 56.2586 225.733 56.882 226.619L57.6998 226.044C57.118 225.217 56.8408 224.641 56.6973 224.038C56.5498 223.417 56.5348 222.737 56.5348 221.66H55.5348ZM56.882 226.619C58.126 228.387 59.5356 229.432 61.5803 230.25L61.9517 229.322C60.0662 228.568 58.8202 227.636 57.6998 226.044L56.882 226.619ZM61.5803 230.25C65.1205 231.666 69.6279 232.096 73.4014 231.677L73.291 230.683C69.65 231.087 65.3126 230.666 61.9517 229.322L61.5803 230.25ZM73.4014 231.677C74.2093 231.587 75.0437 231.422 75.8372 231.28C76.6424 231.136 77.4149 231.014 78.15 230.992L78.1206 229.993C77.3054 230.017 76.4697 230.151 75.6612 230.295C74.8409 230.442 74.0559 230.598 73.291 230.683L73.4014 231.677ZM78.15 230.992C78.9205 230.97 79.6673 230.777 80.3329 230.608C81.0217 230.434 81.6168 230.286 82.1785 230.286V229.286C81.4691 229.286 80.7489 229.471 80.0868 229.639C79.4017 229.813 78.7624 229.974 78.1206 229.993L78.15 230.992Z" fill="black"/>
</g>
</svg>
