<svg width="212" height="90" viewBox="0 0 212 90" fill="none" xmlns="http://www.w3.org/2000/svg">
<path d="M11 40.5C6.99987 26.5 5.99998 6.49999 19.5 2.49999C33 -1.50001 51.5 13 64.5 16C102.5 24.7692 126 2.49997 151 2.49997C172 2.49997 186.119 24.2836 190 33.5C194 43 214.913 55.7616 209 73.5C201.5 96 156.5 77 135.5 77C107.5 77 105.5 87.849 71.0002 88.5C18.0002 89.5 8.58982 85.126 2.50002 73.5C-2.99998 63 14.6057 53.1194 11 40.5Z" fill="#FFF7DB" stroke="black" stroke-width="2"/>
<path d="M23.876 64V57.2H32.716V25.036H24.284V18.236H41.42V57.2H50.124V64H23.876ZM64.812 64.748C61.956 64.748 59.372 64.068 57.06 62.708C54.748 61.3027 52.912 59.3533 51.552 56.86C50.192 54.3213 49.512 51.3973 49.512 48.088C49.512 44.96 50.192 42.1493 51.552 39.656C52.912 37.1173 54.748 35.1227 57.06 33.672C59.372 32.176 61.956 31.428 64.812 31.428C67.668 31.428 70.252 32.176 72.564 33.672C74.9213 35.1227 76.78 37.1173 78.14 39.656C79.5453 42.1493 80.248 44.96 80.248 48.088C80.248 51.352 79.5453 54.2533 78.14 56.792C76.78 59.2853 74.9213 61.2347 72.564 62.64C70.252 64.0453 67.668 64.748 64.812 64.748ZM64.812 57.88C66.172 57.88 67.3507 57.472 68.348 56.656C69.3907 55.84 70.2067 54.7067 70.796 53.256C71.3853 51.76 71.68 50.0373 71.68 48.088C71.68 46.0027 71.3853 44.2347 70.796 42.784C70.2067 41.3333 69.3907 40.2227 68.348 39.452C67.3507 38.6813 66.172 38.296 64.812 38.296C63.5427 38.296 62.3867 38.6813 61.344 39.452C60.3467 40.2227 59.5533 41.3333 58.964 42.784C58.3747 44.2347 58.08 46.0027 58.08 48.088C58.08 50.0373 58.3747 51.76 58.964 53.256C59.5533 54.7067 60.3467 55.84 61.344 56.656C62.3867 57.472 63.5427 57.88 64.812 57.88ZM94.528 76.308C92.2613 76.308 90.244 76.104 88.476 75.696C86.708 75.288 85.1893 74.6987 83.92 73.928C82.696 73.2027 81.7667 72.3187 81.132 71.276C80.4973 70.2333 80.18 69.1 80.18 67.876C80.18 66.8333 80.452 65.836 80.996 64.884C81.54 63.9773 82.288 63.1613 83.24 62.436C84.192 61.7107 85.212 61.144 86.3 60.736L90.244 62.232C89.7 62.64 89.1333 63.048 88.544 63.456C87.9547 63.864 87.456 64.2947 87.048 64.748C86.6853 65.2467 86.504 65.8133 86.504 66.448C86.504 67.0373 86.7307 67.5133 87.184 67.876C87.6373 68.284 88.272 68.6013 89.088 68.828C89.904 69.1 90.8333 69.2813 91.876 69.372C92.9187 69.508 94.0747 69.576 95.344 69.576C96.976 69.576 98.3587 69.44 99.492 69.168C100.625 68.896 101.487 68.5107 102.076 68.012C102.711 67.5133 103.028 66.924 103.028 66.244C103.028 65.6547 102.847 65.1787 102.484 64.816C102.121 64.4987 101.509 64.2493 100.648 64.068C99.7867 63.932 98.5853 63.864 97.044 63.864C95.5933 63.864 94.1427 63.8187 92.692 63.728C91.2867 63.592 89.9267 63.3653 88.612 63.048C87.3427 62.7307 86.1867 62.3 85.144 61.756C84.1013 61.212 83.2853 60.5547 82.696 59.784C82.152 58.968 81.88 57.9707 81.88 56.792C81.88 55.2053 82.356 53.868 83.308 52.78C84.26 51.6467 85.3933 50.672 86.708 49.856L90.584 51.896C90.176 52.2587 89.7907 52.576 89.428 52.848C89.0653 53.0747 88.7707 53.3013 88.544 53.528C88.3173 53.7547 88.204 54.0947 88.204 54.548C88.204 55.0013 88.5893 55.4093 89.36 55.772C90.1307 56.1347 91.332 56.4067 92.964 56.588C94.6413 56.724 96.8173 56.792 99.492 56.792C101.396 56.792 103.005 57.0187 104.32 57.472C105.68 57.9253 106.768 58.56 107.584 59.376C108.4 60.192 108.989 61.1213 109.352 62.164C109.76 63.1613 109.964 64.2493 109.964 65.428C109.964 66.788 109.647 68.1027 109.012 69.372C108.423 70.6867 107.493 71.8653 106.224 72.908C104.955 73.9507 103.345 74.7667 101.396 75.356C99.4467 75.9907 97.1573 76.308 94.528 76.308ZM94.188 53.324C91.9667 53.324 89.9267 52.848 88.068 51.896C86.2547 50.8987 84.804 49.584 83.716 47.952C82.6733 46.32 82.152 44.484 82.152 42.444C82.152 40.3587 82.6733 38.4773 83.716 36.8C84.804 35.1227 86.2547 33.808 88.068 32.856C89.9267 31.8587 91.9667 31.36 94.188 31.36C96.4547 31.36 98.4947 31.8587 100.308 32.856C102.121 33.808 103.549 35.1227 104.592 36.8C105.68 38.4773 106.224 40.3587 106.224 42.444C106.224 44.484 105.68 46.32 104.592 47.952C103.549 49.584 102.121 50.8987 100.308 51.896C98.4947 52.848 96.4547 53.324 94.188 53.324ZM94.12 47.204C95.0267 47.204 95.8427 47.0227 96.568 46.66C97.2933 46.252 97.86 45.6853 98.268 44.96C98.676 44.1893 98.88 43.3507 98.88 42.444C98.88 41.492 98.676 40.676 98.268 39.996C97.86 39.316 97.2707 38.7947 96.5 38.432C95.7747 38.024 94.9813 37.82 94.12 37.82C93.3493 37.82 92.6013 38.024 91.876 38.432C91.196 38.84 90.6067 39.384 90.108 40.064C89.6547 40.744 89.428 41.5373 89.428 42.444C89.428 43.3053 89.632 44.0987 90.04 44.824C90.4933 45.5493 91.06 46.1387 91.74 46.592C92.4653 47 93.2587 47.204 94.12 47.204ZM104.252 38.228L100.988 34.148C102.257 33.2413 103.731 32.5387 105.408 32.04C107.131 31.496 108.944 31.292 110.848 31.428L111.596 37.072C110.281 36.8 108.967 36.7773 107.652 37.004C106.337 37.1853 105.204 37.5933 104.252 38.228ZM127.372 64V57.2H135.056V38.908H127.712V32.176H143.76V57.2H150.764V64H127.372ZM139 27.348C137.549 27.348 136.303 26.872 135.26 25.92C134.263 24.9227 133.764 23.744 133.764 22.384C133.764 20.9333 134.24 19.732 135.192 18.78C136.189 17.828 137.459 17.352 139 17.352C140.405 17.352 141.629 17.8507 142.672 18.848C143.76 19.8453 144.304 21.024 144.304 22.384C144.304 23.744 143.76 24.9227 142.672 25.92C141.629 26.872 140.405 27.348 139 27.348ZM151.172 64V32.176H159.876V36.188C160.647 35.236 161.44 34.42 162.256 33.74C163.072 33.0147 164.001 32.448 165.044 32.04C166.087 31.632 167.243 31.428 168.512 31.428C170.371 31.428 172.116 31.8813 173.748 32.788C175.38 33.6947 176.695 35.1453 177.692 37.14C178.689 39.0893 179.188 41.6507 179.188 44.824V64H170.484V44.892C170.484 43.3053 170.325 41.9907 170.008 40.948C169.691 39.9053 169.215 39.1347 168.58 38.636C167.945 38.1373 167.152 37.888 166.2 37.888C165.384 37.888 164.591 38.0467 163.82 38.364C163.095 38.6813 162.437 39.1573 161.848 39.792C161.259 40.3813 160.783 41.1067 160.42 41.968C160.057 42.784 159.876 43.736 159.876 44.824V64H151.172Z" fill="black"/>
</svg>
