<svg width="186" height="40" viewBox="0 0 186 40" fill="none" xmlns="http://www.w3.org/2000/svg">
<path d="M19.189 34.4211C-7.62842 29.9229 -0.811185 6.90501 14.1889 3.42112C29.1889 -0.0627663 28.6888 -0.31187 67.4222 6.18541C106.156 12.6827 134.641 9.06003 150.349 6.18541C161.274 4.18621 169.716 2.18706 177.165 6.18541C190.491 13.3386 183.62 30.3895 175.675 33.6739C147.867 45.1691 125.081 32.9205 88.6888 31.4211C57.4306 30.1333 36.0724 37.2531 19.189 34.4211Z" fill="white" stroke="black"/>
<path d="M11.4128 28.4211V10.9666H18.0946C19.3559 10.9666 20.4042 11.1655 21.2395 11.5632C22.0804 11.9552 22.7082 12.4922 23.123 13.174C23.5434 13.8558 23.7537 14.6285 23.7537 15.4922C23.7537 16.2024 23.6173 16.8103 23.3446 17.316C23.0718 17.816 22.7054 18.2223 22.2451 18.5348C21.7849 18.8473 21.2707 19.0717 20.7025 19.2081V19.3785C21.3218 19.4126 21.9156 19.603 22.4838 19.9496C23.0576 20.2905 23.5264 20.7734 23.89 21.3984C24.2537 22.0234 24.4355 22.7791 24.4355 23.6655C24.4355 24.5689 24.2167 25.3814 23.7792 26.103C23.3417 26.8189 22.6826 27.3842 21.802 27.799C20.9213 28.2138 19.8133 28.4211 18.4781 28.4211H11.4128ZM14.5747 25.7791H17.9753C19.123 25.7791 19.9497 25.5603 20.4554 25.1228C20.9667 24.6797 21.2224 24.1115 21.2224 23.4183C21.2224 22.9013 21.0946 22.4353 20.8389 22.0206C20.5832 21.6001 20.2196 21.2706 19.748 21.0319C19.2764 20.7876 18.7139 20.6655 18.0605 20.6655H14.5747V25.7791ZM14.5747 18.3899H17.7025C18.248 18.3899 18.7395 18.2905 19.177 18.0916C19.6145 17.8871 19.9582 17.6001 20.2082 17.2308C20.4639 16.8558 20.5917 16.4126 20.5917 15.9013C20.5917 15.2251 20.3531 14.6683 19.8758 14.2308C19.4042 13.7933 18.7025 13.5746 17.7707 13.5746H14.5747V18.3899ZM25.0098 28.4211V15.3302H28.0013V17.5121H28.1377C28.3763 16.7564 28.7854 16.174 29.3649 15.7649C29.9502 15.3501 30.6178 15.1427 31.3678 15.1427C31.5382 15.1427 31.7286 15.1513 31.9388 15.1683C32.1547 15.1797 32.3337 15.1996 32.4757 15.228V18.066C32.3451 18.0206 32.1377 17.9808 31.8536 17.9467C31.5752 17.9069 31.3053 17.8871 31.0439 17.8871C30.4814 17.8871 29.9757 18.0092 29.5269 18.2535C29.0837 18.4922 28.7343 18.8246 28.4786 19.2507C28.2229 19.6768 28.0951 20.1683 28.0951 20.7251V28.4211H25.0098ZM37.6566 28.6768C36.3782 28.6768 35.2703 28.3956 34.3328 27.8331C33.3953 27.2706 32.668 26.4836 32.1509 25.4723C31.6396 24.4609 31.3839 23.2791 31.3839 21.9268C31.3839 20.5746 31.6396 19.3899 32.1509 18.3728C32.668 17.3558 33.3953 16.566 34.3328 16.0035C35.2703 15.441 36.3782 15.1598 37.6566 15.1598C38.935 15.1598 40.043 15.441 40.9805 16.0035C41.918 16.566 42.6424 17.3558 43.1538 18.3728C43.6708 19.3899 43.9293 20.5746 43.9293 21.9268C43.9293 23.2791 43.6708 24.4609 43.1538 25.4723C42.6424 26.4836 41.918 27.2706 40.9805 27.8331C40.043 28.3956 38.935 28.6768 37.6566 28.6768ZM37.6737 26.2052C38.3668 26.2052 38.9464 26.0149 39.4123 25.6342C39.8782 25.2478 40.2248 24.7308 40.4521 24.0831C40.685 23.4353 40.8015 22.7138 40.8015 21.9183C40.8015 21.1172 40.685 20.3927 40.4521 19.745C40.2248 19.0916 39.8782 18.5717 39.4123 18.1853C38.9464 17.799 38.3668 17.6058 37.6737 17.6058C36.9634 17.6058 36.3725 17.799 35.9009 18.1853C35.435 18.5717 35.0856 19.0916 34.8526 19.745C34.6254 20.3927 34.5117 21.1172 34.5117 21.9183C34.5117 22.7138 34.6254 23.4353 34.8526 24.0831C35.0856 24.7308 35.435 25.2478 35.9009 25.6342C36.3725 26.0149 36.9634 26.2052 37.6737 26.2052ZM48.8394 10.9666V28.4211H45.6774V10.9666H48.8394ZM53.1835 10.9666V12.7052C53.1835 13.2052 53.0869 13.7251 52.8937 14.2649C52.7062 14.799 52.4477 15.3103 52.1182 15.799C51.7886 16.2819 51.4136 16.6967 50.9932 17.0433L49.5613 16.1143C49.8738 15.6427 50.1466 15.1342 50.3795 14.5888C50.6125 14.0376 50.7289 13.4155 50.7289 12.7223V10.9666H53.1835ZM53.4198 28.4211V15.3302H56.3687V17.5547H56.5221C56.7948 16.8047 57.2465 16.2194 57.8772 15.799C58.5079 15.3728 59.2607 15.1598 60.1357 15.1598C61.0221 15.1598 61.7693 15.3757 62.3772 15.8075C62.9908 16.2336 63.4227 16.816 63.6727 17.5547H63.809C64.0988 16.8274 64.5874 16.2478 65.2749 15.816C65.9681 15.3785 66.7891 15.1598 67.738 15.1598C68.9426 15.1598 69.9255 15.5405 70.6869 16.3018C71.4482 17.0632 71.8289 18.174 71.8289 19.6342V28.4211H68.7352V20.1115C68.7352 19.299 68.5193 18.7052 68.0874 18.3302C67.6556 17.9496 67.1272 17.7592 66.5022 17.7592C65.7579 17.7592 65.1755 17.9922 64.7551 18.4581C64.3403 18.9183 64.1329 19.5177 64.1329 20.2564V28.4211H61.1073V19.9836C61.1073 19.3075 60.9028 18.7677 60.4937 18.3643C60.0903 17.9609 59.5619 17.7592 58.9085 17.7592C58.4653 17.7592 58.0619 17.8728 57.6982 18.1001C57.3346 18.3217 57.0448 18.6371 56.8289 19.0461C56.613 19.4496 56.5051 19.9211 56.5051 20.4609V28.4211H53.4198ZM84.7747 16.5405C84.6326 16.0802 84.4366 15.6683 84.1866 15.3047C83.9423 14.9353 83.6468 14.62 83.3003 14.3586C82.9593 14.0973 82.5673 13.9013 82.1241 13.7706C81.6809 13.6342 81.198 13.566 80.6753 13.566C79.7378 13.566 78.9025 13.8018 78.1696 14.2734C77.4366 14.745 76.8599 15.4382 76.4395 16.353C76.0247 17.2621 75.8173 18.37 75.8173 19.6768C75.8173 20.995 76.0247 22.1115 76.4395 23.0263C76.8542 23.941 77.4309 24.6371 78.1696 25.1143C78.9082 25.5859 79.7662 25.8217 80.7434 25.8217C81.6298 25.8217 82.3968 25.6513 83.0446 25.3103C83.698 24.9694 84.2008 24.4865 84.5531 23.8615C84.9054 23.2308 85.0815 22.4922 85.0815 21.6456L85.7974 21.7564H81.0588V19.2848H88.1412V21.3814C88.1412 22.8757 87.823 24.1683 87.1866 25.2592C86.5503 26.3501 85.6753 27.191 84.5616 27.7819C83.448 28.3672 82.1696 28.6598 80.7264 28.6598C79.1184 28.6598 77.7065 28.299 76.4906 27.5774C75.2804 26.8501 74.3343 25.8189 73.6525 24.4836C72.9764 23.1427 72.6383 21.5518 72.6383 19.7109C72.6383 18.3018 72.8372 17.0433 73.2349 15.9353C73.6383 14.8274 74.2008 13.8871 74.9224 13.1143C75.644 12.3359 76.4906 11.745 77.4622 11.3416C78.4338 10.9325 79.4906 10.728 80.6326 10.728C81.5985 10.728 82.4991 10.87 83.3343 11.1541C84.1696 11.4325 84.911 11.8302 85.5588 12.3473C86.2122 12.8643 86.7491 13.478 87.1696 14.1882C87.59 14.8984 87.8656 15.6825 87.9963 16.5405H84.7747ZM94.7326 28.6768C93.4541 28.6768 92.3462 28.3956 91.4087 27.8331C90.4712 27.2706 89.7439 26.4836 89.2269 25.4723C88.7155 24.4609 88.4598 23.2791 88.4598 21.9268C88.4598 20.5746 88.7155 19.3899 89.2269 18.3728C89.7439 17.3558 90.4712 16.566 91.4087 16.0035C92.3462 15.441 93.4541 15.1598 94.7326 15.1598C96.011 15.1598 97.1189 15.441 98.0564 16.0035C98.9939 16.566 99.7184 17.3558 100.23 18.3728C100.747 19.3899 101.005 20.5746 101.005 21.9268C101.005 23.2791 100.747 24.4609 100.23 25.4723C99.7184 26.4836 98.9939 27.2706 98.0564 27.8331C97.1189 28.3956 96.011 28.6768 94.7326 28.6768ZM94.7496 26.2052C95.4428 26.2052 96.0223 26.0149 96.4882 25.6342C96.9541 25.2478 97.3007 24.7308 97.528 24.0831C97.761 23.4353 97.8774 22.7138 97.8774 21.9183C97.8774 21.1172 97.761 20.3927 97.528 19.745C97.3007 19.0916 96.9541 18.5717 96.4882 18.1853C96.0223 17.799 95.4428 17.6058 94.7496 17.6058C94.0394 17.6058 93.4485 17.799 92.9769 18.1853C92.511 18.5717 92.1615 19.0916 91.9286 19.745C91.7013 20.3927 91.5877 21.1172 91.5877 21.9183C91.5877 22.7138 91.7013 23.4353 91.9286 24.0831C92.1615 24.7308 92.511 25.2478 92.9769 25.6342C93.4485 26.0149 94.0394 26.2052 94.7496 26.2052ZM104.669 20.7507V28.4211H101.584V15.3302H104.533V17.5547H104.686C104.987 16.8217 105.467 16.2393 106.127 15.8075C106.791 15.3757 107.612 15.1598 108.59 15.1598C109.493 15.1598 110.28 15.353 110.95 15.7393C111.627 16.1257 112.149 16.6853 112.519 17.4183C112.894 18.1513 113.078 19.0405 113.073 20.0859V28.4211H109.987V20.5632C109.987 19.6882 109.76 19.0035 109.305 18.5092C108.857 18.0149 108.234 17.7677 107.439 17.7677C106.899 17.7677 106.419 17.8871 105.999 18.1257C105.584 18.3586 105.257 18.6967 105.019 19.1399C104.786 19.5831 104.669 20.12 104.669 20.7507ZM117.254 20.7507V28.4211H114.169V15.3302H117.118V17.5547H117.271C117.572 16.8217 118.052 16.2393 118.712 15.8075C119.376 15.3757 120.197 15.1598 121.175 15.1598C122.078 15.1598 122.865 15.353 123.535 15.7393C124.212 16.1257 124.734 16.6853 125.104 17.4183C125.479 18.1513 125.663 19.0405 125.658 20.0859V28.4211H122.572V20.5632C122.572 19.6882 122.345 19.0035 121.89 18.5092C121.442 18.0149 120.819 17.7677 120.024 17.7677C119.484 17.7677 119.004 17.8871 118.584 18.1257C118.169 18.3586 117.842 18.6967 117.604 19.1399C117.371 19.5831 117.254 20.12 117.254 20.7507ZM130.521 28.6853C129.691 28.6853 128.944 28.5376 128.279 28.2422C127.62 27.941 127.098 27.4978 126.711 26.9126C126.331 26.3274 126.14 25.6058 126.14 24.7478C126.14 24.0092 126.277 23.3984 126.549 22.9155C126.822 22.4325 127.194 22.0461 127.666 21.7564C128.137 21.4666 128.669 21.2478 129.26 21.1001C129.856 20.9467 130.473 20.8359 131.109 20.7677C131.876 20.6882 132.498 20.6172 132.975 20.5547C133.453 20.4865 133.799 20.3842 134.015 20.2478C134.237 20.1058 134.348 19.8871 134.348 19.5916V19.5405C134.348 18.8984 134.157 18.4013 133.777 18.049C133.396 17.6967 132.848 17.5206 132.132 17.5206C131.376 17.5206 130.777 17.6853 130.333 18.0149C129.896 18.3444 129.6 18.7336 129.447 19.1825L126.566 18.7734C126.794 17.978 127.169 17.3132 127.691 16.7791C128.214 16.2393 128.853 15.8359 129.609 15.5689C130.365 15.2961 131.2 15.1598 132.115 15.1598C132.745 15.1598 133.373 15.2336 133.998 15.3814C134.623 15.5291 135.194 15.7734 135.711 16.1143C136.228 16.4496 136.643 16.9069 136.956 17.4865C137.274 18.066 137.433 18.7905 137.433 19.6598V28.4211H134.467V26.6228H134.365C134.177 26.9865 133.913 27.3274 133.572 27.6456C133.237 27.9581 132.814 28.2109 132.302 28.4041C131.797 28.5916 131.203 28.6853 130.521 28.6853ZM131.322 26.4183C131.941 26.4183 132.478 26.2961 132.933 26.0518C133.387 25.8018 133.737 25.4723 133.981 25.0632C134.231 24.6541 134.356 24.2081 134.356 23.7251V22.1825C134.26 22.2621 134.095 22.3359 133.862 22.4041C133.635 22.4723 133.379 22.5319 133.095 22.5831C132.811 22.6342 132.529 22.6797 132.251 22.7194C131.973 22.7592 131.731 22.7933 131.527 22.8217C131.066 22.8842 130.654 22.9865 130.291 23.1285C129.927 23.2706 129.64 23.4694 129.43 23.7251C129.22 23.9751 129.115 24.299 129.115 24.6967C129.115 25.2649 129.322 25.6939 129.737 25.9836C130.152 26.2734 130.68 26.4183 131.322 26.4183ZM145.679 15.3302V17.7166H137.94V15.3302H145.679ZM139.875 28.4211V14.0944C139.875 13.2138 140.057 12.4808 140.42 11.8956C140.79 11.3103 141.284 10.8728 141.903 10.5831C142.523 10.2933 143.21 10.1484 143.966 10.1484C144.5 10.1484 144.974 10.191 145.389 10.2763C145.804 10.3615 146.111 10.4382 146.31 10.5064L145.696 12.8927C145.565 12.853 145.401 12.8132 145.202 12.7734C145.003 12.728 144.781 12.7052 144.537 12.7052C143.963 12.7052 143.557 12.8444 143.318 13.1228C143.085 13.3956 142.969 13.7876 142.969 14.299V28.4211H139.875ZM149.222 28.6853C148.393 28.6853 147.645 28.5376 146.981 28.2422C146.322 27.941 145.799 27.4978 145.413 26.9126C145.032 26.3274 144.842 25.6058 144.842 24.7478C144.842 24.0092 144.978 23.3984 145.251 22.9155C145.523 22.4325 145.895 22.0461 146.367 21.7564C146.839 21.4666 147.37 21.2478 147.961 21.1001C148.557 20.9467 149.174 20.8359 149.81 20.7677C150.577 20.6882 151.199 20.6172 151.677 20.5547C152.154 20.4865 152.501 20.3842 152.717 20.2478C152.938 20.1058 153.049 19.8871 153.049 19.5916V19.5405C153.049 18.8984 152.859 18.4013 152.478 18.049C152.097 17.6967 151.549 17.5206 150.833 17.5206C150.077 17.5206 149.478 17.6853 149.035 18.0149C148.597 18.3444 148.302 18.7336 148.148 19.1825L145.268 18.7734C145.495 17.978 145.87 17.3132 146.393 16.7791C146.915 16.2393 147.555 15.8359 148.31 15.5689C149.066 15.2961 149.901 15.1598 150.816 15.1598C151.447 15.1598 152.074 15.2336 152.699 15.3814C153.324 15.5291 153.895 15.7734 154.413 16.1143C154.93 16.4496 155.344 16.9069 155.657 17.4865C155.975 18.066 156.134 18.7905 156.134 19.6598V28.4211H153.168V26.6228H153.066C152.878 26.9865 152.614 27.3274 152.273 27.6456C151.938 27.9581 151.515 28.2109 151.003 28.4041C150.498 28.5916 149.904 28.6853 149.222 28.6853ZM150.023 26.4183C150.643 26.4183 151.18 26.2961 151.634 26.0518C152.089 25.8018 152.438 25.4723 152.682 25.0632C152.932 24.6541 153.057 24.2081 153.057 23.7251V22.1825C152.961 22.2621 152.796 22.3359 152.563 22.4041C152.336 22.4723 152.08 22.5319 151.796 22.5831C151.512 22.6342 151.231 22.6797 150.952 22.7194C150.674 22.7592 150.432 22.7933 150.228 22.8217C149.768 22.8842 149.356 22.9865 148.992 23.1285C148.628 23.2706 148.342 23.4694 148.131 23.7251C147.921 23.9751 147.816 24.299 147.816 24.6967C147.816 25.2649 148.023 25.6939 148.438 25.9836C148.853 26.2734 149.381 26.4183 150.023 26.4183ZM157.196 28.4211V15.3302H160.282V28.4211H157.196ZM158.748 13.4723C158.259 13.4723 157.838 13.3103 157.486 12.9865C157.134 12.6569 156.958 12.2621 156.958 11.8018C156.958 11.3359 157.134 10.941 157.486 10.6172C157.838 10.2876 158.259 10.1228 158.748 10.1228C159.242 10.1228 159.662 10.2876 160.009 10.6172C160.361 10.941 160.537 11.3359 160.537 11.8018C160.537 12.2621 160.361 12.6569 160.009 12.9865C159.662 13.3103 159.242 13.4723 158.748 13.4723ZM164.499 10.9666V28.4211H161.414V10.9666H164.499ZM167.533 28.6086C167.016 28.6086 166.572 28.4268 166.203 28.0632C165.834 27.6996 165.652 27.2564 165.658 26.7336C165.652 26.2223 165.834 25.7848 166.203 25.4211C166.572 25.0575 167.016 24.8757 167.533 24.8757C168.033 24.8757 168.467 25.0575 168.837 25.4211C169.212 25.7848 169.402 26.2223 169.408 26.7336C169.402 27.0802 169.311 27.3956 169.135 27.6797C168.964 27.9638 168.737 28.191 168.453 28.3615C168.175 28.5263 167.868 28.6086 167.533 28.6086Z" fill="black"/>
</svg>
