<svg width="389" height="692" viewBox="0 0 389 692" fill="none" xmlns="http://www.w3.org/2000/svg">
<path d="M10 1.5H378.055C382.749 1.5 386.555 5.30558 386.555 10V681.424C386.555 686.119 382.749 689.924 378.055 689.924H10C5.3056 689.924 1.5 686.119 1.5 681.424V9.99999C1.5 5.30557 5.30558 1.5 10 1.5Z" fill="#F0AF4C" stroke="black" stroke-width="3"/>
<line y1="-0.5" x2="295.011" y2="-0.5" transform="matrix(0.999963 0.00857928 -0.0313084 0.99951 46.0229 109.342)" stroke="black"/>
<line y1="-0.5" x2="295.011" y2="-0.5" transform="matrix(0.999963 0.00857928 -0.0313084 0.99951 46.0229 177.948)" stroke="black"/>
<line y1="-0.5" x2="295.011" y2="-0.5" transform="matrix(0.999963 0.00857928 -0.0313084 0.99951 46.0229 251.914)" stroke="black"/>
<line y1="-0.5" x2="295.011" y2="-0.5" transform="matrix(0.999963 0.00857928 -0.0313084 0.99951 46.0229 318.377)" stroke="black"/>
<line y1="-0.5" x2="295.011" y2="-0.5" transform="matrix(0.999963 0.00857928 -0.0313084 0.99951 46.0229 392.343)" stroke="black"/>
<line y1="-0.5" x2="295.011" y2="-0.5" transform="matrix(0.999963 0.00857928 -0.0313084 0.99951 46.0229 466.309)" stroke="black"/>
<line y1="-0.5" x2="295.011" y2="-0.5" transform="matrix(0.999963 0.00857928 -0.0313084 0.99951 46.0229 540.276)" stroke="black"/>
<line y1="-0.5" x2="295.011" y2="-0.5" transform="matrix(0.999963 0.00857928 -0.0313084 0.99951 46.0229 608.882)" stroke="black"/>
<line y1="-0.5" x2="295.011" y2="-0.5" transform="matrix(0.999963 0.00857928 -0.0313084 0.99951 46.0229 143.645)" stroke="black"/>
<line y1="-0.5" x2="295.011" y2="-0.5" transform="matrix(0.999963 0.00857928 -0.0313084 0.99951 46.0229 212.251)" stroke="black"/>
<line y1="-0.5" x2="295.011" y2="-0.5" transform="matrix(0.999963 0.00857928 -0.0313084 0.99951 46.0229 286.217)" stroke="black"/>
<line y1="-0.5" x2="295.011" y2="-0.5" transform="matrix(0.999963 0.00857928 -0.0313084 0.99951 46.0229 352.68)" stroke="black"/>
<line y1="-0.5" x2="295.011" y2="-0.5" transform="matrix(0.999963 0.00857928 -0.0313084 0.99951 46.0229 426.646)" stroke="black"/>
<line y1="-0.5" x2="295.011" y2="-0.5" transform="matrix(0.999963 0.00857928 -0.0313084 0.99951 46.0229 500.613)" stroke="black"/>
<line y1="-0.5" x2="295.011" y2="-0.5" transform="matrix(0.999963 0.00857928 -0.0313084 0.99951 46.0229 574.579)" stroke="black"/>
<path d="M33.071 57V42.2727H35.3338V57H33.071ZM34.2216 39.8182C33.7805 39.8182 33.4002 39.668 33.0806 39.3675C32.7674 39.0671 32.6108 38.706 32.6108 38.2841C32.6108 37.8622 32.7674 37.5011 33.0806 37.2006C33.4002 36.9002 33.7805 36.75 34.2216 36.75C34.6626 36.75 35.0398 36.9002 35.353 37.2006C35.6726 37.5011 35.8324 37.8622 35.8324 38.2841C35.8324 38.706 35.6726 39.0671 35.353 39.3675C35.0398 39.668 34.6626 39.8182 34.2216 39.8182ZM43.9931 42.2727V44.1903H36.361V42.2727H43.9931ZM38.5854 38.7443H40.8482V52.7812C40.8482 53.4205 40.9409 53.8999 41.1262 54.2195C41.318 54.5327 41.5609 54.7436 41.8549 54.8523C42.1554 54.9545 42.4718 55.0057 42.8042 55.0057C43.0534 55.0057 43.258 54.9929 43.4178 54.9673C43.5776 54.9354 43.7054 54.9098 43.8013 54.8906L44.2615 56.9233C44.1081 56.9808 43.894 57.0384 43.6191 57.0959C43.3443 57.1598 42.9959 57.1918 42.574 57.1918C41.9348 57.1918 41.3084 57.0543 40.6948 56.7795C40.0875 56.5046 39.5826 56.0859 39.1799 55.5234C38.7836 54.9609 38.5854 54.2514 38.5854 53.3949V38.7443ZM48.1762 37.3636V39.0895C48.1762 39.6136 48.0803 40.1729 47.8885 40.7674C47.7032 41.3555 47.4283 41.9276 47.0639 42.4837C46.706 43.0334 46.2713 43.5128 45.76 43.9219L44.5327 42.9247C44.9354 42.3494 45.2838 41.7518 45.5778 41.1317C45.8782 40.5053 46.0284 39.8374 46.0284 39.1278V37.3636H48.1762ZM57.0071 45.571L54.9744 46.1463C54.8465 45.8075 54.658 45.4783 54.4087 45.1587C54.1658 44.8327 53.8334 44.5643 53.4115 44.3533C52.9897 44.1424 52.4495 44.0369 51.7912 44.0369C50.8899 44.0369 50.1388 44.2447 49.538 44.6602C48.9435 45.0692 48.6463 45.5902 48.6463 46.223C48.6463 46.7855 48.8508 47.2298 49.2599 47.5558C49.669 47.8817 50.3082 48.1534 51.1775 48.3707L53.3636 48.9077C54.6804 49.2273 55.6615 49.7163 56.3071 50.3746C56.9527 51.0266 57.2755 51.8672 57.2755 52.8963C57.2755 53.7401 57.0326 54.4943 56.5468 55.1591C56.0674 55.8239 55.3963 56.348 54.5333 56.7315C53.6704 57.1151 52.6669 57.3068 51.5227 57.3068C50.0206 57.3068 48.7773 56.9808 47.7929 56.3288C46.8086 55.6768 46.1853 54.7244 45.9233 53.4716L48.071 52.9347C48.2755 53.7273 48.6622 54.3217 49.2311 54.718C49.8064 55.1143 50.5575 55.3125 51.4843 55.3125C52.539 55.3125 53.3764 55.0888 53.9964 54.6413C54.6228 54.1875 54.936 53.6442 54.936 53.0114C54.936 52.5 54.7571 52.0717 54.3991 51.7266C54.0412 51.375 53.4914 51.1129 52.75 50.9403L50.2954 50.3651C48.9467 50.0455 47.9559 49.5501 47.3231 48.8789C46.6967 48.2013 46.3835 47.3544 46.3835 46.3381C46.3835 45.5071 46.6168 44.772 47.0834 44.1328C47.5564 43.4936 48.1988 42.9918 49.0106 42.6275C49.8288 42.2631 50.7556 42.081 51.7912 42.081C53.2485 42.081 54.3927 42.4006 55.2237 43.0398C56.061 43.679 56.6555 44.5227 57.0071 45.571Z" fill="black"/>
<path d="M340.5 49C340.5 58.6784 332.876 66.5 323.5 66.5C314.124 66.5 306.5 58.6784 306.5 49C306.5 39.3216 314.124 31.5 323.5 31.5C332.876 31.5 340.5 39.3216 340.5 49Z" fill="#FFF7DB" stroke="black"/>
<path d="M335.5 49C335.5 58.6784 327.876 66.5 318.5 66.5C309.124 66.5 301.5 58.6784 301.5 49C301.5 39.3216 309.124 31.5 318.5 31.5C327.876 31.5 335.5 39.3216 335.5 49Z" stroke="black"/>
<path d="M320.281 41V57H318.344V43.0312H318.25L314.344 45.625V43.6562L318.344 41H320.281Z" fill="black"/>
</svg>
