<svg width="389" height="692" viewBox="0 0 389 692" fill="none" xmlns="http://www.w3.org/2000/svg">
<path d="M1.84923 9.99999C1.84923 5.30557 5.65481 1.5 10.3492 1.5H378.404C383.099 1.5 386.904 5.30558 386.904 10V681.424C386.904 686.119 383.099 689.924 378.404 689.924H10.3492C5.65483 689.924 1.84923 686.119 1.84923 681.424V9.99999Z" fill="#F0AF4C" stroke="black" stroke-width="3"/>
<line y1="-0.5" x2="285.276" y2="-0.5" transform="matrix(0.999972 0.00745378 -0.0360304 0.999351 50.7321 111.485)" stroke="black"/>
<line y1="-0.5" x2="285.276" y2="-0.5" transform="matrix(0.999972 0.00745378 -0.0360304 0.999351 50.732 180.092)" stroke="black"/>
<line y1="-0.5" x2="285.276" y2="-0.5" transform="matrix(0.999972 0.00745378 -0.0360304 0.999351 50.732 254.058)" stroke="black"/>
<line y1="-0.5" x2="285.276" y2="-0.5" transform="matrix(0.999972 0.00745378 -0.0360304 0.999351 50.732 320.521)" stroke="black"/>
<line y1="-0.5" x2="285.276" y2="-0.5" transform="matrix(0.999972 0.00745378 -0.0360304 0.999351 50.732 394.487)" stroke="black"/>
<line y1="-0.5" x2="285.276" y2="-0.5" transform="matrix(0.999972 0.00745378 -0.0360304 0.999351 50.732 468.453)" stroke="black"/>
<line y1="-0.5" x2="285.276" y2="-0.5" transform="matrix(0.999972 0.00745378 -0.0360304 0.999351 50.732 542.42)" stroke="black"/>
<line y1="-0.5" x2="285.276" y2="-0.5" transform="matrix(0.999972 0.00745378 -0.0360304 0.999351 50.732 611.026)" stroke="black"/>
<line y1="-0.5" x2="285.276" y2="-0.5" transform="matrix(0.999972 0.00745378 -0.0360304 0.999351 50.732 145.789)" stroke="black"/>
<line y1="-0.5" x2="285.276" y2="-0.5" transform="matrix(0.999972 0.00745378 -0.0360304 0.999351 50.732 214.395)" stroke="black"/>
<line y1="-0.5" x2="285.276" y2="-0.5" transform="matrix(0.999972 0.00745378 -0.0360304 0.999351 50.732 288.361)" stroke="black"/>
<line y1="-0.5" x2="285.276" y2="-0.5" transform="matrix(0.999972 0.00745378 -0.0360304 0.999351 50.732 354.824)" stroke="black"/>
<line y1="-0.5" x2="285.276" y2="-0.5" transform="matrix(0.999972 0.00745378 -0.0360304 0.999351 50.732 428.79)" stroke="black"/>
<line y1="-0.5" x2="285.276" y2="-0.5" transform="matrix(0.999972 0.00745378 -0.0360304 0.999351 50.732 502.757)" stroke="black"/>
<line y1="-0.5" x2="285.276" y2="-0.5" transform="matrix(0.999972 0.00745378 -0.0360304 0.999351 50.732 576.723)" stroke="black"/>
<path d="M36.7693 55.2887C35.8361 55.2887 34.9891 55.1129 34.2285 54.7613C33.4678 54.4034 32.8638 53.8888 32.4163 53.2176C31.9689 52.5401 31.7452 51.7219 31.7452 50.7631C31.7452 49.9193 31.9114 49.2354 32.2437 48.7112C32.5761 48.1807 33.0204 47.7652 33.5765 47.4648C34.1326 47.1644 34.7462 46.9406 35.4174 46.7936C36.095 46.6402 36.7757 46.5188 37.4597 46.4293C38.3545 46.3142 39.08 46.2279 39.6361 46.1704C40.1986 46.1065 40.6077 46.001 40.8634 45.854C41.1255 45.707 41.2565 45.4513 41.2565 45.0869V45.0102C41.2565 44.0642 40.9977 43.3291 40.4799 42.805C39.9685 42.2808 39.1919 42.0188 38.15 42.0188C37.0697 42.0188 36.2228 42.2553 35.6092 42.7283C34.9955 43.2013 34.5641 43.7063 34.3148 44.2432L32.167 43.4762C32.5506 42.5813 33.0619 41.8845 33.7011 41.386C34.3467 40.881 35.0499 40.5294 35.8105 40.3313C36.5776 40.1267 37.3318 40.0244 38.0733 40.0244C38.5463 40.0244 39.0896 40.082 39.7033 40.197C40.3233 40.3057 40.921 40.5326 41.4962 40.8778C42.0779 41.223 42.5605 41.7439 42.944 42.4406C43.3276 43.1374 43.5193 44.0706 43.5193 45.2404V54.9435H41.2565V52.9492H41.1415C40.9881 53.2688 40.7324 53.6107 40.3744 53.9751C40.0165 54.3394 39.5403 54.6494 38.9458 54.9051C38.3513 55.1608 37.6259 55.2887 36.7693 55.2887ZM37.1145 53.256C38.0094 53.256 38.7636 53.0802 39.3773 52.7286C39.9973 52.3771 40.4639 51.9232 40.7771 51.3671C41.0967 50.811 41.2565 50.2262 41.2565 49.6125V47.5415C41.1607 47.6565 40.9497 47.762 40.6237 47.8579C40.3041 47.9474 39.9334 48.0273 39.5115 48.0976C39.096 48.1615 38.6901 48.219 38.2938 48.2702C37.9039 48.3149 37.5875 48.3533 37.3446 48.3852C36.7565 48.4619 36.2068 48.5866 35.6955 48.7592C35.1905 48.9254 34.7814 49.1779 34.4682 49.5166C34.1614 49.849 34.008 50.3029 34.008 50.8781C34.008 51.6644 34.2988 52.2588 34.8805 52.6615C35.4685 53.0578 36.2132 53.256 37.1145 53.256ZM47.2122 35.3071V54.9435H44.9494V35.3071H47.2122ZM50.9194 35.3071V54.9435H48.6566V35.3071H50.9194Z" fill="black"/>
</svg>
