<svg width="389" height="692" viewBox="0 0 389 692" fill="none" xmlns="http://www.w3.org/2000/svg">
<path d="M1.5583 9.99999C1.5583 5.30557 5.36388 1.5 10.0583 1.5H378.113C382.808 1.5 386.613 5.30558 386.613 10V681.424C386.613 686.119 382.808 689.924 378.113 689.924H10.0583C5.3639 689.924 1.5583 686.119 1.5583 681.424V9.99999Z" fill="#F0AF4C" stroke="black" stroke-width="3"/>
<line y1="-0.5" x2="286.567" y2="-0.5" transform="matrix(0.999972 0.0074202 -0.0361933 0.999345 50.4411 112.557)" stroke="black"/>
<line y1="-0.5" x2="286.567" y2="-0.5" transform="matrix(0.999972 0.0074202 -0.0361933 0.999345 50.4411 181.164)" stroke="black"/>
<line y1="-0.5" x2="286.567" y2="-0.5" transform="matrix(0.999972 0.0074202 -0.0361933 0.999345 50.4411 255.13)" stroke="black"/>
<line y1="-0.5" x2="286.567" y2="-0.5" transform="matrix(0.999972 0.0074202 -0.0361933 0.999345 50.4411 321.593)" stroke="black"/>
<line y1="-0.5" x2="286.567" y2="-0.5" transform="matrix(0.999972 0.0074202 -0.0361933 0.999345 50.4411 395.559)" stroke="black"/>
<line y1="-0.5" x2="286.567" y2="-0.5" transform="matrix(0.999972 0.0074202 -0.0361933 0.999345 50.4411 469.525)" stroke="black"/>
<line y1="-0.5" x2="286.567" y2="-0.5" transform="matrix(0.999972 0.0074202 -0.0361933 0.999345 50.4411 543.492)" stroke="black"/>
<line y1="-0.5" x2="286.567" y2="-0.5" transform="matrix(0.999972 0.0074202 -0.0361933 0.999345 50.4411 612.098)" stroke="black"/>
<line y1="-0.5" x2="286.567" y2="-0.5" transform="matrix(0.999972 0.0074202 -0.0361933 0.999345 50.4411 146.861)" stroke="black"/>
<line y1="-0.5" x2="286.567" y2="-0.5" transform="matrix(0.999972 0.0074202 -0.0361933 0.999345 50.4411 215.467)" stroke="black"/>
<line y1="-0.5" x2="286.567" y2="-0.5" transform="matrix(0.999972 0.0074202 -0.0361933 0.999345 50.4411 289.434)" stroke="black"/>
<line y1="-0.5" x2="286.567" y2="-0.5" transform="matrix(0.999972 0.0074202 -0.0361933 0.999345 50.4411 355.896)" stroke="black"/>
<line y1="-0.5" x2="286.567" y2="-0.5" transform="matrix(0.999972 0.0074202 -0.0361933 0.999345 50.4411 429.862)" stroke="black"/>
<line y1="-0.5" x2="286.567" y2="-0.5" transform="matrix(0.999972 0.0074202 -0.0361933 0.999345 50.4411 503.829)" stroke="black"/>
<line y1="-0.5" x2="286.567" y2="-0.5" transform="matrix(0.999972 0.0074202 -0.0361933 0.999345 50.4411 577.795)" stroke="black"/>
<path d="M32.7293 61.133C31.6363 61.133 30.6967 60.9923 29.9104 60.7111C29.1242 60.4362 28.469 60.0719 27.9449 59.618C27.4271 59.1706 27.0149 58.6912 26.708 58.1798L28.5106 56.9142C28.7151 57.1827 28.974 57.4895 29.2872 57.8347C29.6004 58.1862 30.0287 58.4898 30.572 58.7455C31.1217 59.0076 31.8408 59.1386 32.7293 59.1386C33.9183 59.1386 34.8994 58.851 35.6729 58.2757C36.4463 57.7004 36.833 56.7991 36.833 55.5719V52.5804H36.6413C36.4751 52.8489 36.2386 53.1812 35.9318 53.5776C35.6313 53.9675 35.1967 54.3158 34.6278 54.6227C34.0653 54.9231 33.3046 55.0733 32.3458 55.0733C31.1569 55.0733 30.0894 54.792 29.1434 54.2295C28.2038 53.667 27.4591 52.8489 26.9094 51.775C26.3661 50.7011 26.0944 49.3972 26.0944 47.8631C26.0944 46.3545 26.3597 45.041 26.8902 43.9224C27.4207 42.7974 28.159 41.9281 29.105 41.3144C30.0511 40.6944 31.1441 40.3844 32.3842 40.3844C33.343 40.3844 34.1036 40.5442 34.6661 40.8638C35.235 41.177 35.6697 41.5349 35.9701 41.9376C36.2769 42.3339 36.5134 42.6599 36.6796 42.9156H36.9097V40.5761H39.0958V55.7253C39.0958 56.9909 38.8082 58.02 38.2329 58.8126C37.664 59.6116 36.897 60.1965 35.9318 60.5673C34.9729 60.9444 33.9055 61.133 32.7293 61.133ZM32.6526 53.0406C33.5603 53.0406 34.3274 52.8329 34.9538 52.4174C35.5802 52.0019 36.0564 51.4043 36.3824 50.6244C36.7084 49.8446 36.8714 48.9114 36.8714 47.8247C36.8714 46.7636 36.7116 45.8272 36.392 45.0154C36.0724 44.2036 35.5994 43.5676 34.9729 43.1074C34.3465 42.6472 33.5731 42.417 32.6526 42.417C31.6938 42.417 30.8948 42.6599 30.2556 43.1457C29.6228 43.6315 29.1466 44.2835 28.827 45.1017C28.5138 45.9199 28.3572 46.8276 28.3572 47.8247C28.3572 48.8474 28.517 49.7519 28.8366 50.5381C29.1626 51.318 29.642 51.9316 30.2748 52.379C30.914 52.8201 31.7066 53.0406 32.6526 53.0406ZM46.6558 55.6102C45.3263 55.6102 44.1597 55.2938 43.1562 54.661C42.159 54.0282 41.3792 53.1429 40.8167 52.0051C40.2606 50.8673 39.9825 49.5378 39.9825 48.0165C39.9825 46.4824 40.2606 45.1432 40.8167 43.9991C41.3792 42.8549 42.159 41.9664 43.1562 41.3336C44.1597 40.7008 45.3263 40.3844 46.6558 40.3844C47.9854 40.3844 49.1487 40.7008 50.1459 41.3336C51.1494 41.9664 51.9293 42.8549 52.4854 43.9991C53.0479 45.1432 53.3291 46.4824 53.3291 48.0165C53.3291 49.5378 53.0479 50.8673 52.4854 52.0051C51.9293 53.1429 51.1494 54.0282 50.1459 54.661C49.1487 55.2938 47.9854 55.6102 46.6558 55.6102ZM46.6558 53.5776C47.6658 53.5776 48.4967 53.3187 49.1487 52.8009C49.8007 52.2832 50.2833 51.6024 50.5965 50.7587C50.9097 49.9149 51.0663 49.0008 51.0663 48.0165C51.0663 47.0321 50.9097 46.1148 50.5965 45.2647C50.2833 44.4146 49.8007 43.7274 49.1487 43.2033C48.4967 42.6791 47.6658 42.417 46.6558 42.417C45.6459 42.417 44.8149 42.6791 44.1629 43.2033C43.5109 43.7274 43.0283 44.4146 42.7151 45.2647C42.4019 46.1148 42.2453 47.0321 42.2453 48.0165C42.2453 49.0008 42.4019 49.9149 42.7151 50.7587C43.0283 51.6024 43.5109 52.2832 44.1629 52.8009C44.8149 53.3187 45.6459 53.5776 46.6558 53.5776ZM56.076 46.444V55.3034H53.8132V40.5761H55.9993V42.8773H56.1911C56.5362 42.1294 57.0604 41.5285 57.7635 41.0747C58.4666 40.6145 59.3743 40.3844 60.4865 40.3844C61.4837 40.3844 62.3562 40.5889 63.1041 40.998C63.8519 41.4007 64.4336 42.0143 64.8491 42.8389C65.2646 43.6571 65.4723 44.6926 65.4723 45.9455V55.3034H63.2095V46.0989C63.2095 44.9419 62.9091 44.0406 62.3082 43.395C61.7074 42.743 60.8828 42.417 59.8345 42.417C59.1122 42.417 58.4666 42.5736 57.8977 42.8869C57.3352 43.2001 56.891 43.6571 56.565 44.258C56.239 44.8588 56.076 45.5875 56.076 46.444ZM68.8999 46.444V55.3034H66.6372V40.5761H68.8232V42.8773H69.015C69.3602 42.1294 69.8843 41.5285 70.5874 41.0747C71.2906 40.6145 72.1982 40.3844 73.3105 40.3844C74.3076 40.3844 75.1801 40.5889 75.928 40.998C76.6759 41.4007 77.2575 42.0143 77.673 42.8389C78.0885 43.6571 78.2962 44.6926 78.2962 45.9455V55.3034H76.0335V46.0989C76.0335 44.9419 75.733 44.0406 75.1322 43.395C74.5313 42.743 73.7068 42.417 72.6585 42.417C71.9362 42.417 71.2906 42.5736 70.7217 42.8869C70.1592 43.2001 69.7149 43.6571 69.3889 44.258C69.0629 44.8588 68.8999 45.5875 68.8999 46.444ZM83.7949 55.6486C82.8617 55.6486 82.0147 55.4728 81.2541 55.1212C80.4934 54.7633 79.8894 54.2487 79.4419 53.5776C78.9945 52.9 78.7708 52.0818 78.7708 51.123C78.7708 50.2793 78.937 49.5953 79.2693 49.0712C79.6017 48.5406 80.046 48.1251 80.6021 47.8247C81.1582 47.5243 81.7718 47.3006 82.443 47.1535C83.1206 47.0001 83.8013 46.8787 84.4853 46.7892C85.3801 46.6741 86.1056 46.5879 86.6617 46.5303C87.2242 46.4664 87.6333 46.3609 87.889 46.2139C88.1511 46.0669 88.2821 45.8112 88.2821 45.4469V45.3702C88.2821 44.4241 88.0233 43.6891 87.5055 43.1649C86.9941 42.6408 86.2175 42.3787 85.1756 42.3787C84.0953 42.3787 83.2484 42.6152 82.6348 43.0882C82.0211 43.5612 81.5897 44.0662 81.3404 44.6031L79.1926 43.8361C79.5762 42.9412 80.0875 42.2445 80.7267 41.7459C81.3723 41.2409 82.0755 40.8893 82.8361 40.6912C83.6032 40.4866 84.3574 40.3844 85.0989 40.3844C85.5719 40.3844 86.1152 40.4419 86.7289 40.557C87.3489 40.6656 87.9465 40.8925 88.5218 41.2377C89.1035 41.5829 89.5861 42.1038 89.9696 42.8006C90.3532 43.4973 90.5449 44.4305 90.5449 45.6003V55.3034H88.2821V53.3091H88.1671C88.0137 53.6287 87.758 53.9707 87.4 54.335C87.0421 54.6994 86.5659 55.0094 85.9714 55.2651C85.3769 55.5207 84.6514 55.6486 83.7949 55.6486ZM84.1401 53.6159C85.035 53.6159 85.7892 53.4401 86.4029 53.0886C87.0229 52.737 87.4895 52.2832 87.8027 51.7271C88.1223 51.1709 88.2821 50.5861 88.2821 49.9724V47.9014C88.1862 48.0165 87.9753 48.1219 87.6493 48.2178C87.3297 48.3073 86.959 48.3872 86.5371 48.4575C86.1216 48.5214 85.7157 48.579 85.3194 48.6301C84.9295 48.6749 84.6131 48.7132 84.3702 48.7452C83.7821 48.8219 83.2324 48.9465 82.721 49.1191C82.2161 49.2853 81.807 49.5378 81.4938 49.8766C81.187 50.2089 81.0335 50.6628 81.0335 51.2381C81.0335 52.0243 81.3244 52.6187 81.9061 53.0214C82.4941 53.4178 83.2388 53.6159 84.1401 53.6159Z" fill="black"/>
</svg>
