<svg width="389" height="692" viewBox="0 0 389 692" fill="none" xmlns="http://www.w3.org/2000/svg">
<path d="M10.1273 2.07556H378.182C382.877 2.07556 386.682 5.88115 386.682 10.5756V682C386.682 686.694 382.877 690.5 378.182 690.5H10.1273C5.43291 690.5 1.62732 686.694 1.62732 682V10.5756C1.62732 5.88114 5.4329 2.07556 10.1273 2.07556Z" fill="#F0AF4C" stroke="black" stroke-width="3"/>
<line y1="-0.5" x2="291.585" y2="-0.5" transform="matrix(0.999973 0.0073194 -0.0366911 0.999327 45.15 106.701)" stroke="black"/>
<line y1="-0.5" x2="291.585" y2="-0.5" transform="matrix(0.999973 0.0073194 -0.0366911 0.999327 45.1501 175.308)" stroke="black"/>
<line y1="-0.5" x2="291.585" y2="-0.5" transform="matrix(0.999973 0.0073194 -0.0366911 0.999327 45.1501 249.274)" stroke="black"/>
<line y1="-0.5" x2="291.585" y2="-0.5" transform="matrix(0.999973 0.0073194 -0.0366911 0.999327 45.1501 315.737)" stroke="black"/>
<line y1="-0.5" x2="291.585" y2="-0.5" transform="matrix(0.999973 0.0073194 -0.0366911 0.999327 45.1501 389.703)" stroke="black"/>
<line y1="-0.5" x2="291.585" y2="-0.5" transform="matrix(0.999973 0.0073194 -0.0366911 0.999327 45.1501 463.67)" stroke="black"/>
<line y1="-0.5" x2="291.585" y2="-0.5" transform="matrix(0.999973 0.0073194 -0.0366911 0.999327 45.1501 537.636)" stroke="black"/>
<line y1="-0.5" x2="291.585" y2="-0.5" transform="matrix(0.999973 0.0073194 -0.0366911 0.999327 45.1501 606.242)" stroke="black"/>
<line y1="-0.5" x2="291.585" y2="-0.5" transform="matrix(0.999973 0.0073194 -0.0366911 0.999327 45.1501 141.005)" stroke="black"/>
<line y1="-0.5" x2="291.585" y2="-0.5" transform="matrix(0.999973 0.0073194 -0.0366911 0.999327 45.1501 209.611)" stroke="black"/>
<line y1="-0.5" x2="291.585" y2="-0.5" transform="matrix(0.999973 0.0073194 -0.0366911 0.999327 45.1501 283.577)" stroke="black"/>
<line y1="-0.5" x2="291.585" y2="-0.5" transform="matrix(0.999973 0.0073194 -0.0366911 0.999327 45.1501 350.04)" stroke="black"/>
<line y1="-0.5" x2="291.585" y2="-0.5" transform="matrix(0.999973 0.0073194 -0.0366911 0.999327 45.1501 424.006)" stroke="black"/>
<line y1="-0.5" x2="291.585" y2="-0.5" transform="matrix(0.999973 0.0073194 -0.0366911 0.999327 45.1501 497.973)" stroke="black"/>
<line y1="-0.5" x2="291.585" y2="-0.5" transform="matrix(0.999973 0.0073194 -0.0366911 0.999327 45.1501 571.939)" stroke="black"/>
<path d="M29.1185 46.9435L24.6313 32.2162H27.0091L30.1923 43.4918H30.3458L33.4906 32.2162H35.9068L39.0134 43.4534H39.1668L42.35 32.2162H44.7279L40.2406 46.9435H38.0162L34.7946 35.6296H34.5645L31.3429 46.9435H29.1185ZM50.5013 47.2503C49.1718 47.2503 48.0052 46.9339 47.0017 46.3011C46.0045 45.6683 45.2247 44.783 44.6622 43.6452C44.1061 42.5074 43.828 41.1779 43.828 39.6565C43.828 38.1225 44.1061 36.7833 44.6622 35.6391C45.2247 34.495 46.0045 33.6065 47.0017 32.9737C48.0052 32.3409 49.1718 32.0244 50.5013 32.0244C51.8309 32.0244 52.9942 32.3409 53.9914 32.9737C54.9949 33.6065 55.7748 34.495 56.3309 35.6391C56.8934 36.7833 57.1746 38.1225 57.1746 39.6565C57.1746 41.1779 56.8934 42.5074 56.3309 43.6452C55.7748 44.783 54.9949 45.6683 53.9914 46.3011C52.9942 46.9339 51.8309 47.2503 50.5013 47.2503ZM50.5013 45.2176C51.5113 45.2176 52.3422 44.9588 52.9942 44.441C53.6462 43.9232 54.1288 43.2425 54.442 42.3987C54.7552 41.555 54.9118 40.6409 54.9118 39.6565C54.9118 38.6722 54.7552 37.7549 54.442 36.9048C54.1288 36.0546 53.6462 35.3675 52.9942 34.8433C52.3422 34.3192 51.5113 34.0571 50.5013 34.0571C49.4914 34.0571 48.6604 34.3192 48.0084 34.8433C47.3564 35.3675 46.8738 36.0546 46.5606 36.9048C46.2474 37.7549 46.0908 38.6722 46.0908 39.6565C46.0908 40.6409 46.2474 41.555 46.5606 42.3987C46.8738 43.2425 47.3564 43.9232 48.0084 44.441C48.6604 44.9588 49.4914 45.2176 50.5013 45.2176ZM57.9287 46.9435V32.2162H60.1148V34.4406H60.2682C60.5367 33.7119 61.0225 33.1207 61.7256 32.6668C62.4287 32.213 63.2213 31.9861 64.1034 31.9861C64.2696 31.9861 64.4774 31.9893 64.7267 31.9957C64.9759 32.0021 65.1645 32.0117 65.2923 32.0244V34.3256C65.2156 34.3064 65.0399 34.2776 64.765 34.2393C64.4965 34.1945 64.2121 34.1722 63.9117 34.1722C63.1958 34.1722 62.5566 34.3224 61.9941 34.6228C61.4379 34.9168 60.9969 35.3259 60.6709 35.8501C60.3513 36.3678 60.1915 36.9591 60.1915 37.6239V46.9435H57.9287ZM68.329 41.5742L68.2906 38.7744H68.7509L75.194 32.2162H77.9938L71.1287 39.158H70.9369L68.329 41.5742ZM66.2196 46.9435V27.3071H68.4824V46.9435H66.2196ZM75.5776 46.9435L69.8247 39.6565L71.4355 38.0841L78.454 46.9435H75.5776ZM84.1891 47.2503C82.8595 47.2503 81.693 46.9339 80.6894 46.3011C79.6923 45.6683 78.9125 44.783 78.35 43.6452C77.7938 42.5074 77.5158 41.1779 77.5158 39.6565C77.5158 38.1225 77.7938 36.7833 78.35 35.6391C78.9125 34.495 79.6923 33.6065 80.6894 32.9737C81.693 32.3409 82.8595 32.0244 84.1891 32.0244C85.5186 32.0244 86.682 32.3409 87.6791 32.9737C88.6827 33.6065 89.4625 34.495 90.0186 35.6391C90.5811 36.7833 90.8624 38.1225 90.8624 39.6565C90.8624 41.1779 90.5811 42.5074 90.0186 43.6452C89.4625 44.783 88.6827 45.6683 87.6791 46.3011C86.682 46.9339 85.5186 47.2503 84.1891 47.2503ZM84.1891 45.2176C85.199 45.2176 86.03 44.9588 86.682 44.441C87.334 43.9232 87.8166 43.2425 88.1298 42.3987C88.443 41.555 88.5996 40.6409 88.5996 39.6565C88.5996 38.6722 88.443 37.7549 88.1298 36.9048C87.8166 36.0546 87.334 35.3675 86.682 34.8433C86.03 34.3192 85.199 34.0571 84.1891 34.0571C83.1791 34.0571 82.3482 34.3192 81.6962 34.8433C81.0442 35.3675 80.5616 36.0546 80.2484 36.9048C79.9352 37.7549 79.7786 38.6722 79.7786 39.6565C79.7786 40.6409 79.9352 41.555 80.2484 42.3987C80.5616 43.2425 81.0442 43.9232 81.6962 44.441C82.3482 44.9588 83.1791 45.2176 84.1891 45.2176ZM101.438 40.9222V32.2162H103.701V46.9435H101.438V44.4506H101.284C100.939 45.1985 100.402 45.8345 99.6735 46.3586C98.9448 46.8764 98.0244 47.1352 96.9122 47.1352C95.9917 47.1352 95.1735 46.9339 94.4576 46.5312C93.7417 46.1221 93.1792 45.5085 92.7701 44.6903C92.361 43.8657 92.1565 42.827 92.1565 41.5742V32.2162H94.4193V41.4208C94.4193 42.4946 94.7197 43.3512 95.3205 43.9904C95.9278 44.6296 96.7012 44.9492 97.6409 44.9492C98.2034 44.9492 98.7755 44.8053 99.3571 44.5177C99.9452 44.2301 100.437 43.789 100.834 43.1945C101.236 42.6001 101.438 41.8426 101.438 40.9222ZM112.495 32.2162V34.1338H104.863V32.2162H112.495ZM107.087 28.6878H109.35V42.7247C109.35 43.3639 109.443 43.8433 109.628 44.1629C109.82 44.4762 110.063 44.6871 110.357 44.7958C110.657 44.898 110.973 44.9492 111.306 44.9492C111.555 44.9492 111.76 44.9364 111.92 44.9108C112.079 44.8789 112.207 44.8533 112.303 44.8341L112.763 46.8668C112.61 46.9243 112.396 46.9818 112.121 47.0394C111.846 47.1033 111.498 47.1352 111.076 47.1352C110.437 47.1352 109.81 46.9978 109.197 46.723C108.589 46.4481 108.084 46.0294 107.682 45.4669C107.285 44.9044 107.087 44.1949 107.087 43.3384V28.6878ZM114.848 47.0969C114.375 47.0969 113.969 46.9275 113.63 46.5887C113.291 46.2499 113.122 45.844 113.122 45.371C113.122 44.898 113.291 44.4921 113.63 44.1534C113.969 43.8146 114.375 43.6452 114.848 43.6452C115.321 43.6452 115.727 43.8146 116.065 44.1534C116.404 44.4921 116.574 44.898 116.574 45.371C116.574 45.6842 116.494 45.9719 116.334 46.234C116.18 46.496 115.973 46.707 115.711 46.8668C115.455 47.0202 115.167 47.0969 114.848 47.0969Z" fill="black"/>
<path d="M191.925 480.821C181.205 480.821 97.5913 590.232 129.215 431.58C133.809 408.532 143.773 374.563 153.046 357.669C162.318 340.775 225.212 337.155 238.113 357.669C252.342 380.293 262.751 411.451 266.963 427.758C287.331 506.597 248.74 540.316 229.374 510.349C227.187 506.966 202.645 480.821 191.925 480.821Z" fill="#FDE3A0" stroke="black"/>
<g style="mix-blend-mode:color-burn">
<path d="M182.278 479.213C167.27 477.605 88.4796 590.699 120.103 432.046C124.697 408.999 134.944 375.635 144.217 358.741C153.49 341.847 216.384 338.227 229.285 358.741C243.513 381.365 253.922 412.523 258.135 428.83C278.503 507.669 239.912 541.388 220.546 511.421C218.359 508.038 197.285 480.821 182.278 479.213Z" fill="#FDE3A0"/>
</g>
<path d="M195.141 455.63L164.054 449.198L165.747 397.743L195.677 408.463C199.429 411.679 204.392 408.463 204.789 408.463C210.149 407.212 233.282 399.351 233.282 399.351L234.804 448.126L203.717 456.166C203.717 457.452 195.677 457.238 195.141 455.63Z" fill="#C65959"/>
<path d="M195.141 455.63L164.054 449.198L165.747 397.743L195.677 408.463M195.141 455.63C195.677 457.238 203.717 457.452 203.717 456.166M195.141 455.63L195.677 408.463M204.789 408.463C205.325 408.463 204.789 439.55 204.789 449.198C204.789 458.846 203.717 454.558 203.717 456.166M204.789 408.463C204.392 408.463 199.429 411.679 195.677 408.463M204.789 408.463C210.149 407.212 233.282 399.351 233.282 399.351L234.804 448.126L203.717 456.166" stroke="black"/>
<g style="mix-blend-mode:multiply">
<path d="M195.617 452.858L167.356 447.404L168.428 402.567L196.104 412.858C199.515 415.586 204.026 412.858 204.387 412.858C209.26 411.798 230.602 404.711 230.602 404.711L231.674 446.495L203.413 453.313C203.413 454.404 196.104 454.222 195.617 452.858Z" fill="#C65959"/>
</g>
<path d="M128.678 375.231C134.038 369.871 145.294 360.76 150.654 365.584C156.55 368.799 157.622 374.695 154.942 382.199C151.139 392.847 136.718 392.919 138.862 402.567C140.007 407.72 167.137 409.937 176.917 419.718C187.101 429.902 188.709 435.798 176.917 437.406C169.694 438.391 123.282 424.258 119.031 413.822C113.135 399.351 122.746 381.164 128.678 375.231Z" fill="#F0F0F0"/>
<path d="M266.428 382.199C263.212 376.839 251.42 362.368 240.7 362.368C232.66 367.727 233.732 385.415 239.092 390.239C244.452 395.063 253.028 395.35 253.028 402.567C253.028 413.822 229.622 414.129 221.94 424.006C214.437 433.654 213.761 437.406 225.156 437.406C237.484 437.406 255.592 433.178 268.571 419.718C283.043 404.711 268.8 386.153 266.428 382.199Z" fill="#F0F0F0"/>
<path d="M128.678 375.231C134.038 369.871 145.294 360.76 150.654 365.584C156.55 368.799 157.622 374.695 154.942 382.199C151.139 392.847 136.718 392.919 138.862 402.567C140.007 407.72 167.137 409.937 176.917 419.718C187.101 429.902 188.709 435.798 176.917 437.406C169.694 438.391 123.282 424.258 119.031 413.822C113.135 399.351 122.746 381.164 128.678 375.231Z" stroke="black"/>
<path d="M266.428 382.199C263.212 376.839 251.42 362.368 240.7 362.368C232.66 367.727 233.732 385.415 239.092 390.239C244.452 395.063 253.028 395.35 253.028 402.567C253.028 413.822 229.622 414.129 221.94 424.006C214.437 433.654 213.761 437.406 225.156 437.406C237.484 437.406 255.592 433.178 268.571 419.718C283.043 404.711 268.8 386.153 266.428 382.199Z" stroke="black"/>
<g style="mix-blend-mode:exclusion">
<path d="M131.345 400.906C136.589 396.238 147.6 388.303 152.844 392.504C158.612 395.304 159.66 400.439 157.039 406.974C153.318 416.246 139.21 416.309 141.308 424.711C142.428 429.199 168.969 431.13 178.537 439.648C188.5 448.516 190.073 453.651 178.537 455.051C171.47 455.909 126.066 443.601 121.907 434.513C116.139 421.91 125.542 406.072 131.345 400.906Z" fill="#F0F0F0"/>
<path d="M266.105 406.974C262.958 402.306 251.422 389.703 240.935 389.703C233.07 394.371 234.119 409.774 239.362 413.975C244.606 418.176 252.996 418.426 252.996 424.711C252.996 434.513 230.098 434.78 222.583 443.382C215.242 451.784 214.581 455.051 225.729 455.051C237.789 455.051 255.504 451.369 268.202 439.648C282.359 426.578 268.425 410.417 266.105 406.974Z" fill="#F0F0F0"/>
</g>
<path d="M235.376 354.328C235.376 375.34 217.388 392.419 195.141 392.419C172.894 392.419 154.906 375.34 154.906 354.328C154.906 333.316 172.894 316.237 195.141 316.237C217.388 316.237 235.376 333.316 235.376 354.328Z" fill="#F0F0F0" stroke="black"/>
<g style="mix-blend-mode:exclusion">
<ellipse cx="191.389" cy="356.472" rx="35.9112" ry="33.2313" fill="#F0F0F0"/>
</g>
<path d="M217.653 336.104C217.653 338.181 217.653 339.739 214.437 339.22" stroke="#C65959"/>
<path d="M220.202 344.823C220.104 342.748 220.031 341.192 223.267 341.559" stroke="#C65959"/>
<path d="M214.443 341.464C216.52 341.468 218.078 341.471 217.552 344.686" stroke="#C65959"/>
<path d="M223.155 339.317C221.08 339.411 219.524 339.482 219.897 336.245" stroke="#C65959"/>
<path d="M180.133 366.12L186.565 362.904" stroke="#F4F4F4"/>
<path d="M198.357 363.652L203.717 366.12" stroke="#F4F4F4"/>
<path d="M187.637 374.695C187.637 378.84 185.718 382.199 183.349 382.199C180.981 382.199 179.062 378.84 179.062 374.695C179.062 370.551 180.981 367.192 183.349 367.192C185.718 367.192 187.637 370.551 187.637 374.695Z" fill="#D9D9D9"/>
<path d="M203.717 374.695C203.717 378.84 201.797 382.199 199.429 382.199C197.061 382.199 195.141 378.84 195.141 374.695C195.141 370.551 197.061 367.192 199.429 367.192C201.797 367.192 203.717 370.551 203.717 374.695Z" fill="#D9D9D9"/>
<g style="mix-blend-mode:overlay">
<path d="M187.964 375.231C187.964 379.08 186.211 382.199 184.048 382.199C181.886 382.199 180.133 379.08 180.133 375.231C180.133 371.383 181.886 368.263 184.048 368.263C186.211 368.263 187.964 371.383 187.964 375.231Z" fill="#D9D9D9"/>
<path d="M202.645 375.231C202.645 379.08 200.892 382.199 198.73 382.199C196.568 382.199 194.815 379.08 194.815 375.231C194.815 371.383 196.568 368.263 198.73 368.263C200.892 368.263 202.645 371.383 202.645 375.231Z" fill="#D9D9D9"/>
</g>
<g style="mix-blend-mode:difference">
<path d="M187.101 378.012C187.101 379.788 186.457 381.228 184.398 381.228C182.339 381.228 181.741 379.788 181.741 378.012C181.741 376.236 182.339 374.796 184.398 374.796C186.457 374.796 187.101 376.236 187.101 378.012Z" fill="#D9D9D9"/>
<path d="M201.059 378.012C201.059 379.788 200.462 381.228 198.403 381.228C196.343 381.228 195.7 379.788 195.7 378.012C195.7 376.236 196.343 375.332 198.403 375.332C200.462 375.332 201.059 376.236 201.059 378.012Z" fill="#D9D9D9"/>
</g>
</svg>
