<svg width="328" height="132" viewBox="0 0 328 132" fill="none" xmlns="http://www.w3.org/2000/svg">
<circle cx="233.002" cy="20" r="11.5" stroke="black"/>
<circle cx="206.002" cy="20" r="11.5" stroke="black"/>
<g style="mix-blend-mode:overlay">
<circle cx="316" cy="20" r="12" fill="black"/>
</g>
<circle cx="311" cy="20" r="11.5" stroke="black"/>
<circle cx="260.002" cy="20" r="11.5" stroke="black"/>
<path d="M310.502 126C310.502 129.038 312.965 131.5 316.002 131.5C319.04 131.5 321.502 129.038 321.502 126H310.502ZM321.502 126V65H310.502V126H321.502Z" fill="black"/>
<path d="M19.5 34C-7.31738 29.5017 -0.50015 6.48387 14.4999 2.99998C29.4999 -0.483909 28.9999 -0.733012 67.7333 5.76427C106.467 12.2615 134.952 8.63889 150.66 5.76427C161.585 3.76507 170.027 1.76592 177.476 5.76427C190.802 12.9175 183.931 29.9684 175.986 33.2527C148.178 44.7479 125.392 32.4994 88.9998 31C57.7416 29.7121 36.3834 36.832 19.5 34Z" fill="white" stroke="black"/>
<path d="M11.7238 28V10.5455H18.4056C19.6669 10.5455 20.7152 10.7443 21.5505 11.1421C22.3914 11.5341 23.0192 12.0711 23.434 12.7529C23.8544 13.4347 24.0647 14.2074 24.0647 15.0711C24.0647 15.7813 23.9283 16.3892 23.6556 16.8949C23.3828 17.3949 23.0164 17.8012 22.5561 18.1137C22.0959 18.4262 21.5817 18.6506 21.0135 18.787V18.9574C21.6328 18.9915 22.2266 19.1818 22.7948 19.5284C23.3686 19.8693 23.8374 20.3523 24.201 20.9773C24.5647 21.6023 24.7465 22.358 24.7465 23.2443C24.7465 24.1478 24.5277 24.9603 24.0902 25.6818C23.6527 26.3978 22.9936 26.9631 22.113 27.3779C21.2323 27.7926 20.1243 28 18.7891 28H11.7238ZM14.8857 25.358H18.2863C19.434 25.358 20.2607 25.1392 20.7664 24.7017C21.2777 24.2586 21.5334 23.6904 21.5334 22.9972C21.5334 22.4801 21.4056 22.0142 21.1499 21.5995C20.8942 21.179 20.5306 20.8495 20.059 20.6108C19.5874 20.3665 19.0249 20.2443 18.3715 20.2443H14.8857V25.358ZM14.8857 17.9688H18.0135C18.559 17.9688 19.0505 17.8693 19.488 17.6705C19.9255 17.4659 20.2692 17.179 20.5192 16.8097C20.7749 16.4347 20.9027 15.9915 20.9027 15.4801C20.9027 14.804 20.6641 14.2472 20.1868 13.8097C19.7152 13.3722 19.0135 13.1534 18.0817 13.1534H14.8857V17.9688ZM25.3208 28V14.9091H28.3123V17.0909H28.4487C28.6873 16.3353 29.0964 15.7529 29.6759 15.3438C30.2612 14.929 30.9288 14.7216 31.6788 14.7216C31.8492 14.7216 32.0396 14.7301 32.2498 14.7472C32.4657 14.7586 32.6447 14.7784 32.7867 14.8068V17.6449C32.6561 17.5995 32.4487 17.5597 32.1646 17.5256C31.8862 17.4858 31.6163 17.4659 31.3549 17.4659C30.7924 17.4659 30.2867 17.5881 29.8379 17.8324C29.3947 18.0711 29.0453 18.4034 28.7896 18.8296C28.5339 19.2557 28.4061 19.7472 28.4061 20.304V28H25.3208ZM37.9676 28.2557C36.6892 28.2557 35.5813 27.9745 34.6438 27.412C33.7063 26.8495 32.979 26.0625 32.4619 25.0512C31.9506 24.0398 31.6949 22.858 31.6949 21.5057C31.6949 20.1534 31.9506 18.9688 32.4619 17.9517C32.979 16.9347 33.7063 16.1449 34.6438 15.5824C35.5813 15.0199 36.6892 14.7387 37.9676 14.7387C39.246 14.7387 40.354 15.0199 41.2915 15.5824C42.229 16.1449 42.9534 16.9347 43.4648 17.9517C43.9818 18.9688 44.2403 20.1534 44.2403 21.5057C44.2403 22.858 43.9818 24.0398 43.4648 25.0512C42.9534 26.0625 42.229 26.8495 41.2915 27.412C40.354 27.9745 39.246 28.2557 37.9676 28.2557ZM37.9847 25.7841C38.6778 25.7841 39.2574 25.5938 39.7233 25.2131C40.1892 24.8267 40.5358 24.3097 40.7631 23.662C40.996 23.0142 41.1125 22.2926 41.1125 21.4972C41.1125 20.6961 40.996 19.9716 40.7631 19.3239C40.5358 18.6705 40.1892 18.1506 39.7233 17.7642C39.2574 17.3779 38.6778 17.1847 37.9847 17.1847C37.2744 17.1847 36.6835 17.3779 36.2119 17.7642C35.746 18.1506 35.3966 18.6705 35.1636 19.3239C34.9364 19.9716 34.8227 20.6961 34.8227 21.4972C34.8227 22.2926 34.9364 23.0142 35.1636 23.662C35.3966 24.3097 35.746 24.8267 36.2119 25.2131C36.6835 25.5938 37.2744 25.7841 37.9847 25.7841ZM49.1504 10.5455V28H45.9884V10.5455H49.1504ZM53.4945 10.5455V12.2841C53.4945 12.7841 53.3979 13.304 53.2047 13.8438C53.0172 14.3779 52.7587 14.8892 52.4292 15.3779C52.0996 15.8608 51.7246 16.2756 51.3042 16.6222L49.8723 15.6932C50.1848 15.2216 50.4576 14.7131 50.6905 14.1676C50.9235 13.6165 51.04 12.9943 51.04 12.3012V10.5455H53.4945ZM53.7308 28V14.9091H56.6797V17.1336H56.8331C57.1058 16.3836 57.5575 15.7983 58.1882 15.3779C58.8189 14.9517 59.5717 14.7387 60.4467 14.7387C61.3331 14.7387 62.0803 14.9546 62.6882 15.3864C63.3019 15.8125 63.7337 16.3949 63.9837 17.1336H64.12C64.4098 16.4063 64.8984 15.8267 65.5859 15.3949C66.2791 14.9574 67.1001 14.7387 68.049 14.7387C69.2536 14.7387 70.2365 15.1193 70.9979 15.8807C71.7592 16.6421 72.1399 17.7529 72.1399 19.2131V28H69.0462V19.6904C69.0462 18.8779 68.8303 18.2841 68.3984 17.9091C67.9666 17.5284 67.4382 17.3381 66.8132 17.3381C66.0689 17.3381 65.4865 17.5711 65.0661 18.037C64.6513 18.4972 64.4439 19.0966 64.4439 19.8353V28H61.4183V19.5625C61.4183 18.8864 61.2138 18.3466 60.8047 17.9432C60.4013 17.5398 59.8729 17.3381 59.2195 17.3381C58.7763 17.3381 58.3729 17.4517 58.0092 17.679C57.6456 17.9006 57.3558 18.2159 57.1399 18.625C56.924 19.0284 56.8161 19.5 56.8161 20.0398V28H53.7308ZM85.0857 16.1193C84.9436 15.6591 84.7476 15.2472 84.4976 14.8836C84.2533 14.5142 83.9578 14.1989 83.6113 13.9375C83.2703 13.6762 82.8783 13.4801 82.4351 13.3495C81.9919 13.2131 81.509 13.1449 80.9863 13.1449C80.0488 13.1449 79.2135 13.3807 78.4806 13.8523C77.7476 14.3239 77.1709 15.0171 76.7505 15.9318C76.3357 16.8409 76.1283 17.9489 76.1283 19.2557C76.1283 20.5739 76.3357 21.6904 76.7505 22.6051C77.1652 23.5199 77.7419 24.2159 78.4806 24.6932C79.2192 25.1648 80.0772 25.4006 81.0544 25.4006C81.9408 25.4006 82.7078 25.2301 83.3556 24.8892C84.009 24.5483 84.5118 24.0654 84.8641 23.4404C85.2164 22.8097 85.3925 22.0711 85.3925 21.2245L86.1084 21.3353H81.3698V18.8637H88.4522V20.9603C88.4522 22.4546 88.134 23.7472 87.4976 24.8381C86.8613 25.929 85.9863 26.7699 84.8726 27.3608C83.759 27.9461 82.4806 28.2387 81.0374 28.2387C79.4294 28.2387 78.0175 27.8779 76.8016 27.1563C75.5914 26.429 74.6453 25.3978 73.9635 24.0625C73.2874 22.7216 72.9493 21.1307 72.9493 19.2898C72.9493 17.8807 73.1482 16.6222 73.5459 15.5142C73.9493 14.4063 74.5118 13.4659 75.2334 12.6932C75.955 11.9148 76.8016 11.3239 77.7732 10.9205C78.7448 10.5114 79.8016 10.3068 80.9436 10.3068C81.9096 10.3068 82.8101 10.4489 83.6453 10.733C84.4806 11.0114 85.2221 11.4091 85.8698 11.9262C86.5232 12.4432 87.0601 13.0568 87.4806 13.7671C87.901 14.4773 88.1766 15.2614 88.3073 16.1193H85.0857ZM95.0436 28.2557C93.7652 28.2557 92.6572 27.9745 91.7197 27.412C90.7822 26.8495 90.0549 26.0625 89.5379 25.0512C89.0265 24.0398 88.7708 22.858 88.7708 21.5057C88.7708 20.1534 89.0265 18.9688 89.5379 17.9517C90.0549 16.9347 90.7822 16.1449 91.7197 15.5824C92.6572 15.0199 93.7652 14.7387 95.0436 14.7387C96.322 14.7387 97.4299 15.0199 98.3674 15.5824C99.3049 16.1449 100.029 16.9347 100.541 17.9517C101.058 18.9688 101.316 20.1534 101.316 21.5057C101.316 22.858 101.058 24.0398 100.541 25.0512C100.029 26.0625 99.3049 26.8495 98.3674 27.412C97.4299 27.9745 96.322 28.2557 95.0436 28.2557ZM95.0606 25.7841C95.7538 25.7841 96.3333 25.5938 96.7992 25.2131C97.2652 24.8267 97.6117 24.3097 97.839 23.662C98.072 23.0142 98.1884 22.2926 98.1884 21.4972C98.1884 20.6961 98.072 19.9716 97.839 19.3239C97.6117 18.6705 97.2652 18.1506 96.7992 17.7642C96.3333 17.3779 95.7538 17.1847 95.0606 17.1847C94.3504 17.1847 93.7595 17.3779 93.2879 17.7642C92.822 18.1506 92.4725 18.6705 92.2396 19.3239C92.0123 19.9716 91.8987 20.6961 91.8987 21.4972C91.8987 22.2926 92.0123 23.0142 92.2396 23.662C92.4725 24.3097 92.822 24.8267 93.2879 25.2131C93.7595 25.5938 94.3504 25.7841 95.0606 25.7841ZM104.98 20.3296V28H101.895V14.9091H104.844V17.1336H104.997C105.298 16.4006 105.778 15.8182 106.438 15.3864C107.102 14.9546 107.923 14.7387 108.901 14.7387C109.804 14.7387 110.591 14.9318 111.261 15.3182C111.938 15.7046 112.46 16.2642 112.83 16.9972C113.205 17.7301 113.389 18.6193 113.384 19.6648V28H110.298V20.1421C110.298 19.2671 110.071 18.5824 109.616 18.0881C109.168 17.5938 108.545 17.3466 107.75 17.3466C107.21 17.3466 106.73 17.4659 106.31 17.7046C105.895 17.9375 105.568 18.2756 105.33 18.7188C105.097 19.162 104.98 19.6989 104.98 20.3296ZM117.565 20.3296V28H114.48V14.9091H117.429V17.1336H117.582C117.883 16.4006 118.363 15.8182 119.023 15.3864C119.687 14.9546 120.508 14.7387 121.486 14.7387C122.389 14.7387 123.176 14.9318 123.846 15.3182C124.523 15.7046 125.045 16.2642 125.415 16.9972C125.79 17.7301 125.974 18.6193 125.969 19.6648V28H122.883V20.1421C122.883 19.2671 122.656 18.5824 122.201 18.0881C121.753 17.5938 121.13 17.3466 120.335 17.3466C119.795 17.3466 119.315 17.4659 118.895 17.7046C118.48 17.9375 118.153 18.2756 117.915 18.7188C117.682 19.162 117.565 19.6989 117.565 20.3296ZM130.832 28.2642C130.002 28.2642 129.255 28.1165 128.59 27.8211C127.931 27.5199 127.409 27.0767 127.022 26.4915C126.642 25.9063 126.451 25.1847 126.451 24.3267C126.451 23.5881 126.588 22.9773 126.86 22.4943C127.133 22.0114 127.505 21.625 127.977 21.3353C128.448 21.0455 128.98 20.8267 129.571 20.679C130.167 20.5256 130.784 20.4148 131.42 20.3466C132.187 20.2671 132.809 20.1961 133.286 20.1336C133.764 20.0654 134.11 19.9631 134.326 19.8267C134.548 19.6847 134.659 19.4659 134.659 19.1705V19.1193C134.659 18.4773 134.468 17.9801 134.088 17.6279C133.707 17.2756 133.159 17.0995 132.443 17.0995C131.687 17.0995 131.088 17.2642 130.644 17.5938C130.207 17.9233 129.911 18.3125 129.758 18.7614L126.877 18.3523C127.105 17.5568 127.48 16.8921 128.002 16.358C128.525 15.8182 129.164 15.4148 129.92 15.1478C130.676 14.875 131.511 14.7387 132.426 14.7387C133.056 14.7387 133.684 14.8125 134.309 14.9603C134.934 15.108 135.505 15.3523 136.022 15.6932C136.539 16.0284 136.954 16.4858 137.267 17.0654C137.585 17.6449 137.744 18.3693 137.744 19.2387V28H134.778V26.2017H134.676C134.488 26.5654 134.224 26.9063 133.883 27.2245C133.548 27.537 133.125 27.7898 132.613 27.983C132.108 28.1705 131.514 28.2642 130.832 28.2642ZM131.633 25.9972C132.252 25.9972 132.789 25.875 133.244 25.6307C133.698 25.3807 134.048 25.0512 134.292 24.6421C134.542 24.233 134.667 23.787 134.667 23.304V21.7614C134.571 21.8409 134.406 21.9148 134.173 21.983C133.946 22.0512 133.69 22.1108 133.406 22.162C133.122 22.2131 132.84 22.2586 132.562 22.2983C132.284 22.3381 132.042 22.3722 131.838 22.4006C131.377 22.4631 130.965 22.5654 130.602 22.7074C130.238 22.8495 129.951 23.0483 129.741 23.304C129.531 23.554 129.426 23.8779 129.426 24.2756C129.426 24.8438 129.633 25.2728 130.048 25.5625C130.463 25.8523 130.991 25.9972 131.633 25.9972ZM145.99 14.9091V17.2955H138.251V14.9091H145.99ZM140.186 28V13.6733C140.186 12.7926 140.368 12.0597 140.731 11.4745C141.101 10.8892 141.595 10.4517 142.214 10.162C142.834 9.87219 143.521 9.7273 144.277 9.7273C144.811 9.7273 145.285 9.76992 145.7 9.85514C146.115 9.94037 146.422 10.0171 146.621 10.0853L146.007 12.4716C145.876 12.4318 145.712 12.3921 145.513 12.3523C145.314 12.3068 145.092 12.2841 144.848 12.2841C144.274 12.2841 143.868 12.4233 143.629 12.7017C143.396 12.9745 143.28 13.3665 143.28 13.8779V28H140.186ZM149.533 28.2642C148.704 28.2642 147.956 28.1165 147.292 27.8211C146.633 27.5199 146.11 27.0767 145.724 26.4915C145.343 25.9063 145.153 25.1847 145.153 24.3267C145.153 23.5881 145.289 22.9773 145.562 22.4943C145.834 22.0114 146.206 21.625 146.678 21.3353C147.15 21.0455 147.681 20.8267 148.272 20.679C148.868 20.5256 149.485 20.4148 150.121 20.3466C150.888 20.2671 151.51 20.1961 151.988 20.1336C152.465 20.0654 152.812 19.9631 153.028 19.8267C153.249 19.6847 153.36 19.4659 153.36 19.1705V19.1193C153.36 18.4773 153.17 17.9801 152.789 17.6279C152.408 17.2756 151.86 17.0995 151.144 17.0995C150.388 17.0995 149.789 17.2642 149.346 17.5938C148.908 17.9233 148.613 18.3125 148.459 18.7614L145.579 18.3523C145.806 17.5568 146.181 16.8921 146.704 16.358C147.226 15.8182 147.866 15.4148 148.621 15.1478C149.377 14.875 150.212 14.7387 151.127 14.7387C151.758 14.7387 152.385 14.8125 153.01 14.9603C153.635 15.108 154.206 15.3523 154.724 15.6932C155.241 16.0284 155.655 16.4858 155.968 17.0654C156.286 17.6449 156.445 18.3693 156.445 19.2387V28H153.479V26.2017H153.377C153.189 26.5654 152.925 26.9063 152.584 27.2245C152.249 27.537 151.826 27.7898 151.314 27.983C150.809 28.1705 150.215 28.2642 149.533 28.2642ZM150.334 25.9972C150.954 25.9972 151.491 25.875 151.945 25.6307C152.4 25.3807 152.749 25.0512 152.993 24.6421C153.243 24.233 153.368 23.787 153.368 23.304V21.7614C153.272 21.8409 153.107 21.9148 152.874 21.983C152.647 22.0512 152.391 22.1108 152.107 22.162C151.823 22.2131 151.542 22.2586 151.263 22.2983C150.985 22.3381 150.743 22.3722 150.539 22.4006C150.079 22.4631 149.667 22.5654 149.303 22.7074C148.939 22.8495 148.653 23.0483 148.442 23.304C148.232 23.554 148.127 23.8779 148.127 24.2756C148.127 24.8438 148.334 25.2728 148.749 25.5625C149.164 25.8523 149.692 25.9972 150.334 25.9972ZM157.507 28V14.9091H160.593V28H157.507ZM159.059 13.0512C158.57 13.0512 158.149 12.8892 157.797 12.5654C157.445 12.2358 157.269 11.8409 157.269 11.3807C157.269 10.9148 157.445 10.5199 157.797 10.1961C158.149 9.86651 158.57 9.70173 159.059 9.70173C159.553 9.70173 159.973 9.86651 160.32 10.1961C160.672 10.5199 160.848 10.9148 160.848 11.3807C160.848 11.8409 160.672 12.2358 160.32 12.5654C159.973 12.8892 159.553 13.0512 159.059 13.0512ZM164.81 10.5455V28H161.725V10.5455H164.81ZM167.844 28.1875C167.327 28.1875 166.883 28.0057 166.514 27.6421C166.145 27.2784 165.963 26.8353 165.969 26.3125C165.963 25.8012 166.145 25.3637 166.514 25C166.883 24.6364 167.327 24.4546 167.844 24.4546C168.344 24.4546 168.778 24.6364 169.148 25C169.523 25.3637 169.713 25.8012 169.719 26.3125C169.713 26.6591 169.622 26.9745 169.446 27.2586C169.275 27.5426 169.048 27.7699 168.764 27.9404C168.486 28.1051 168.179 28.1875 167.844 28.1875Z" fill="black"/>
</svg>
